<svg id="elements" xmlns="http://www.w3.org/2000/svg" width="1080" height="483" viewBox="0 0 1080 483"><defs><style>.cls-1,.cls-10,.cls-24{fill:#62d0fd;}.cls-1,.cls-5,.cls-6{stroke:#62d0fd;}.cls-1,.cls-16,.cls-19,.cls-3,.cls-6{stroke-miterlimit:10;}.cls-1,.cls-16,.cls-19,.cls-3,.cls-5,.cls-6{stroke-width:2px;}.cls-2{fill:#009cdb;}.cls-16,.cls-19,.cls-3,.cls-5,.cls-6{fill:none;}.cls-3{stroke:#fff;}.cls-4,.cls-7{fill:#fff;}.cls-5{stroke-linejoin:bevel;}.cls-10,.cls-21,.cls-22,.cls-24,.cls-26,.cls-7{font-size:14px;}.cls-7{font-family:Ubuntu-Bold, Ubuntu;font-weight:700;}.cls-8{letter-spacing:-0.01em;}.cls-9{letter-spacing:-0.04em;}.cls-10,.cls-24{font-family:Ubuntu;}.cls-11,.cls-24{letter-spacing:-0.02em;}.cls-12{letter-spacing:-0.01em;}.cls-13{letter-spacing:0em;}.cls-14{letter-spacing:-0.01em;}.cls-15{opacity:0.8;}.cls-16{stroke:#2f333b;}.cls-17,.cls-21,.cls-22,.cls-26{fill:#2f333b;}.cls-18,.cls-22{opacity:0.5;}.cls-19{stroke:#96989c;}.cls-20{fill:#96989c;}.cls-21{opacity:0.9;}.cls-21,.cls-22,.cls-26{font-family:SourceSansPro-Regular, Source Sans Pro;}.cls-21,.cls-22,.cls-28{letter-spacing:0.02em;}.cls-23{letter-spacing:-0.01em;}.cls-25{letter-spacing:-0.01em;}.cls-26{opacity:0.65;letter-spacing:0.01em;}.cls-27{letter-spacing:0.02em;}</style></defs><title>Zeichenfläche 1 Kopie 2</title><line class="cls-1" x1="160.9" y1="293" x2="110.9" y2="293"/><line class="cls-1" x1="483" y1="173" x2="483" y2="213"/><line class="cls-1" x1="941" y1="173" x2="941" y2="213"/><circle class="cls-2" cx="242.81" cy="292.53" r="60"/><circle class="cls-2" cx="482.9" cy="293" r="60"/><polyline class="cls-3" points="263 294 267 294 267 268 217 268 217 294 253 294"/><rect class="cls-3" x="237" y="294" width="10" height="6"/><circle class="cls-4" cx="258" cy="297" r="1"/><polygon class="cls-3" points="263 283 253 283 253 294 253 300 263 300 263 283"/><polygon class="cls-5" points="939.17 101.45 964.63 109.05 939.17 116.73 913.72 109.14 939.17 101.45"/><polyline class="cls-6" points="964.63 116.05 939.17 123.73 913.72 116.14"/><polyline class="cls-6" points="964.63 123.05 939.17 130.73 913.72 123.14"/><polygon class="cls-6" points="502 131 506 131 506 99 456 99 456 131 502 131"/><polygon class="cls-6" points="504.88 113 506 113 506 103.96 492 103.96 492 113 504.88 113"/><polygon class="cls-6" points="504.88 122 506 122 506 113 492 113 492 122 504.88 122"/><polygon class="cls-6" points="504.88 131 506 131 506 121.96 492 121.96 492 131 504.88 131"/><polygon class="cls-6" points="490.88 113 492 113 492 103.96 478 103.96 478 113 490.88 113"/><polygon class="cls-6" points="490.88 122 492 122 492 113 478 113 478 122 490.88 122"/><polygon class="cls-6" points="490.88 131 492 131 492 121.96 478 121.96 478 131 490.88 131"/><polygon class="cls-6" points="476.88 113 478 113 478 103.96 464 103.96 464 113 476.88 113"/><polygon class="cls-6" points="476.88 122 478 122 478 113 464 113 464 122 476.88 122"/><polygon class="cls-6" points="476.88 131 478 131 478 121.96 464 121.96 464 131 476.88 131"/><line class="cls-6" x1="456" y1="103.96" x2="464" y2="103.96"/><polygon class="cls-3" points="482.48 269.85 459.01 261.46 459.01 295.36 482.48 303.75 482.49 303.75 505.98 295.36 505.98 261.46 482.49 269.85 482.48 269.85"/><line class="cls-3" x1="463" y1="272.27" x2="478.49" y2="277.8"/><line class="cls-3" x1="482.49" y1="269.92" x2="482.49" y2="303.74"/><line class="cls-3" x1="463" y1="280.27" x2="478.49" y2="285.8"/><line class="cls-3" x1="463" y1="288.27" x2="478.49" y2="293.8"/><line class="cls-3" x1="501.98" y1="272.25" x2="486.49" y2="277.78"/><line class="cls-3" x1="501.98" y1="280.25" x2="486.49" y2="285.78"/><line class="cls-3" x1="501.98" y1="288.25" x2="486.49" y2="293.78"/><circle class="cls-6" cx="75.92" cy="267.36" r="7.98"/><path class="cls-6" d="M89.9,293.1A14.11,14.11,0,0,0,83.07,281l0,0a15.36,15.36,0,0,1-14.26,0l0,0A14.11,14.11,0,0,0,61.9,293.1V300h28v-6.95"/><text class="cls-7" transform="translate(460.26 323)">B<tspan class="cls-8" x="9.41" y="0">r</tspan><tspan x="15.18" y="0">o</tspan><tspan class="cls-9" x="23.67" y="0">k</tspan><tspan x="31.28" y="0">er</tspan></text><text class="cls-10" transform="translate(60.92 322.53)">User</text><text class="cls-10" transform="translate(902.82 154.05)"><tspan class="cls-11">E</tspan><tspan class="cls-12" x="7.64" y="0">v</tspan><tspan class="cls-13" x="14.48" y="0">ent s</tspan><tspan class="cls-14" x="45.44" y="0">t</tspan><tspan x="50.88" y="0">ore</tspan></text><text class="cls-10" transform="translate(451.75 153.93)">List s<tspan class="cls-14" x="32.16" y="0">t</tspan><tspan x="37.59" y="0">ore</tspan></text><text class="cls-7" transform="translate(222.72 322.53)">Client</text><g class="cls-15"><line class="cls-16" x1="325.9" y1="264" x2="393.73" y2="264"/><polygon class="cls-17" points="387.11 272.18 385.74 270.71 392.96 264 385.74 257.29 387.11 255.82 395.9 264 387.11 272.18"/></g><g class="cls-18"><line class="cls-19" x1="345" y1="293" x2="328.17" y2="293"/><polygon class="cls-20" points="334.8 284.82 336.16 286.29 328.94 293 336.16 299.71 334.8 301.18 326 293 334.8 284.82"/></g><text class="cls-21" transform="translate(325.32 248.49)">Commands</text><text class="cls-22" transform="translate(350.18 296.51)">Queries</text><g class="cls-15"><line class="cls-16" x1="561.9" y1="264" x2="629.73" y2="264"/><polygon class="cls-17" points="623.11 272.18 621.74 270.71 628.97 264 621.74 257.29 623.11 255.82 631.9 264 623.11 272.18"/></g><g class="cls-15"><line class="cls-16" x1="791.9" y1="264" x2="859.73" y2="264"/><polygon class="cls-17" points="853.11 272.18 851.74 270.71 858.97 264 851.74 257.29 853.11 255.82 861.9 264 853.11 272.18"/></g><line class="cls-19" x1="861.9" y1="323" x2="794.07" y2="323"/><polygon class="cls-20" points="800.7 314.82 802.06 316.29 794.84 323 802.06 329.71 800.7 331.18 791.9 323 800.7 314.82"/><rect class="cls-6" x="741.9" y="252" width="30" height="30"/><rect class="cls-6" x="711.9" y="252" width="30" height="30"/><rect class="cls-6" x="681.9" y="252" width="30" height="30"/><rect class="cls-6" x="651.9" y="252" width="30" height="30"/><rect class="cls-6" x="741.9" y="308" width="30" height="30"/><rect class="cls-6" x="711.9" y="308" width="30" height="30"/><rect class="cls-6" x="681.9" y="308" width="30" height="30"/><rect class="cls-6" x="651.9" y="308" width="30" height="30"/><text class="cls-10" transform="translate(664.91 236.42)"><tspan class="cls-23">C</tspan><tspan x="8.47" y="0">ommand bus</tspan></text><text class="cls-24" transform="translate(681.14 361.44)">E<tspan class="cls-12" x="7.64" y="0">v</tspan><tspan class="cls-13" x="14.48" y="0">ent bus</tspan></text><circle class="cls-2" cx="941.49" cy="293" r="60"/><polygon class="cls-3" points="961.6 265.91 968.54 269.89 954.62 294.19 947.67 298.27 947.68 290.21 961.6 265.91"/><line class="cls-3" x1="954.62" y1="294.18" x2="947.68" y2="290.21"/><line class="cls-3" x1="966.05" y1="274.23" x2="959.88" y2="270.69"/><line class="cls-3" x1="941.7" y1="299.09" x2="915.7" y2="299.09"/><text class="cls-7" transform="translate(925.86 322.46)"><tspan class="cls-25">C</tspan><tspan x="8.9" y="0">o</tspan><tspan class="cls-8" x="17.4" y="0">r</tspan><tspan x="23.17" y="0">e</tspan></text><line class="cls-19" x1="396" y1="323" x2="328.17" y2="323"/><polygon class="cls-20" points="334.8 314.82 336.16 316.29 328.94 323 336.16 329.71 334.8 331.18 326 323 334.8 314.82"/><text class="cls-26" transform="translate(344.74 347.44)">E<tspan class="cls-27" x="7.52" y="0">v</tspan><tspan class="cls-28" x="14.28" y="0">en</tspan><tspan x="29.44" y="0">t</tspan><tspan class="cls-28" x="34.31" y="0">s</tspan></text><line class="cls-19" x1="632" y1="323" x2="564.17" y2="323"/><polygon class="cls-20" points="570.8 314.82 572.16 316.29 564.94 323 572.16 329.71 570.8 331.18 562 323 570.8 314.82"/></svg>