<svg id="elements" xmlns="http://www.w3.org/2000/svg" width="1080" height="369" viewBox="0 0 1080 369"><defs><style>.cls-1,.cls-9{fill:#62d0fd;}.cls-1,.cls-5{stroke:#62d0fd;}.cls-1,.cls-11,.cls-14,.cls-3,.cls-5{stroke-miterlimit:10;stroke-width:2px;}.cls-2{fill:#009cdb;}.cls-11,.cls-14,.cls-3,.cls-5{fill:none;}.cls-3{stroke:#fff;}.cls-4,.cls-6{fill:#fff;}.cls-16,.cls-17,.cls-18,.cls-6,.cls-9{font-size:14px;}.cls-6{font-family:Ubuntu-Bold, Ubuntu;font-weight:700;}.cls-7{letter-spacing:-0.01em;}.cls-8{letter-spacing:-0.04em;}.cls-9{font-family:Ubuntu;}.cls-10{opacity:0.8;}.cls-11{stroke:#2f333b;}.cls-12,.cls-16,.cls-17,.cls-18{fill:#2f333b;}.cls-13,.cls-17{opacity:0.5;}.cls-14{stroke:#96989c;}.cls-15{fill:#96989c;}.cls-16{opacity:0.9;}.cls-16,.cls-17,.cls-18{font-family:SourceSansPro-Regular, Source Sans Pro;}.cls-16,.cls-17,.cls-20{letter-spacing:0.02em;}.cls-18{opacity:0.65;letter-spacing:0.01em;}.cls-19{letter-spacing:0.02em;}</style></defs><title>Zeichenfläche 1 Kopie 2</title><line class="cls-1" x1="160.9" y1="179" x2="110.9" y2="179"/><circle class="cls-2" cx="242.81" cy="178.53" r="60"/><circle class="cls-2" cx="482.9" cy="179" r="60"/><polyline class="cls-3" points="263 180 267 180 267 154 217 154 217 180 253 180"/><rect class="cls-3" x="237" y="180" width="10" height="6"/><circle class="cls-4" cx="258" cy="183" r="1"/><polygon class="cls-3" points="263 169 253 169 253 180 253 186 263 186 263 169"/><polygon class="cls-3" points="482.48 155.85 459.01 147.46 459.01 181.36 482.48 189.75 482.49 189.75 505.98 181.36 505.98 147.46 482.49 155.85 482.48 155.85"/><line class="cls-3" x1="463" y1="158.27" x2="478.49" y2="163.8"/><line class="cls-3" x1="482.49" y1="155.92" x2="482.49" y2="189.74"/><line class="cls-3" x1="463" y1="166.27" x2="478.49" y2="171.8"/><line class="cls-3" x1="463" y1="174.27" x2="478.49" y2="179.8"/><line class="cls-3" x1="501.98" y1="158.25" x2="486.49" y2="163.78"/><line class="cls-3" x1="501.98" y1="166.25" x2="486.49" y2="171.78"/><line class="cls-3" x1="501.98" y1="174.25" x2="486.49" y2="179.78"/><circle class="cls-5" cx="75.92" cy="153.36" r="7.98"/><path class="cls-5" d="M89.9,179.1A14.11,14.11,0,0,0,83.07,167l0,0a15.36,15.36,0,0,1-14.26,0l0,0A14.11,14.11,0,0,0,61.9,179.1V186h28v-6.95"/><text class="cls-6" transform="translate(460.26 209)">B<tspan class="cls-7" x="9.41" y="0">r</tspan><tspan x="15.18" y="0">o</tspan><tspan class="cls-8" x="23.67" y="0">k</tspan><tspan x="31.28" y="0">er</tspan></text><text class="cls-9" transform="translate(60.92 208.53)">User</text><text class="cls-6" transform="translate(222.72 208.53)">Client</text><g class="cls-10"><line class="cls-11" x1="325.9" y1="150" x2="393.73" y2="150"/><polygon class="cls-12" points="387.11 158.18 385.74 156.72 392.96 150 385.74 143.29 387.11 141.82 395.9 150 387.11 158.18"/></g><g class="cls-13"><line class="cls-14" x1="345" y1="179" x2="328.17" y2="179"/><polygon class="cls-15" points="334.8 170.82 336.16 172.28 328.94 179 336.16 185.71 334.8 187.18 326 179 334.8 170.82"/></g><text class="cls-16" transform="translate(325.32 134.49)">Commands</text><text class="cls-17" transform="translate(350.18 182.51)">Queries</text><line class="cls-14" x1="396" y1="209" x2="328.17" y2="209"/><polygon class="cls-15" points="334.8 200.82 336.16 202.28 328.94 209 336.16 215.71 334.8 217.18 326 209 334.8 200.82"/><text class="cls-18" transform="translate(344.74 233.44)">E<tspan class="cls-19" x="7.52" y="0">v</tspan><tspan class="cls-20" x="14.28" y="0">en</tspan><tspan x="29.44" y="0">t</tspan><tspan class="cls-20" x="34.31" y="0">s</tspan></text></svg>