<svg id="elements" xmlns="http://www.w3.org/2000/svg" width="1080" height="800" viewBox="0 0 1080 800"><defs><style>.cls-1,.cls-14,.cls-26,.cls-32,.cls-33,.cls-34{fill:#62d0fd;}.cls-1,.cls-11,.cls-12{stroke:#62d0fd;}.cls-1,.cls-12,.cls-18,.cls-21,.cls-9{stroke-miterlimit:10;}.cls-1,.cls-11,.cls-12,.cls-18,.cls-21,.cls-9{stroke-width:2px;}.cls-2{fill:#009cdb;}.cls-14,.cls-23,.cls-24,.cls-26,.cls-28,.cls-3,.cls-31,.cls-33,.cls-34{font-size:14px;}.cls-10,.cls-3{fill:#fff;}.cls-3{font-family:Ubuntu-Bold, Ubuntu;font-weight:700;}.cls-28,.cls-4{letter-spacing:0.01em;}.cls-5{letter-spacing:-0.01em;}.cls-6{letter-spacing:-0.01em;}.cls-7{letter-spacing:0em;}.cls-8{letter-spacing:-0.01em;}.cls-11,.cls-12,.cls-18,.cls-21,.cls-9{fill:none;}.cls-9{stroke:#fff;}.cls-11{stroke-linejoin:bevel;}.cls-13{letter-spacing:-0.04em;}.cls-14,.cls-26{font-family:Ubuntu;}.cls-15,.cls-26{letter-spacing:-0.02em;}.cls-16{letter-spacing:-0.01em;}.cls-17{opacity:0.8;}.cls-18{stroke:#2f333b;}.cls-19,.cls-23,.cls-24,.cls-28,.cls-31{fill:#2f333b;}.cls-20,.cls-24{opacity:0.5;}.cls-21{stroke:#96989c;}.cls-22{fill:#96989c;}.cls-23{opacity:0.9;}.cls-23,.cls-24,.cls-28,.cls-31,.cls-33,.cls-34{font-family:SourceSansPro-Regular, Source Sans Pro;}.cls-23,.cls-24,.cls-30,.cls-31,.cls-33{letter-spacing:0.02em;}.cls-25{letter-spacing:-0.01em;}.cls-27{letter-spacing:-0.01em;}.cls-28{opacity:0.65;}.cls-29{letter-spacing:0.02em;}.cls-34{letter-spacing:-0.05em;}.cls-35{letter-spacing:0.02em;}.cls-36{letter-spacing:0em;}.cls-37{letter-spacing:0.02em;}</style></defs><title>Zeichenfläche 1 Kopie 2</title><line class="cls-1" x1="160.9" y1="293" x2="110.9" y2="293"/><line class="cls-1" x1="483" y1="173" x2="483" y2="213"/><line class="cls-1" x1="941" y1="173" x2="941" y2="213"/><circle class="cls-2" cx="242.81" cy="292.53" r="60"/><circle class="cls-2" cx="482.9" cy="293" r="60"/><circle class="cls-2" cx="121.81" cy="531.53" r="60"/><text class="cls-3" transform="translate(94.02 561.53)">Identi<tspan class="cls-4" x="39.56" y="0">t</tspan><tspan x="45.92" y="0">y</tspan><tspan x="-1.62" y="14.8">p</tspan><tspan class="cls-5" x="6.84" y="14.8">r</tspan><tspan class="cls-6" x="12.61" y="14.8">o</tspan><tspan class="cls-7" x="20.91" y="14.8">vider</tspan></text><circle class="cls-2" cx="363.81" cy="532.53" r="60"/><text class="cls-3" transform="translate(341.98 562.53)">Depot</text><circle class="cls-2" cx="711.81" cy="532.53" r="60"/><text class="cls-3" transform="translate(692.53 562.53)">Fl<tspan class="cls-8" x="12.46" y="0">o</tspan><tspan x="20.79" y="0">ws</tspan></text><rect class="cls-9" x="103" y="520" width="36" height="22"/><path class="cls-9" d="M108,520.59v-3.18a13,13,0,0,1,26,0v3.18"/><circle class="cls-9" cx="121" cy="531" r="4"/><polygon class="cls-9" points="341 513.48 341 507 352.56 507 357.15 513.48 387.67 513.48 387.67 542 341 542 341 518.18 341 513.48"/><line class="cls-9" x1="387.67" y1="521.26" x2="341" y2="521.26"/><polyline class="cls-9" points="263 294 267 294 267 268 217 268 217 294 253 294"/><rect class="cls-9" x="237" y="294" width="10" height="6"/><circle class="cls-10" cx="258" cy="297" r="1"/><polygon class="cls-9" points="263 283 253 283 253 294 253 300 263 300 263 283"/><polygon class="cls-11" points="939.17 101.45 964.63 109.05 939.17 116.73 913.72 109.14 939.17 101.45"/><polyline class="cls-12" points="964.63 116.05 939.17 123.73 913.72 116.14"/><polyline class="cls-12" points="964.63 123.05 939.17 130.73 913.72 123.14"/><polygon class="cls-12" points="502 131 506 131 506 99 456 99 456 131 502 131"/><polygon class="cls-12" points="504.88 113 506 113 506 103.96 492 103.96 492 113 504.88 113"/><polygon class="cls-12" points="504.88 122 506 122 506 113 492 113 492 122 504.88 122"/><polygon class="cls-12" points="504.88 131 506 131 506 121.96 492 121.96 492 131 504.88 131"/><polygon class="cls-12" points="490.88 113 492 113 492 103.96 478 103.96 478 113 490.88 113"/><polygon class="cls-12" points="490.88 122 492 122 492 113 478 113 478 122 490.88 122"/><polygon class="cls-12" points="490.88 131 492 131 492 121.96 478 121.96 478 131 490.88 131"/><polygon class="cls-12" points="476.88 113 478 113 478 103.96 464 103.96 464 113 476.88 113"/><polygon class="cls-12" points="476.88 122 478 122 478 113 464 113 464 122 476.88 122"/><polygon class="cls-12" points="476.88 131 478 131 478 121.96 464 121.96 464 131 476.88 131"/><line class="cls-12" x1="456" y1="103.96" x2="464" y2="103.96"/><polygon class="cls-9" points="482.48 269.85 459.01 261.46 459.01 295.36 482.48 303.75 482.49 303.75 505.98 295.36 505.98 261.46 482.49 269.85 482.48 269.85"/><line class="cls-9" x1="463" y1="272.27" x2="478.49" y2="277.8"/><line class="cls-9" x1="482.49" y1="269.92" x2="482.49" y2="303.74"/><line class="cls-9" x1="463" y1="280.27" x2="478.49" y2="285.8"/><line class="cls-9" x1="463" y1="288.27" x2="478.49" y2="293.8"/><line class="cls-9" x1="501.98" y1="272.25" x2="486.49" y2="277.78"/><line class="cls-9" x1="501.98" y1="280.25" x2="486.49" y2="285.78"/><line class="cls-9" x1="501.98" y1="288.25" x2="486.49" y2="293.78"/><circle class="cls-12" cx="75.92" cy="267.36" r="7.98"/><path class="cls-12" d="M89.9,293.1A14.11,14.11,0,0,0,83.07,281l0,0a15.36,15.36,0,0,1-14.26,0l0,0A14.11,14.11,0,0,0,61.9,293.1V300h28v-6.95"/><text class="cls-3" transform="translate(460.26 323)">B<tspan class="cls-5" x="9.41" y="0">r</tspan><tspan x="15.18" y="0">o</tspan><tspan class="cls-13" x="23.67" y="0">k</tspan><tspan x="31.28" y="0">er</tspan></text><text class="cls-14" transform="translate(60.92 322.53)">User</text><text class="cls-14" transform="translate(902.82 154.05)"><tspan class="cls-15">E</tspan><tspan class="cls-16" x="7.64" y="0">v</tspan><tspan class="cls-7" x="14.48" y="0">ent s</tspan><tspan class="cls-6" x="45.44" y="0">t</tspan><tspan x="50.88" y="0">ore</tspan></text><text class="cls-14" transform="translate(451.75 153.93)">List s<tspan class="cls-6" x="32.16" y="0">t</tspan><tspan x="37.59" y="0">ore</tspan></text><text class="cls-3" transform="translate(222.72 322.53)">Client</text><g class="cls-17"><line class="cls-18" x1="325.9" y1="264" x2="393.73" y2="264"/><polygon class="cls-19" points="387.11 272.18 385.74 270.71 392.96 264 385.74 257.29 387.11 255.82 395.9 264 387.11 272.18"/></g><g class="cls-20"><line class="cls-21" x1="345" y1="293" x2="328.17" y2="293"/><polygon class="cls-22" points="334.8 284.82 336.16 286.29 328.94 293 336.16 299.71 334.8 301.18 326 293 334.8 284.82"/></g><text class="cls-23" transform="translate(325.32 248.49)">Commands</text><text class="cls-24" transform="translate(350.18 296.51)">Queries</text><g class="cls-17"><line class="cls-18" x1="561.9" y1="264" x2="629.73" y2="264"/><polygon class="cls-19" points="623.11 272.18 621.74 270.71 628.97 264 621.74 257.29 623.11 255.82 631.9 264 623.11 272.18"/></g><g class="cls-17"><line class="cls-18" x1="791.9" y1="264" x2="859.73" y2="264"/><polygon class="cls-19" points="853.11 272.18 851.74 270.71 858.97 264 851.74 257.29 853.11 255.82 861.9 264 853.11 272.18"/></g><line class="cls-21" x1="861.9" y1="323" x2="794.07" y2="323"/><polygon class="cls-22" points="800.7 314.82 802.06 316.29 794.84 323 802.06 329.71 800.7 331.18 791.9 323 800.7 314.82"/><rect class="cls-12" x="741.9" y="252" width="30" height="30"/><rect class="cls-12" x="711.9" y="252" width="30" height="30"/><rect class="cls-12" x="681.9" y="252" width="30" height="30"/><rect class="cls-12" x="651.9" y="252" width="30" height="30"/><rect class="cls-12" x="741.9" y="308" width="30" height="30"/><rect class="cls-12" x="711.9" y="308" width="30" height="30"/><rect class="cls-12" x="681.9" y="308" width="30" height="30"/><rect class="cls-12" x="651.9" y="308" width="30" height="30"/><text class="cls-14" transform="translate(664.91 236.42)"><tspan class="cls-25">C</tspan><tspan x="8.47" y="0">ommand bus</tspan></text><text class="cls-26" transform="translate(681.14 361.44)">E<tspan class="cls-16" x="7.64" y="0">v</tspan><tspan class="cls-7" x="14.48" y="0">ent bus</tspan></text><rect class="cls-12" x="971" y="521" width="30" height="30"/><rect class="cls-12" x="941" y="521" width="30" height="30"/><rect class="cls-12" x="911" y="521" width="30" height="30"/><rect class="cls-12" x="881" y="521" width="30" height="30"/><text class="cls-14" transform="translate(912.77 572.97)">Fl<tspan class="cls-27" x="11.34" y="0">o</tspan><tspan x="19.42" y="0">w bus</tspan></text><line class="cls-21" x1="862" y1="538" x2="794.17" y2="538"/><polygon class="cls-22" points="800.8 529.82 802.16 531.28 794.94 538 802.16 544.71 800.8 546.18 792 538 800.8 529.82"/><text class="cls-28" transform="translate(810.51 562.44)">E<tspan class="cls-29" x="7.52" y="0">v</tspan><tspan class="cls-30" x="14.28" y="0">en</tspan><tspan x="29.44" y="0">t</tspan><tspan class="cls-30" x="34.31" y="0">s</tspan></text><circle class="cls-2" cx="941.49" cy="293" r="60"/><polygon class="cls-9" points="961.6 265.91 968.54 269.89 954.62 294.19 947.67 298.27 947.68 290.21 961.6 265.91"/><line class="cls-9" x1="954.62" y1="294.18" x2="947.68" y2="290.21"/><line class="cls-9" x1="966.05" y1="274.23" x2="959.88" y2="270.69"/><line class="cls-9" x1="941.7" y1="299.09" x2="915.7" y2="299.09"/><text class="cls-3" transform="translate(925.86 322.46)"><tspan class="cls-8">C</tspan><tspan x="8.9" y="0">o</tspan><tspan class="cls-5" x="17.4" y="0">r</tspan><tspan x="23.17" y="0">e</tspan></text><line class="cls-21" x1="396" y1="323" x2="328.17" y2="323"/><polygon class="cls-22" points="334.8 314.82 336.16 316.29 328.94 323 336.16 329.71 334.8 331.18 326 323 334.8 314.82"/><text class="cls-28" transform="translate(344.74 347.44)">E<tspan class="cls-29" x="7.52" y="0">v</tspan><tspan class="cls-30" x="14.28" y="0">en</tspan><tspan x="29.44" y="0">t</tspan><tspan class="cls-30" x="34.31" y="0">s</tspan></text><line class="cls-21" x1="632" y1="323" x2="564.17" y2="323"/><polygon class="cls-22" points="570.8 314.82 572.16 316.29 564.94 323 572.16 329.71 570.8 331.18 562 323 570.8 314.82"/><g class="cls-17"><line class="cls-18" x1="646.24" y1="474.04" x2="537.83" y2="365.63"/><polygon class="cls-19" points="548.3 364.53 548.23 366.53 538.38 366.17 538.74 376.03 536.74 376.1 536.3 364.09 548.3 364.53"/></g><text class="cls-31" transform="translate(551.66 408.12) rotate(45)">Commands</text><line class="cls-12" x1="322" y1="453.07" x2="277" y2="365.93"/><polygon class="cls-32" points="326.23 443.43 324.3 442.89 321.65 452.39 312.37 449.05 311.7 450.94 323 455 326.23 443.43"/><polygon class="cls-32" points="287.3 368.06 286.63 369.95 277.35 366.61 274.7 376.11 272.77 375.57 276 364 287.3 368.06"/><line class="cls-12" x1="157" y1="453.07" x2="202" y2="365.93"/><polygon class="cls-32" points="167.3 450.94 166.63 449.05 157.35 452.39 154.7 442.89 152.77 443.43 156 455 167.3 450.94"/><polygon class="cls-32" points="206.23 375.57 204.3 376.11 201.65 366.61 192.37 369.95 191.7 368.06 203 364 206.23 375.57"/><text class="cls-33" transform="translate(273.08 408.01) rotate(60.57)">Files</text><line class="cls-21" x1="941" y1="373" x2="941" y2="495.83"/><polygon class="cls-22" points="932.82 489.2 934.28 487.84 941 495.06 947.71 487.84 949.18 489.2 941 498 932.82 489.2"/><text class="cls-34" transform="translate(189.96 440.05) rotate(-62.53)">T<tspan class="cls-35" x="6.86" y="0">o</tspan><tspan class="cls-36" x="14.73" y="0">k</tspan><tspan class="cls-37" x="21.69" y="0">ens</tspan></text><line class="cls-1" x1="403.9" y1="611" x2="403.9" y2="651"/><line class="cls-1" x1="322.9" y1="611" x2="322.9" y2="651"/><path class="cls-32" d="M303,699h8v2h-2v2h6v-2h-2v-2h20v2h-2v2h6v-2h-2v-2h8v-8H303Zm2-6h36v4H305Z"/><path class="cls-32" d="M303,689h40v-8H303Zm2-6h36v4H305Z"/><path class="cls-32" d="M303,671v8h40v-8Zm38,6H305v-4h36Z"/><rect class="cls-32" x="331" y="694" width="6" height="2"/><rect class="cls-32" x="331" y="684" width="6" height="2"/><rect class="cls-32" x="331" y="674" width="6" height="2"/><path class="cls-12" d="M419.66,702h-29.4a7.82,7.82,0,0,1-7.72-7.9h0a8,8,0,0,1,5-7.51,8.51,8.51,0,0,1-.28-2.12,7.64,7.64,0,0,1,7.54-7.8,7.46,7.46,0,0,1,5.85,2.89,10.37,10.37,0,0,1,10-8.38A10.55,10.55,0,0,1,421,681.87a11.24,11.24,0,0,1-.83,4.24,8.08,8.08,0,0,1,7.06,7.9h0a8.11,8.11,0,0,1-.71,3.35S424.21,702,419.66,702Z"/><text class="cls-14" transform="translate(397.27 725.93)">S3</text><text class="cls-14" transform="translate(287.65 725.93)">File sys<tspan class="cls-5" x="45.39" y="0">t</tspan><tspan x="50.88" y="0">em</tspan></text><path class="cls-10" d="M701.23,505l.33,1.16.28,1,1,.35a6.5,6.5,0,0,1,.72.31l.93.46.91-.51,1.09-.6.75.75-.59,1.05-.52.92.46.94a5.08,5.08,0,0,1,.31.74l.35,1,1,.28,1.16.33v1.07l-1.16.33-1,.28-.35,1a5.08,5.08,0,0,1-.31.74l-.46.94.52.92.59,1.05-.75.75-1.09-.6-.91-.5-.93.45a5,5,0,0,1-.72.31l-1,.35-.28,1-.33,1.16h-1.07l-.34-1.17-.29-1-1-.34a5,5,0,0,1-.71-.31l-.93-.46-.92.51-1.08.6-.75-.75.59-1.05.52-.92-.47-.94a6.33,6.33,0,0,1-.29-.72l-.34-1-1-.29-1.17-.34v-1.07l1.17-.34,1-.29.34-1a5.84,5.84,0,0,1,.29-.73l.47-.94-.52-.92-.59-1.05.75-.75,1.08.6.92.51.93-.46a6.43,6.43,0,0,1,.71-.31l1-.34.29-1,.34-1.17h1.07m18.08,16,.45,1.6.29,1,1,.34a6.92,6.92,0,0,1,1,.42l1,.47.92-.51,1.46-.81,1.1,1.1-.81,1.46-.51.93.47.94a8.05,8.05,0,0,1,.41,1l.34,1,1,.28,1.61.46v1.56l-1.61.46-1,.29-.34,1a9,9,0,0,1-.41,1l-.47.94.51.92.81,1.46-1.1,1.1-1.46-.81-.92-.51-1,.47a7,7,0,0,1-1,.43l-1,.33-.29,1-.45,1.6h-1.58l-.46-1.61-.29-1-1-.33a7,7,0,0,1-1-.43l-1-.47-.92.51-1.46.81-1.1-1.1.82-1.47.51-.92-.47-1a6.31,6.31,0,0,1-.42-1l-.34-1-1-.29-1.6-.45v-1.57l1.6-.46,1-.28.34-1a7.2,7.2,0,0,1,.42-1l.47-.94-.51-.93-.82-1.47,1.1-1.1,1.46.81.92.51,1-.47a8.24,8.24,0,0,1,1-.42l1-.34.29-1,.46-1.61h1.58m-17.24-18h-2.75a.91.91,0,0,0-.85.64l-.57,2a7.8,7.8,0,0,0-.94.4l-1.81-1a.91.91,0,0,0-.42-.11.93.93,0,0,0-.64.25l-1.93,1.93a.93.93,0,0,0-.15,1.08l1,1.78a7.27,7.27,0,0,0-.39.95l-2,.57a.92.92,0,0,0-.64.86v2.73a1,1,0,0,0,.64.86l2,.57a7.27,7.27,0,0,0,.39,1l-1,1.78a.92.92,0,0,0,.15,1.08l1.93,1.93a.93.93,0,0,0,.64.25.91.91,0,0,0,.42-.11l1.81-1a7.8,7.8,0,0,0,.94.4l.57,2a.9.9,0,0,0,.85.64h2.75a.9.9,0,0,0,.85-.64l.56-2a7.66,7.66,0,0,0,.93-.4l1.81,1a.91.91,0,0,0,1.06-.14l1.94-1.93a.92.92,0,0,0,.15-1.08l-1-1.78a8.09,8.09,0,0,0,.4-1l2-.56a.91.91,0,0,0,.65-.86v-2.73a.91.91,0,0,0-.65-.86l-2-.56a8.09,8.09,0,0,0-.4-1l1-1.78a.93.93,0,0,0-.15-1.08l-1.94-1.93a.91.91,0,0,0-1.06-.14l-1.81,1a7.66,7.66,0,0,0-.93-.4l-.56-2a.9.9,0,0,0-.85-.64Zm18.07,16h-3.25a.94.94,0,0,0-.85.64l-.69,2.41a10.27,10.27,0,0,0-1.27.53l-2.19-1.21a.92.92,0,0,0-.43-.11.93.93,0,0,0-.63.25l-2.28,2.28a.93.93,0,0,0-.15,1.08l1.22,2.2a10.65,10.65,0,0,0-.53,1.25l-2.41.68a.93.93,0,0,0-.64.87v3.23a1,1,0,0,0,.64.86l2.41.68a10.8,10.8,0,0,0,.53,1.26l-1.22,2.2a.91.91,0,0,0,.15,1.07l2.28,2.28a.88.88,0,0,0,.63.25.81.81,0,0,0,.43-.11l2.19-1.21a10.27,10.27,0,0,0,1.27.53l.69,2.41a.92.92,0,0,0,.85.64h3.26a.91.91,0,0,0,.85-.64l.68-2.41a11,11,0,0,0,1.27-.53l2.19,1.21a.8.8,0,0,0,.42.11.89.89,0,0,0,.64-.25l2.28-2.28a.91.91,0,0,0,.15-1.07L727.42,536a10.9,10.9,0,0,0,.52-1.27l2.41-.68a.91.91,0,0,0,.65-.86v-3.23a.93.93,0,0,0-.65-.87l-2.41-.68a10.9,10.9,0,0,0-.52-1.27l1.21-2.18a.93.93,0,0,0-.15-1.08l-2.28-2.28a.93.93,0,0,0-.64-.25.91.91,0,0,0-.42.11L723,522.62a11,11,0,0,0-1.27-.53l-.68-2.41a.93.93,0,0,0-.86-.64Z"/><path class="cls-10" d="M700.7,511.68a2,2,0,1,1-2,2,2,2,0,0,1,2-2m0-2a4,4,0,1,0,4,4,4,4,0,0,0-4-4Z"/><path class="cls-10" d="M718.52,528.62a2.9,2.9,0,1,1-2.9,2.9,2.9,2.9,0,0,1,2.9-2.9m0-2a4.9,4.9,0,1,0,4.9,4.9,4.91,4.91,0,0,0-4.9-4.9Z"/></svg>