<?xml version="1.0" encoding="UTF-8" standalone="no"?>
<!DOCTYPE svg PUBLIC "-//W3C//DTD SVG 1.1//EN" "http://www.w3.org/Graphics/SVG/1.1/DTD/svg11.dtd">
<svg width="100%" height="100%" viewBox="0 0 1080 450" version="1.1" xmlns="http://www.w3.org/2000/svg" xmlns:xlink="http://www.w3.org/1999/xlink" xml:space="preserve" xmlns:serif="http://www.serif.com/" style="fill-rule:evenodd;clip-rule:evenodd;stroke-miterlimit:10;">
    <g id="elements" transform="matrix(1,0,0,1,0,-75)">
        <g transform="matrix(1,0,0,1,110.901,293)">
            <path d="M0,0L49.999,0L0,0Z" style="fill:rgb(59,208,248);fill-rule:nonzero;"/>
        </g>
        <g transform="matrix(-1,-0,-0,1,110.9,293)">
            <path d="M-50,0L0,0" style="fill:none;stroke:rgb(59,208,248);stroke-width:2px;"/>
        </g>
        <g transform="matrix(1,0,0,1,242.81,352.526)">
            <circle cx="0" cy="-60" r="60" style="fill:rgb(0,159,214);"/>
        </g>
        <g transform="matrix(1,0,0,1,482.902,353)">
            <circle cx="0" cy="-60" r="60" style="fill:rgb(0,159,214);"/>
        </g>
        <g transform="matrix(1,0,0,1,262.999,268)">
            <path d="M0,26L4,26L4,0L-46,0L-46,26L-10,26" style="fill:none;stroke:white;stroke-width:2px;"/>
        </g>
        <g transform="matrix(-1,-0,-0,1,483.998,-206)">
            <rect x="236.999" y="500" width="10" height="6" style="fill:none;stroke:white;stroke-width:2px;"/>
        </g>
        <g transform="matrix(1,0,0,1,256.999,297)">
            <path d="M0,0C0,0.553 0.447,1 1,1C1.552,1 2,0.553 2,0C2,-0.553 1.552,-1 1,-1C0.447,-1 0,-0.553 0,0" style="fill:white;fill-rule:nonzero;"/>
        </g>
        <g transform="matrix(1,0,0,1,262.999,300)">
            <path d="M0,-17L-10,-17L-10,0L0,0L0,-17Z" style="fill:none;stroke:white;stroke-width:2px;"/>
        </g>
        <g transform="matrix(1,0,0,1,482.48,295.366)">
            <path d="M0,-25.519L-23.471,-33.902L-23.471,-0.003L0,8.379L0.013,8.383L23.495,-0.003L23.495,-33.902L0.012,-25.514L0,-25.519Z" style="fill:none;stroke:white;stroke-width:2px;"/>
        </g>
        <g transform="matrix(0.941743,0.336333,0.336333,-0.941743,464.386,269.828)">
            <path d="M-0.479,-2.766L15.966,-2.766" style="fill:none;stroke:white;stroke-width:2px;"/>
        </g>
        <g transform="matrix(0,1,1,0,499.405,286.829)">
            <path d="M-16.913,-16.913L16.913,-16.913" style="fill:none;stroke:white;stroke-width:2px;"/>
        </g>
        <g transform="matrix(0.941743,0.336333,0.336333,-0.941743,464.386,277.828)">
            <path d="M-0.479,-2.766L15.966,-2.766" style="fill:none;stroke:white;stroke-width:2px;"/>
        </g>
        <g transform="matrix(0.941743,0.336333,0.336333,-0.941743,464.386,285.828)">
            <path d="M-0.479,-2.766L15.966,-2.766" style="fill:none;stroke:white;stroke-width:2px;"/>
        </g>
        <g transform="matrix(-0.941743,0.336333,0.336333,0.941743,487.875,280.224)">
            <path d="M-15.966,-2.766L0.479,-2.766" style="fill:none;stroke:white;stroke-width:2px;"/>
        </g>
        <g transform="matrix(-0.941743,0.336333,0.336333,0.941743,487.875,288.224)">
            <path d="M-15.966,-2.766L0.479,-2.766" style="fill:none;stroke:white;stroke-width:2px;"/>
        </g>
        <g transform="matrix(-0.941743,0.336333,0.336333,0.941743,487.875,296.224)">
            <path d="M-15.966,-2.766L0.479,-2.766" style="fill:none;stroke:white;stroke-width:2px;"/>
        </g>
        <g transform="matrix(0,1,1,0,75.9195,259.375)">
            <circle cx="7.983" cy="-0.001" r="7.983" style="fill:none;stroke:rgb(59,208,248);stroke-width:2px;"/>
        </g>
        <g transform="matrix(1,0,0,1,89.9004,287.862)">
            <path d="M0,5.234C0,0.088 -2.739,-4.415 -6.83,-6.876L-6.86,-6.893C-8.988,-5.778 -11.411,-5.146 -13.981,-5.146C-16.56,-5.146 -18.989,-5.782 -21.123,-6.904L-21.161,-6.88C-25.256,-4.421 -28,0.084 -28,5.234L-28,12.138L0,12.138L0,5.188" style="fill:none;stroke:rgb(59,208,248);stroke-width:2px;"/>
        </g>
        <g>
            <g opacity="0.800003">
                <g>
                    <clipPath id="_clip1">
                        <rect x="325.902" y="255.822" width="70" height="16.358" clip-rule="nonzero"/>
                    </clipPath>
                    <g clip-path="url(#_clip1)">
                        <g transform="matrix(1,0,0,1,325.902,264)">
                            <path d="M0,0L67.83,0" style="fill:none;stroke:rgb(46,52,58);stroke-width:2px;"/>
                        </g>
                        <g transform="matrix(1,0,0,1,387.106,255.823)">
                            <path d="M0,16.357L-1.363,14.892L5.859,8.179L-1.363,1.464L0,0L8.797,8.179L0,16.357Z" style="fill:rgb(46,52,58);fill-rule:nonzero;"/>
                        </g>
                    </g>
                </g>
            </g>
        </g>
        <g>
            <g opacity="0.5">
                <g>
                    <clipPath id="_clip2">
                        <rect x="326" y="284.82" width="19" height="16.358" clip-rule="nonzero"/>
                    </clipPath>
                    <g clip-path="url(#_clip2)">
                        <g transform="matrix(-1,-0,-0,1,328.169,293)">
                            <path d="M-16.831,0L0,0" style="fill:none;stroke:rgb(149,152,156);stroke-width:2px;"/>
                        </g>
                        <g transform="matrix(1,0,0,1,334.796,301.177)">
                            <path d="M0,-16.357L1.364,-14.892L-5.859,-8.179L1.364,-1.464L0,0L-8.796,-8.179L0,-16.357Z" style="fill:rgb(149,152,156);fill-rule:nonzero;"/>
                        </g>
                    </g>
                </g>
            </g>
        </g>
        <g transform="matrix(-1,-0,-0,1,328.169,323)">
            <path d="M-67.831,0L0,0" style="fill:none;stroke:rgb(149,152,156);stroke-width:2px;"/>
        </g>
        <g transform="matrix(1,0,0,1,334.796,331.177)">
            <path d="M0,-16.357L1.364,-14.892L-5.859,-8.179L1.364,-1.464L0,0L-8.796,-8.179L0,-16.357Z" style="fill:rgb(149,152,156);fill-rule:nonzero;"/>
        </g>
        <g>
            <path d="M464.617,323.126C464.085,323.126 463.556,323.11 463.028,323.077C462.501,323.044 461.953,322.967 461.383,322.846L461.383,313.438C461.831,313.354 462.321,313.291 462.853,313.249C463.385,313.207 463.88,313.186 464.337,313.186C464.953,313.186 465.52,313.23 466.038,313.319C466.556,313.408 467.002,313.559 467.375,313.774C467.749,313.989 468.04,314.271 468.25,314.621C468.46,314.971 468.565,315.403 468.565,315.916C468.565,316.691 468.192,317.302 467.445,317.75C468.061,317.983 468.481,318.301 468.705,318.702C468.929,319.103 469.041,319.556 469.041,320.06C469.041,321.077 468.67,321.843 467.928,322.356C467.186,322.869 466.083,323.126 464.617,323.126ZM463.511,318.772L463.511,321.278C463.67,321.297 463.843,321.311 464.029,321.32C464.216,321.329 464.421,321.334 464.645,321.334C465.299,321.334 465.826,321.241 466.227,321.054C466.629,320.867 466.829,320.522 466.829,320.018C466.829,319.57 466.661,319.25 466.325,319.059C465.989,318.868 465.509,318.772 464.883,318.772L463.511,318.772ZM463.511,317.106L464.575,317.106C465.247,317.106 465.728,317.02 466.017,316.847C466.307,316.674 466.451,316.397 466.451,316.014C466.451,315.622 466.302,315.347 466.003,315.188C465.705,315.029 465.266,314.95 464.687,314.95C464.501,314.95 464.3,314.952 464.085,314.957C463.871,314.962 463.679,314.973 463.511,314.992L463.511,317.106Z" style="fill:white;fill-rule:nonzero;"/>
            <path d="M475.089,317.484C474.903,317.437 474.683,317.388 474.431,317.337C474.179,317.286 473.909,317.26 473.619,317.26C473.489,317.26 473.332,317.272 473.15,317.295C472.968,317.318 472.831,317.344 472.737,317.372L472.737,323L470.651,323L470.651,316.028C471.025,315.897 471.466,315.774 471.974,315.657C472.483,315.54 473.05,315.482 473.675,315.482C473.787,315.482 473.923,315.489 474.081,315.503C474.24,315.517 474.399,315.536 474.557,315.559C474.716,315.582 474.875,315.61 475.033,315.643C475.192,315.676 475.327,315.715 475.439,315.762L475.089,317.484Z" style="fill:white;fill-rule:nonzero;"/>
            <path d="M483.297,319.304C483.297,319.883 483.213,320.412 483.045,320.893C482.877,321.374 482.635,321.784 482.317,322.125C482,322.466 481.62,322.729 481.176,322.916C480.733,323.103 480.236,323.196 479.685,323.196C479.144,323.196 478.652,323.103 478.208,322.916C477.765,322.729 477.385,322.466 477.067,322.125C476.75,321.784 476.503,321.374 476.325,320.893C476.148,320.412 476.059,319.883 476.059,319.304C476.059,318.725 476.15,318.198 476.332,317.722C476.514,317.246 476.766,316.84 477.088,316.504C477.41,316.168 477.793,315.907 478.236,315.72C478.68,315.533 479.163,315.44 479.685,315.44C480.217,315.44 480.705,315.533 481.148,315.72C481.592,315.907 481.972,316.168 482.289,316.504C482.607,316.84 482.854,317.246 483.031,317.722C483.209,318.198 483.297,318.725 483.297,319.304ZM481.169,319.304C481.169,318.66 481.041,318.154 480.784,317.785C480.528,317.416 480.161,317.232 479.685,317.232C479.209,317.232 478.841,317.416 478.579,317.785C478.318,318.154 478.187,318.66 478.187,319.304C478.187,319.948 478.318,320.459 478.579,320.837C478.841,321.215 479.209,321.404 479.685,321.404C480.161,321.404 480.528,321.215 480.784,320.837C481.041,320.459 481.169,319.948 481.169,319.304Z" style="fill:white;fill-rule:nonzero;"/>
            <path d="M486.993,318.296C487.199,318.072 487.411,317.839 487.63,317.596C487.85,317.353 488.062,317.113 488.267,316.875C488.473,316.637 488.666,316.411 488.848,316.196C489.03,315.981 489.187,315.795 489.317,315.636L491.795,315.636C491.301,316.205 490.818,316.749 490.346,317.267C489.875,317.785 489.359,318.319 488.799,318.87C489.079,319.122 489.369,319.423 489.667,319.773C489.966,320.123 490.255,320.485 490.535,320.858C490.815,321.231 491.072,321.605 491.305,321.978C491.539,322.351 491.735,322.692 491.893,323L489.499,323C489.35,322.757 489.18,322.489 488.988,322.195C488.797,321.901 488.594,321.607 488.379,321.313C488.165,321.019 487.938,320.737 487.7,320.466C487.462,320.195 487.227,319.967 486.993,319.78L486.993,323L484.907,323L484.907,312.472L486.993,312.136L486.993,318.296Z" style="fill:white;fill-rule:nonzero;"/>
            <path d="M492.163,319.374C492.163,318.721 492.264,318.149 492.464,317.659C492.665,317.169 492.929,316.761 493.255,316.434C493.582,316.107 493.958,315.86 494.382,315.692C494.807,315.524 495.243,315.44 495.691,315.44C496.737,315.44 497.563,315.76 498.169,316.399C498.776,317.038 499.079,317.979 499.079,319.22C499.079,319.341 499.075,319.474 499.065,319.619C499.056,319.764 499.047,319.892 499.037,320.004L494.305,320.004C494.352,320.433 494.553,320.774 494.907,321.026C495.262,321.278 495.738,321.404 496.335,321.404C496.718,321.404 497.094,321.369 497.462,321.299C497.831,321.229 498.132,321.143 498.365,321.04L498.645,322.734C498.533,322.79 498.384,322.846 498.197,322.902C498.011,322.958 497.803,323.007 497.574,323.049C497.346,323.091 497.101,323.126 496.839,323.154C496.578,323.182 496.317,323.196 496.055,323.196C495.393,323.196 494.816,323.098 494.326,322.902C493.836,322.706 493.43,322.438 493.108,322.097C492.786,321.756 492.548,321.353 492.394,320.886C492.24,320.419 492.163,319.915 492.163,319.374ZM497.063,318.576C497.054,318.399 497.024,318.226 496.972,318.058C496.921,317.89 496.842,317.741 496.734,317.61C496.627,317.479 496.492,317.372 496.328,317.288C496.165,317.204 495.962,317.162 495.719,317.162C495.486,317.162 495.285,317.202 495.117,317.281C494.949,317.36 494.809,317.465 494.697,317.596C494.585,317.727 494.499,317.878 494.438,318.051C494.378,318.224 494.333,318.399 494.305,318.576L497.063,318.576Z" style="fill:white;fill-rule:nonzero;"/>
            <path d="M505.127,317.484C504.941,317.437 504.721,317.388 504.469,317.337C504.217,317.286 503.947,317.26 503.657,317.26C503.527,317.26 503.37,317.272 503.188,317.295C503.006,317.318 502.869,317.344 502.775,317.372L502.775,323L500.689,323L500.689,316.028C501.063,315.897 501.504,315.774 502.012,315.657C502.521,315.54 503.088,315.482 503.713,315.482C503.825,315.482 503.961,315.489 504.119,315.503C504.278,315.517 504.437,315.536 504.595,315.559C504.754,315.582 504.913,315.61 505.071,315.643C505.23,315.676 505.365,315.715 505.477,315.762L505.127,317.484Z" style="fill:white;fill-rule:nonzero;"/>
        </g>
        <path d="M65.743,322.734C65.109,322.734 64.558,322.636 64.091,322.44C63.625,322.244 63.242,321.976 62.943,321.635C62.645,321.294 62.423,320.891 62.278,320.424C62.134,319.957 62.061,319.453 62.061,318.912L62.061,312.822L63.419,312.822L63.419,318.758C63.419,319.729 63.634,320.433 64.063,320.872C64.493,321.311 65.053,321.53 65.743,321.53C66.089,321.53 66.404,321.476 66.688,321.369C66.973,321.262 67.218,321.096 67.423,320.872C67.629,320.648 67.787,320.361 67.899,320.011C68.011,319.661 68.067,319.243 68.067,318.758L68.067,312.822L69.425,312.822L69.425,318.912C69.425,319.453 69.353,319.957 69.208,320.424C69.064,320.891 68.84,321.294 68.536,321.635C68.233,321.976 67.85,322.244 67.388,322.44C66.926,322.636 66.378,322.734 65.743,322.734Z" style="fill:rgb(59,208,248);fill-rule:nonzero;"/>
        <path d="M73.373,321.586C73.905,321.586 74.3,321.516 74.556,321.376C74.813,321.236 74.941,321.012 74.941,320.704C74.941,320.387 74.815,320.135 74.563,319.948C74.311,319.761 73.896,319.551 73.317,319.318C73.037,319.206 72.769,319.092 72.512,318.975C72.256,318.858 72.034,318.721 71.847,318.562C71.661,318.403 71.511,318.212 71.399,317.988C71.287,317.764 71.231,317.489 71.231,317.162C71.231,316.518 71.469,316.007 71.945,315.629C72.421,315.251 73.07,315.062 73.891,315.062C74.097,315.062 74.302,315.074 74.507,315.097C74.713,315.12 74.904,315.148 75.081,315.181C75.259,315.214 75.415,315.249 75.55,315.286C75.686,315.323 75.791,315.356 75.865,315.384L75.627,316.504C75.487,316.429 75.268,316.352 74.969,316.273C74.671,316.194 74.311,316.154 73.891,316.154C73.527,316.154 73.21,316.226 72.939,316.371C72.669,316.516 72.533,316.742 72.533,317.05C72.533,317.209 72.564,317.349 72.624,317.47C72.685,317.591 72.778,317.701 72.904,317.799C73.03,317.897 73.187,317.988 73.373,318.072C73.56,318.156 73.784,318.245 74.045,318.338C74.391,318.469 74.699,318.597 74.969,318.723C75.24,318.849 75.471,318.996 75.662,319.164C75.854,319.332 76.001,319.535 76.103,319.773C76.206,320.011 76.257,320.303 76.257,320.648C76.257,321.32 76.008,321.829 75.508,322.174C75.009,322.519 74.297,322.692 73.373,322.692C72.729,322.692 72.225,322.638 71.861,322.531C71.497,322.424 71.25,322.342 71.119,322.286L71.357,321.166C71.507,321.222 71.745,321.306 72.071,321.418C72.398,321.53 72.832,321.586 73.373,321.586Z" style="fill:rgb(59,208,248);fill-rule:nonzero;"/>
        <path d="M77.517,318.898C77.517,318.254 77.611,317.692 77.797,317.211C77.984,316.73 78.231,316.331 78.539,316.014C78.847,315.697 79.202,315.459 79.603,315.3C80.005,315.141 80.415,315.062 80.835,315.062C81.815,315.062 82.567,315.368 83.089,315.979C83.612,316.59 83.873,317.521 83.873,318.772C83.873,318.828 83.873,318.9 83.873,318.989C83.873,319.078 83.869,319.159 83.859,319.234L78.875,319.234C78.931,319.99 79.151,320.564 79.533,320.956C79.916,321.348 80.513,321.544 81.325,321.544C81.783,321.544 82.168,321.504 82.48,321.425C82.793,321.346 83.029,321.269 83.187,321.194L83.369,322.286C83.211,322.37 82.933,322.459 82.536,322.552C82.14,322.645 81.689,322.692 81.185,322.692C80.551,322.692 80.002,322.596 79.54,322.405C79.078,322.214 78.698,321.95 78.399,321.614C78.101,321.278 77.879,320.879 77.734,320.417C77.59,319.955 77.517,319.449 77.517,318.898ZM82.515,318.184C82.525,317.596 82.378,317.113 82.074,316.735C81.771,316.357 81.353,316.168 80.821,316.168C80.523,316.168 80.259,316.226 80.03,316.343C79.802,316.46 79.608,316.611 79.449,316.798C79.291,316.985 79.167,317.199 79.078,317.442C78.99,317.685 78.931,317.932 78.903,318.184L82.515,318.184Z" style="fill:rgb(59,208,248);fill-rule:nonzero;"/>
        <path d="M88.437,315.09C88.549,315.09 88.678,315.097 88.822,315.111C88.967,315.125 89.109,315.144 89.249,315.167C89.389,315.19 89.518,315.214 89.634,315.237C89.751,315.26 89.837,315.281 89.893,315.3L89.669,316.434C89.567,316.397 89.396,316.352 89.158,316.301C88.92,316.25 88.615,316.224 88.241,316.224C87.999,316.224 87.758,316.25 87.52,316.301C87.282,316.352 87.126,316.387 87.051,316.406L87.051,322.524L85.749,322.524L85.749,315.552C86.057,315.44 86.44,315.335 86.897,315.237C87.355,315.139 87.868,315.09 88.437,315.09Z" style="fill:rgb(59,208,248);fill-rule:nonzero;"/>
        <path d="M228.255,322.72C226.678,322.72 225.476,322.281 224.65,321.404C223.824,320.527 223.411,319.281 223.411,317.666C223.411,316.863 223.537,316.147 223.789,315.517C224.041,314.887 224.387,314.355 224.825,313.921C225.264,313.487 225.787,313.158 226.393,312.934C227,312.71 227.658,312.598 228.367,312.598C228.778,312.598 229.151,312.628 229.487,312.689C229.823,312.75 230.117,312.82 230.369,312.899C230.621,312.978 230.831,313.06 230.999,313.144C231.167,313.228 231.289,313.293 231.363,313.34L230.733,315.104C230.435,314.945 230.087,314.81 229.69,314.698C229.294,314.586 228.843,314.53 228.339,314.53C228.003,314.53 227.674,314.586 227.352,314.698C227.03,314.81 226.746,314.99 226.498,315.237C226.251,315.484 226.053,315.804 225.903,316.196C225.754,316.588 225.679,317.064 225.679,317.624C225.679,318.072 225.728,318.49 225.826,318.877C225.924,319.264 226.083,319.598 226.302,319.878C226.522,320.158 226.809,320.38 227.163,320.543C227.518,320.706 227.947,320.788 228.451,320.788C228.769,320.788 229.053,320.769 229.305,320.732C229.557,320.695 229.781,320.65 229.977,320.599C230.173,320.548 230.346,320.489 230.495,320.424C230.645,320.359 230.78,320.298 230.901,320.242L231.503,321.992C231.195,322.179 230.761,322.347 230.201,322.496C229.641,322.645 228.993,322.72 228.255,322.72Z" style="fill:white;fill-rule:nonzero;"/>
        <path d="M235.703,322.664C235.097,322.655 234.604,322.589 234.226,322.468C233.848,322.347 233.55,322.176 233.33,321.957C233.111,321.738 232.962,321.472 232.882,321.159C232.803,320.846 232.763,320.494 232.763,320.102L232.763,311.996L234.849,311.66L234.849,319.682C234.849,319.869 234.863,320.037 234.891,320.186C234.919,320.335 234.973,320.461 235.052,320.564C235.132,320.667 235.246,320.751 235.395,320.816C235.545,320.881 235.745,320.923 235.997,320.942L235.703,322.664Z" style="fill:white;fill-rule:nonzero;"/>
        <path d="M239.273,322.524L237.187,322.524L237.187,315.16L239.273,315.16L239.273,322.524ZM239.469,313.032C239.469,313.415 239.346,313.716 239.098,313.935C238.851,314.154 238.559,314.264 238.223,314.264C237.887,314.264 237.596,314.154 237.348,313.935C237.101,313.716 236.977,313.415 236.977,313.032C236.977,312.649 237.101,312.348 237.348,312.129C237.596,311.91 237.887,311.8 238.223,311.8C238.559,311.8 238.851,311.91 239.098,312.129C239.346,312.348 239.469,312.649 239.469,313.032Z" style="fill:white;fill-rule:nonzero;"/>
        <path d="M240.883,318.898C240.883,318.245 240.984,317.673 241.184,317.183C241.385,316.693 241.649,316.285 241.975,315.958C242.302,315.631 242.678,315.384 243.102,315.216C243.527,315.048 243.963,314.964 244.411,314.964C245.457,314.964 246.283,315.284 246.889,315.923C247.496,316.562 247.799,317.503 247.799,318.744C247.799,318.865 247.795,318.998 247.785,319.143C247.776,319.288 247.767,319.416 247.757,319.528L243.025,319.528C243.072,319.957 243.273,320.298 243.627,320.55C243.982,320.802 244.458,320.928 245.055,320.928C245.438,320.928 245.814,320.893 246.182,320.823C246.551,320.753 246.852,320.667 247.085,320.564L247.365,322.258C247.253,322.314 247.104,322.37 246.917,322.426C246.731,322.482 246.523,322.531 246.294,322.573C246.066,322.615 245.821,322.65 245.559,322.678C245.298,322.706 245.037,322.72 244.775,322.72C244.113,322.72 243.536,322.622 243.046,322.426C242.556,322.23 242.15,321.962 241.828,321.621C241.506,321.28 241.268,320.877 241.114,320.41C240.96,319.943 240.883,319.439 240.883,318.898ZM245.783,318.1C245.774,317.923 245.744,317.75 245.692,317.582C245.641,317.414 245.562,317.265 245.454,317.134C245.347,317.003 245.212,316.896 245.048,316.812C244.885,316.728 244.682,316.686 244.439,316.686C244.206,316.686 244.005,316.726 243.837,316.805C243.669,316.884 243.529,316.989 243.417,317.12C243.305,317.251 243.219,317.402 243.158,317.575C243.098,317.748 243.053,317.923 243.025,318.1L245.783,318.1Z" style="fill:white;fill-rule:nonzero;"/>
        <path d="M249.409,315.412C249.764,315.309 250.221,315.214 250.781,315.125C251.341,315.036 251.929,314.992 252.545,314.992C253.171,314.992 253.691,315.074 254.106,315.237C254.522,315.4 254.851,315.631 255.093,315.93C255.336,316.229 255.509,316.583 255.611,316.994C255.714,317.405 255.765,317.862 255.765,318.366L255.765,322.524L253.679,322.524L253.679,318.618C253.679,317.946 253.591,317.47 253.413,317.19C253.236,316.91 252.905,316.77 252.419,316.77C252.27,316.77 252.111,316.777 251.943,316.791C251.775,316.805 251.626,316.821 251.495,316.84L251.495,322.524L249.409,322.524L249.409,315.412Z" style="fill:white;fill-rule:nonzero;"/>
        <path d="M257.585,313.326L259.671,312.99L259.671,315.16L262.177,315.16L262.177,316.896L259.671,316.896L259.671,319.486C259.671,319.925 259.748,320.275 259.902,320.536C260.056,320.797 260.367,320.928 260.833,320.928C261.057,320.928 261.288,320.907 261.526,320.865C261.764,320.823 261.981,320.765 262.177,320.69L262.471,322.314C262.219,322.417 261.939,322.505 261.631,322.58C261.323,322.655 260.945,322.692 260.497,322.692C259.928,322.692 259.457,322.615 259.083,322.461C258.71,322.307 258.411,322.092 258.187,321.817C257.963,321.542 257.807,321.208 257.718,320.816C257.63,320.424 257.585,319.99 257.585,319.514L257.585,313.326Z" style="fill:white;fill-rule:nonzero;"/>
        <g>
            <g opacity="0.899994">
                <g>
                    <path d="M330.048,248.661C331.238,248.661 332.134,248.171 332.862,247.331L332.218,246.603C331.63,247.247 330.972,247.639 330.09,247.639C328.354,247.639 327.248,246.183 327.248,243.873C327.248,241.591 328.396,240.163 330.132,240.163C330.916,240.163 331.518,240.513 332.008,241.031L332.638,240.275C332.106,239.673 331.238,239.141 330.118,239.141C327.78,239.141 326.044,240.947 326.044,243.901C326.044,246.897 327.752,248.661 330.048,248.661Z" style="fill:rgb(46,52,58);fill-rule:nonzero;"/>
                    <path d="M337.404,248.661C339.07,248.661 340.554,247.359 340.554,245.105C340.554,242.823 339.07,241.521 337.404,241.521C335.738,241.521 334.254,242.823 334.254,245.105C334.254,247.359 335.738,248.661 337.404,248.661ZM337.404,247.709C336.242,247.709 335.444,246.659 335.444,245.105C335.444,243.537 336.242,242.473 337.404,242.473C338.58,242.473 339.364,243.537 339.364,245.105C339.364,246.659 338.58,247.709 337.404,247.709Z" style="fill:rgb(46,52,58);fill-rule:nonzero;"/>
                    <path d="M342.646,248.493L343.794,248.493L343.794,243.565C344.424,242.865 344.998,242.515 345.502,242.515C346.37,242.515 346.776,243.061 346.776,244.335L346.776,248.493L347.924,248.493L347.924,243.565C348.554,242.865 349.1,242.515 349.632,242.515C350.486,242.515 350.892,243.061 350.892,244.335L350.892,248.493L352.04,248.493L352.04,244.181C352.04,242.445 351.368,241.521 349.968,241.521C349.142,241.521 348.442,242.053 347.728,242.823C347.448,242.011 346.888,241.521 345.852,241.521C345.04,241.521 344.326,242.025 343.738,242.669L343.696,242.669L343.598,241.689L342.646,241.689L342.646,248.493Z" style="fill:rgb(46,52,58);fill-rule:nonzero;"/>
                    <path d="M354.552,248.493L355.7,248.493L355.7,243.565C356.33,242.865 356.904,242.515 357.408,242.515C358.276,242.515 358.682,243.061 358.682,244.335L358.682,248.493L359.83,248.493L359.83,243.565C360.46,242.865 361.006,242.515 361.538,242.515C362.392,242.515 362.798,243.061 362.798,244.335L362.798,248.493L363.946,248.493L363.946,244.181C363.946,242.445 363.274,241.521 361.874,241.521C361.048,241.521 360.348,242.053 359.634,242.823C359.354,242.011 358.794,241.521 357.758,241.521C356.946,241.521 356.232,242.025 355.644,242.669L355.602,242.669L355.504,241.689L354.552,241.689L354.552,248.493Z" style="fill:rgb(46,52,58);fill-rule:nonzero;"/>
                    <path d="M368.026,248.661C368.88,248.661 369.636,248.213 370.28,247.681L370.322,247.681L370.42,248.493L371.372,248.493L371.372,244.321C371.372,242.627 370.672,241.521 369.006,241.521C367.914,241.521 366.962,241.997 366.332,242.403L366.78,243.201C367.312,242.837 368.026,242.473 368.81,242.473C369.93,242.473 370.21,243.313 370.21,244.181C367.312,244.503 366.038,245.245 366.038,246.729C366.038,247.947 366.892,248.661 368.026,248.661ZM368.362,247.737C367.69,247.737 367.158,247.415 367.158,246.645C367.158,245.777 367.942,245.217 370.21,244.937L370.21,246.827C369.552,247.415 369.02,247.737 368.362,247.737Z" style="fill:rgb(46,52,58);fill-rule:nonzero;"/>
                    <path d="M373.714,248.493L374.862,248.493L374.862,243.565C375.548,242.879 376.024,242.515 376.724,242.515C377.62,242.515 378.012,243.061 378.012,244.335L378.012,248.493L379.16,248.493L379.16,244.181C379.16,242.445 378.516,241.521 377.088,241.521C376.15,241.521 375.45,242.025 374.806,242.669L374.764,242.669L374.666,241.689L373.714,241.689L373.714,248.493Z" style="fill:rgb(46,52,58);fill-rule:nonzero;"/>
                    <path d="M383.996,248.661C384.794,248.661 385.522,248.213 386.054,247.695L386.096,247.695L386.194,248.493L387.146,248.493L387.146,238.525L385.984,238.525L385.984,241.143L386.04,242.305C385.438,241.815 384.92,241.521 384.136,241.521C382.582,241.521 381.182,242.893 381.182,245.105C381.182,247.373 382.288,248.661 383.996,248.661ZM384.248,247.695C383.058,247.695 382.372,246.715 382.372,245.091C382.372,243.537 383.24,242.487 384.332,242.487C384.892,242.487 385.41,242.683 385.984,243.201L385.984,246.757C385.424,247.387 384.878,247.695 384.248,247.695Z" style="fill:rgb(46,52,58);fill-rule:nonzero;"/>
                    <path d="M391.52,248.661C393.13,248.661 394.012,247.737 394.012,246.631C394.012,245.343 392.92,244.937 391.94,244.573C391.17,244.279 390.428,244.041 390.428,243.397C390.428,242.879 390.82,242.417 391.674,242.417C392.276,242.417 392.766,242.669 393.228,243.019L393.774,242.291C393.256,241.871 392.514,241.521 391.66,241.521C390.19,241.521 389.322,242.361 389.322,243.453C389.322,244.601 390.386,245.063 391.352,245.413C392.094,245.693 392.906,246.001 392.906,246.701C392.906,247.289 392.458,247.765 391.562,247.765C390.75,247.765 390.148,247.429 389.56,246.953L388.986,247.723C389.63,248.255 390.554,248.661 391.52,248.661Z" style="fill:rgb(46,52,58);fill-rule:nonzero;"/>
                </g>
            </g>
        </g>
        <g>
            <g opacity="0.5">
                <g>
                    <path d="M354.824,295.709C353.186,295.709 352.108,294.225 352.108,291.873C352.108,289.591 353.186,288.177 354.824,288.177C356.462,288.177 357.54,289.591 357.54,291.873C357.54,294.225 356.462,295.709 354.824,295.709ZM357.638,298.817C358.184,298.817 358.674,298.719 358.954,298.607L358.73,297.711C358.478,297.781 358.17,297.837 357.764,297.837C356.77,297.837 355.93,297.431 355.51,296.619C357.456,296.283 358.758,294.519 358.758,291.873C358.758,288.947 357.134,287.155 354.824,287.155C352.514,287.155 350.904,288.933 350.904,291.873C350.904,294.575 352.248,296.353 354.25,296.633C354.782,297.893 355.944,298.817 357.638,298.817Z" style="fill:rgb(46,52,58);fill-rule:nonzero;"/>
                    <path d="M362.908,296.675C363.846,296.675 364.518,296.185 365.148,295.443L365.19,295.443L365.288,296.507L366.24,296.507L366.24,289.703L365.092,289.703L365.092,294.533C364.448,295.331 363.958,295.681 363.258,295.681C362.362,295.681 361.984,295.135 361.984,293.861L361.984,289.703L360.822,289.703L360.822,294.015C360.822,295.751 361.466,296.675 362.908,296.675Z" style="fill:rgb(46,52,58);fill-rule:nonzero;"/>
                    <path d="M371.594,296.675C372.518,296.675 373.246,296.353 373.834,295.975L373.428,295.219C372.924,295.541 372.378,295.751 371.734,295.751C370.432,295.751 369.55,294.827 369.466,293.385L374.058,293.385C374.086,293.217 374.1,292.965 374.1,292.727C374.1,290.781 373.12,289.535 371.384,289.535C369.83,289.535 368.332,290.893 368.332,293.119C368.332,295.345 369.774,296.675 371.594,296.675ZM369.452,292.559C369.592,291.215 370.46,290.445 371.412,290.445C372.476,290.445 373.092,291.187 373.092,292.559L369.452,292.559Z" style="fill:rgb(46,52,58);fill-rule:nonzero;"/>
                    <path d="M376.08,296.507L377.228,296.507L377.228,292.139C377.69,290.991 378.376,290.571 378.95,290.571C379.23,290.571 379.384,290.613 379.608,290.683L379.832,289.675C379.608,289.577 379.398,289.535 379.104,289.535C378.334,289.535 377.634,290.081 377.172,290.935L377.13,290.935L377.032,289.703L376.08,289.703L376.08,296.507Z" style="fill:rgb(46,52,58);fill-rule:nonzero;"/>
                    <path d="M381.238,296.507L382.386,296.507L382.386,289.703L381.238,289.703L381.238,296.507ZM381.826,288.303C382.274,288.303 382.624,287.995 382.624,287.561C382.624,287.113 382.274,286.819 381.826,286.819C381.378,286.819 381.028,287.113 381.028,287.561C381.028,287.995 381.378,288.303 381.826,288.303Z" style="fill:rgb(46,52,58);fill-rule:nonzero;"/>
                    <path d="M387.64,296.675C388.564,296.675 389.292,296.353 389.88,295.975L389.474,295.219C388.97,295.541 388.424,295.751 387.78,295.751C386.478,295.751 385.596,294.827 385.512,293.385L390.104,293.385C390.132,293.217 390.146,292.965 390.146,292.727C390.146,290.781 389.166,289.535 387.43,289.535C385.876,289.535 384.378,290.893 384.378,293.119C384.378,295.345 385.82,296.675 387.64,296.675ZM385.498,292.559C385.638,291.215 386.506,290.445 387.458,290.445C388.522,290.445 389.138,291.187 389.138,292.559L385.498,292.559Z" style="fill:rgb(46,52,58);fill-rule:nonzero;"/>
                    <path d="M393.904,296.675C395.514,296.675 396.396,295.751 396.396,294.645C396.396,293.357 395.304,292.951 394.324,292.587C393.554,292.293 392.812,292.055 392.812,291.411C392.812,290.893 393.204,290.431 394.058,290.431C394.66,290.431 395.15,290.683 395.612,291.033L396.158,290.305C395.64,289.885 394.898,289.535 394.044,289.535C392.574,289.535 391.706,290.375 391.706,291.467C391.706,292.615 392.77,293.077 393.736,293.427C394.478,293.707 395.29,294.015 395.29,294.715C395.29,295.303 394.842,295.779 393.946,295.779C393.134,295.779 392.532,295.443 391.944,294.967L391.37,295.737C392.014,296.269 392.938,296.675 393.904,296.675Z" style="fill:rgb(46,52,58);fill-rule:nonzero;"/>
                </g>
            </g>
        </g>
        <g>
            <g opacity="0.649994">
                <g>
                    <path d="M346.003,347.437L351.435,347.437L351.435,346.443L347.165,346.443L347.165,343.111L350.651,343.111L350.651,342.117L347.165,342.117L347.165,339.233L351.295,339.233L351.295,338.253L346.003,338.253L346.003,347.437Z" style="fill:rgb(46,52,58);fill-rule:nonzero;"/>
                    <path d="M354.839,347.437L356.183,347.437L358.591,340.633L357.457,340.633L356.169,344.497C355.973,345.169 355.749,345.855 355.553,346.499L355.497,346.499C355.287,345.855 355.063,345.169 354.867,344.497L353.579,340.633L352.389,340.633L354.839,347.437Z" style="fill:rgb(46,52,58);fill-rule:nonzero;"/>
                    <path d="M362.915,347.605C363.839,347.605 364.567,347.283 365.155,346.905L364.749,346.149C364.245,346.471 363.699,346.681 363.055,346.681C361.753,346.681 360.871,345.757 360.787,344.315L365.379,344.315C365.407,344.147 365.421,343.895 365.421,343.657C365.421,341.711 364.441,340.465 362.705,340.465C361.151,340.465 359.653,341.823 359.653,344.049C359.653,346.275 361.095,347.605 362.915,347.605ZM360.773,343.489C360.913,342.145 361.781,341.375 362.733,341.375C363.797,341.375 364.413,342.117 364.413,343.489L360.773,343.489Z" style="fill:rgb(46,52,58);fill-rule:nonzero;"/>
                    <path d="M367.401,347.437L368.549,347.437L368.549,342.509C369.235,341.823 369.711,341.459 370.411,341.459C371.307,341.459 371.699,342.005 371.699,343.279L371.699,347.437L372.847,347.437L372.847,343.125C372.847,341.389 372.203,340.465 370.775,340.465C369.837,340.465 369.137,340.969 368.493,341.613L368.451,341.613L368.353,340.633L367.401,340.633L367.401,347.437Z" style="fill:rgb(46,52,58);fill-rule:nonzero;"/>
                    <path d="M377.451,347.605C377.871,347.605 378.333,347.479 378.711,347.353L378.487,346.485C378.263,346.569 377.955,346.667 377.717,346.667C376.933,346.667 376.667,346.191 376.667,345.351L376.667,341.571L378.501,341.571L378.501,340.633L376.667,340.633L376.667,338.729L375.701,338.729L375.561,340.633L374.497,340.703L374.497,341.571L375.505,341.571L375.505,345.337C375.505,346.681 375.995,347.605 377.451,347.605Z" style="fill:rgb(46,52,58);fill-rule:nonzero;"/>
                    <path d="M381.919,347.605C383.529,347.605 384.411,346.681 384.411,345.575C384.411,344.287 383.319,343.881 382.339,343.517C381.569,343.223 380.827,342.985 380.827,342.341C380.827,341.823 381.219,341.361 382.073,341.361C382.675,341.361 383.165,341.613 383.627,341.963L384.173,341.235C383.655,340.815 382.913,340.465 382.059,340.465C380.589,340.465 379.721,341.305 379.721,342.397C379.721,343.545 380.785,344.007 381.751,344.357C382.493,344.637 383.305,344.945 383.305,345.645C383.305,346.233 382.857,346.709 381.961,346.709C381.149,346.709 380.547,346.373 379.959,345.897L379.385,346.667C380.029,347.199 380.953,347.605 381.919,347.605Z" style="fill:rgb(46,52,58);fill-rule:nonzero;"/>
                </g>
            </g>
        </g>
    </g>
</svg>
