<?xml version="1.0" encoding="UTF-8" standalone="no"?>
<!DOCTYPE svg PUBLIC "-//W3C//DTD SVG 1.1//EN" "http://www.w3.org/Graphics/SVG/1.1/DTD/svg11.dtd">
<svg width="100%" height="100%" viewBox="0 0 1080 525" version="1.1" xmlns="http://www.w3.org/2000/svg" xmlns:xlink="http://www.w3.org/1999/xlink" xml:space="preserve" xmlns:serif="http://www.serif.com/" style="fill-rule:evenodd;clip-rule:evenodd;stroke-miterlimit:10;">
    <g id="elements">
        <g transform="matrix(1,0,0,1,110.901,293)">
            <path d="M0,0L49.999,0L0,0Z" style="fill:rgb(59,208,248);fill-rule:nonzero;"/>
        </g>
        <g transform="matrix(-1,-0,-0,1,110.9,293)">
            <path d="M-50,0L0,0" style="fill:none;stroke:rgb(59,208,248);stroke-width:2px;"/>
        </g>
        <g transform="matrix(1,0,0,1,483,172.999)">
            <path d="M0,40.001L0,0L0,40.001Z" style="fill:rgb(59,208,248);fill-rule:nonzero;"/>
        </g>
        <g transform="matrix(0,1,1,0,503,193)">
            <path d="M-20,-20L20,-20" style="fill:none;stroke:rgb(59,208,248);stroke-width:2px;"/>
        </g>
        <g transform="matrix(1,0,0,1,941,172.999)">
            <path d="M0,40.001L0,0L0,40.001Z" style="fill:rgb(59,208,248);fill-rule:nonzero;"/>
        </g>
        <g transform="matrix(0,1,1,0,961,193)">
            <path d="M-20,-20L20,-20" style="fill:none;stroke:rgb(59,208,248);stroke-width:2px;"/>
        </g>
        <g transform="matrix(1,0,0,1,242.81,352.526)">
            <circle cx="0" cy="-60" r="60" style="fill:rgb(0,159,214);"/>
        </g>
        <g transform="matrix(1,0,0,1,482.902,353)">
            <circle cx="0" cy="-60" r="60" style="fill:rgb(0,159,214);"/>
        </g>
        <g transform="matrix(1,0,0,1,262.999,268)">
            <path d="M0,26L4,26L4,0L-46,0L-46,26L-10,26" style="fill:none;stroke:white;stroke-width:2px;"/>
        </g>
        <g transform="matrix(-1,-0,-0,1,483.998,-206)">
            <rect x="236.999" y="500" width="10" height="6" style="fill:none;stroke:white;stroke-width:2px;"/>
        </g>
        <g transform="matrix(1,0,0,1,256.999,297)">
            <path d="M0,0C0,0.553 0.447,1 1,1C1.552,1 2,0.553 2,0C2,-0.553 1.552,-1 1,-1C0.447,-1 0,-0.553 0,0" style="fill:white;fill-rule:nonzero;"/>
        </g>
        <g transform="matrix(1,0,0,1,262.999,300)">
            <path d="M0,-17L-10,-17L-10,0L0,0L0,-17Z" style="fill:none;stroke:white;stroke-width:2px;"/>
        </g>
        <g transform="matrix(0.958285,0.285814,0.285814,-0.958285,941.357,101.772)">
            <path d="M-2.183,-0.318L24.383,-0.318L2.183,-14.956L-24.384,-14.958L-2.183,-0.318Z" style="fill:none;stroke:rgb(59,208,248);stroke-width:2px;stroke-linejoin:bevel;"/>
        </g>
        <g transform="matrix(1,0,0,1,964.632,123.729)">
            <path d="M0,-7.683L-25.458,0L-50.917,-7.593" style="fill:none;stroke:rgb(59,208,248);stroke-width:2px;"/>
        </g>
        <g transform="matrix(1,0,0,1,964.632,130.729)">
            <path d="M0,-7.683L-25.458,0L-50.917,-7.593" style="fill:none;stroke:rgb(59,208,248);stroke-width:2px;"/>
        </g>
        <g transform="matrix(1,0,0,1,501.999,99)">
            <path d="M0,32L4,32L4,0L-46,0L-46,32L0,32Z" style="fill:none;stroke:rgb(59,208,248);stroke-width:2px;"/>
        </g>
        <g transform="matrix(1,0,0,1,504.879,103.964)">
            <path d="M0,9.036L1.12,9.036L1.12,0L-12.88,0L-12.88,9.036L0,9.036Z" style="fill:none;stroke:rgb(59,208,248);stroke-width:2px;"/>
        </g>
        <g transform="matrix(1,0,0,1,504.879,113)">
            <path d="M0,9L1.12,9L1.12,0L-12.88,0L-12.88,9L0,9Z" style="fill:none;stroke:rgb(59,208,248);stroke-width:2px;"/>
        </g>
        <g transform="matrix(1,0,0,1,504.879,121.964)">
            <path d="M0,9.036L1.12,9.036L1.12,0L-12.88,0L-12.88,9.036L0,9.036Z" style="fill:none;stroke:rgb(59,208,248);stroke-width:2px;"/>
        </g>
        <g transform="matrix(1,0,0,1,490.879,103.964)">
            <path d="M0,9.036L1.12,9.036L1.12,0L-12.88,0L-12.88,9.036L0,9.036Z" style="fill:none;stroke:rgb(59,208,248);stroke-width:2px;"/>
        </g>
        <g transform="matrix(1,0,0,1,490.879,113)">
            <path d="M0,9L1.12,9L1.12,0L-12.88,0L-12.88,9L0,9Z" style="fill:none;stroke:rgb(59,208,248);stroke-width:2px;"/>
        </g>
        <g transform="matrix(1,0,0,1,490.879,121.964)">
            <path d="M0,9.036L1.12,9.036L1.12,0L-12.88,0L-12.88,9.036L0,9.036Z" style="fill:none;stroke:rgb(59,208,248);stroke-width:2px;"/>
        </g>
        <g transform="matrix(1,0,0,1,476.879,103.964)">
            <path d="M0,9.036L1.12,9.036L1.12,0L-12.88,0L-12.88,9.036L0,9.036Z" style="fill:none;stroke:rgb(59,208,248);stroke-width:2px;"/>
        </g>
        <g transform="matrix(1,0,0,1,476.879,113)">
            <path d="M0,9L1.12,9L1.12,0L-12.88,0L-12.88,9L0,9Z" style="fill:none;stroke:rgb(59,208,248);stroke-width:2px;"/>
        </g>
        <g transform="matrix(1,0,0,1,476.879,121.964)">
            <path d="M0,9.036L1.12,9.036L1.12,0L-12.88,0L-12.88,9.036L0,9.036Z" style="fill:none;stroke:rgb(59,208,248);stroke-width:2px;"/>
        </g>
        <g transform="matrix(1,0,0,1,455.999,103.964)">
            <path d="M0,0L8,0" style="fill:none;stroke:rgb(59,208,248);stroke-width:2px;"/>
        </g>
        <g transform="matrix(1,0,0,1,482.48,295.366)">
            <path d="M0,-25.519L-23.471,-33.902L-23.471,-0.003L0,8.379L0.013,8.383L23.495,-0.003L23.495,-33.902L0.012,-25.514L0,-25.519Z" style="fill:none;stroke:white;stroke-width:2px;"/>
        </g>
        <g transform="matrix(0.941743,0.336333,0.336333,-0.941743,464.386,269.828)">
            <path d="M-0.479,-2.766L15.966,-2.766" style="fill:none;stroke:white;stroke-width:2px;"/>
        </g>
        <g transform="matrix(0,1,1,0,499.405,286.829)">
            <path d="M-16.913,-16.913L16.913,-16.913" style="fill:none;stroke:white;stroke-width:2px;"/>
        </g>
        <g transform="matrix(0.941743,0.336333,0.336333,-0.941743,464.386,277.828)">
            <path d="M-0.479,-2.766L15.966,-2.766" style="fill:none;stroke:white;stroke-width:2px;"/>
        </g>
        <g transform="matrix(0.941743,0.336333,0.336333,-0.941743,464.386,285.828)">
            <path d="M-0.479,-2.766L15.966,-2.766" style="fill:none;stroke:white;stroke-width:2px;"/>
        </g>
        <g transform="matrix(-0.941743,0.336333,0.336333,0.941743,487.875,280.224)">
            <path d="M-15.966,-2.766L0.479,-2.766" style="fill:none;stroke:white;stroke-width:2px;"/>
        </g>
        <g transform="matrix(-0.941743,0.336333,0.336333,0.941743,487.875,288.224)">
            <path d="M-15.966,-2.766L0.479,-2.766" style="fill:none;stroke:white;stroke-width:2px;"/>
        </g>
        <g transform="matrix(-0.941743,0.336333,0.336333,0.941743,487.875,296.224)">
            <path d="M-15.966,-2.766L0.479,-2.766" style="fill:none;stroke:white;stroke-width:2px;"/>
        </g>
        <g transform="matrix(0,1,1,0,75.9195,259.375)">
            <circle cx="7.983" cy="-0.001" r="7.983" style="fill:none;stroke:rgb(59,208,248);stroke-width:2px;"/>
        </g>
        <g transform="matrix(1,0,0,1,89.9004,287.862)">
            <path d="M0,5.234C0,0.088 -2.739,-4.415 -6.83,-6.876L-6.86,-6.893C-8.988,-5.778 -11.411,-5.146 -13.981,-5.146C-16.56,-5.146 -18.989,-5.782 -21.123,-6.904L-21.161,-6.88C-25.256,-4.421 -28,0.084 -28,5.234L-28,12.138L0,12.138L0,5.188" style="fill:none;stroke:rgb(59,208,248);stroke-width:2px;"/>
        </g>
        <g>
            <g opacity="0.800003">
                <g>
                    <clipPath id="_clip1">
                        <rect x="325.902" y="255.822" width="70" height="16.358" clip-rule="nonzero"/>
                    </clipPath>
                    <g clip-path="url(#_clip1)">
                        <g transform="matrix(1,0,0,1,325.902,264)">
                            <path d="M0,0L67.83,0" style="fill:none;stroke:rgb(46,52,58);stroke-width:2px;"/>
                        </g>
                        <g transform="matrix(1,0,0,1,387.106,255.823)">
                            <path d="M0,16.357L-1.363,14.892L5.859,8.179L-1.363,1.464L0,0L8.797,8.179L0,16.357Z" style="fill:rgb(46,52,58);fill-rule:nonzero;"/>
                        </g>
                    </g>
                </g>
            </g>
        </g>
        <g>
            <g opacity="0.5">
                <g>
                    <clipPath id="_clip2">
                        <rect x="326" y="284.82" width="19" height="16.358" clip-rule="nonzero"/>
                    </clipPath>
                    <g clip-path="url(#_clip2)">
                        <g transform="matrix(-1,-0,-0,1,328.169,293)">
                            <path d="M-16.831,0L0,0" style="fill:none;stroke:rgb(149,152,156);stroke-width:2px;"/>
                        </g>
                        <g transform="matrix(1,0,0,1,334.796,301.177)">
                            <path d="M0,-16.357L1.364,-14.892L-5.859,-8.179L1.364,-1.464L0,0L-8.796,-8.179L0,-16.357Z" style="fill:rgb(149,152,156);fill-rule:nonzero;"/>
                        </g>
                    </g>
                </g>
            </g>
        </g>
        <g>
            <g opacity="0.800003">
                <g>
                    <clipPath id="_clip3">
                        <rect x="561.902" y="255.822" width="70" height="16.358" clip-rule="nonzero"/>
                    </clipPath>
                    <g clip-path="url(#_clip3)">
                        <g transform="matrix(1,0,0,1,561.902,264)">
                            <path d="M0,0L67.83,0" style="fill:none;stroke:rgb(46,52,58);stroke-width:2px;"/>
                        </g>
                        <g transform="matrix(1,0,0,1,623.106,255.823)">
                            <path d="M0,16.357L-1.363,14.892L5.859,8.179L-1.363,1.464L0,0L8.797,8.179L0,16.357Z" style="fill:rgb(46,52,58);fill-rule:nonzero;"/>
                        </g>
                    </g>
                </g>
            </g>
        </g>
        <g>
            <g opacity="0.800003">
                <g>
                    <clipPath id="_clip4">
                        <rect x="791.902" y="255.822" width="70" height="16.358" clip-rule="nonzero"/>
                    </clipPath>
                    <g clip-path="url(#_clip4)">
                        <g transform="matrix(1,0,0,1,791.902,264)">
                            <path d="M0,0L67.83,0" style="fill:none;stroke:rgb(46,52,58);stroke-width:2px;"/>
                        </g>
                        <g transform="matrix(1,0,0,1,853.106,255.823)">
                            <path d="M0,16.357L-1.363,14.892L5.859,8.179L-1.363,1.464L0,0L8.797,8.179L0,16.357Z" style="fill:rgb(46,52,58);fill-rule:nonzero;"/>
                        </g>
                    </g>
                </g>
            </g>
        </g>
        <g transform="matrix(-1,-0,-0,1,794.071,323)">
            <path d="M-67.831,0L0,0" style="fill:none;stroke:rgb(149,152,156);stroke-width:2px;"/>
        </g>
        <g transform="matrix(1,0,0,1,800.698,331.177)">
            <path d="M0,-16.357L1.364,-14.892L-5.859,-8.179L1.364,-1.464L0,0L-8.796,-8.179L0,-16.357Z" style="fill:rgb(149,152,156);fill-rule:nonzero;"/>
        </g>
        <g transform="matrix(-1,-0,-0,1,1513.8,-266)">
            <rect x="741.902" y="518" width="30" height="30" style="fill:none;stroke:rgb(59,208,248);stroke-width:2px;"/>
        </g>
        <g transform="matrix(-1,-0,-0,1,1453.8,-266)">
            <rect x="711.902" y="518" width="30" height="30" style="fill:none;stroke:rgb(59,208,248);stroke-width:2px;"/>
        </g>
        <g transform="matrix(-1,-0,-0,1,1393.8,-266)">
            <rect x="681.902" y="518" width="30" height="30" style="fill:none;stroke:rgb(59,208,248);stroke-width:2px;"/>
        </g>
        <g transform="matrix(-1,-0,-0,1,1333.8,-266)">
            <rect x="651.902" y="518" width="30" height="30" style="fill:none;stroke:rgb(59,208,248);stroke-width:2px;"/>
        </g>
        <g transform="matrix(-1,-0,-0,1,1513.8,-154)">
            <rect x="741.902" y="462" width="30" height="30" style="fill:none;stroke:rgb(59,208,248);stroke-width:2px;"/>
        </g>
        <g transform="matrix(-1,-0,-0,1,1453.8,-154)">
            <rect x="711.902" y="462" width="30" height="30" style="fill:none;stroke:rgb(59,208,248);stroke-width:2px;"/>
        </g>
        <g transform="matrix(-1,-0,-0,1,1393.8,-154)">
            <rect x="681.902" y="462" width="30" height="30" style="fill:none;stroke:rgb(59,208,248);stroke-width:2px;"/>
        </g>
        <g transform="matrix(-1,-0,-0,1,1333.8,-154)">
            <rect x="651.902" y="462" width="30" height="30" style="fill:none;stroke:rgb(59,208,248);stroke-width:2px;"/>
        </g>
        <g transform="matrix(1,0,0,1,941.492,353)">
            <circle cx="0" cy="-60" r="60" style="fill:rgb(0,159,214);"/>
        </g>
        <g transform="matrix(1,0,0,1,961.596,298.271)">
            <path d="M0,-32.36L6.942,-28.383L-6.973,-4.087L-13.923,0L-13.915,-8.062L0,-32.36Z" style="fill:none;stroke:white;stroke-width:2px;"/>
        </g>
        <g transform="matrix(-0.86775,-0.497,-0.497,0.86775,949.128,288.746)">
            <path d="M-7.471,1.988L0.529,1.988" style="fill:none;stroke:white;stroke-width:2px;"/>
        </g>
        <g transform="matrix(-0.86775,-0.497002,-0.497002,0.86775,961.167,269.392)">
            <path d="M-6.642,1.767L0.47,1.767" style="fill:none;stroke:white;stroke-width:2px;"/>
        </g>
        <g transform="matrix(-1,-0,-0,1,915.698,299.095)">
            <path d="M-26,0L0,0" style="fill:none;stroke:white;stroke-width:2px;"/>
        </g>
        <g transform="matrix(-1,-0,-0,1,328.169,323)">
            <path d="M-67.831,0L0,0" style="fill:none;stroke:rgb(149,152,156);stroke-width:2px;"/>
        </g>
        <g transform="matrix(1,0,0,1,334.796,331.177)">
            <path d="M0,-16.357L1.364,-14.892L-5.859,-8.179L1.364,-1.464L0,0L-8.796,-8.179L0,-16.357Z" style="fill:rgb(149,152,156);fill-rule:nonzero;"/>
        </g>
        <g transform="matrix(-1,-0,-0,1,564.169,323)">
            <path d="M-67.831,0L0,0" style="fill:none;stroke:rgb(149,152,156);stroke-width:2px;"/>
        </g>
        <g transform="matrix(1,0,0,1,570.796,331.177)">
            <path d="M0,-16.357L1.364,-14.892L-5.859,-8.179L1.364,-1.464L0,0L-8.796,-8.179L0,-16.357Z" style="fill:rgb(149,152,156);fill-rule:nonzero;"/>
        </g>
        <g>
            <path d="M464.617,323.126C464.085,323.126 463.556,323.11 463.028,323.077C462.501,323.044 461.953,322.967 461.383,322.846L461.383,313.438C461.831,313.354 462.321,313.291 462.853,313.249C463.385,313.207 463.88,313.186 464.337,313.186C464.953,313.186 465.52,313.23 466.038,313.319C466.556,313.408 467.002,313.559 467.375,313.774C467.749,313.989 468.04,314.271 468.25,314.621C468.46,314.971 468.565,315.403 468.565,315.916C468.565,316.691 468.192,317.302 467.445,317.75C468.061,317.983 468.481,318.301 468.705,318.702C468.929,319.103 469.041,319.556 469.041,320.06C469.041,321.077 468.67,321.843 467.928,322.356C467.186,322.869 466.083,323.126 464.617,323.126ZM463.511,318.772L463.511,321.278C463.67,321.297 463.843,321.311 464.029,321.32C464.216,321.329 464.421,321.334 464.645,321.334C465.299,321.334 465.826,321.241 466.227,321.054C466.629,320.867 466.829,320.522 466.829,320.018C466.829,319.57 466.661,319.25 466.325,319.059C465.989,318.868 465.509,318.772 464.883,318.772L463.511,318.772ZM463.511,317.106L464.575,317.106C465.247,317.106 465.728,317.02 466.017,316.847C466.307,316.674 466.451,316.397 466.451,316.014C466.451,315.622 466.302,315.347 466.003,315.188C465.705,315.029 465.266,314.95 464.687,314.95C464.501,314.95 464.3,314.952 464.085,314.957C463.871,314.962 463.679,314.973 463.511,314.992L463.511,317.106Z" style="fill:white;fill-rule:nonzero;"/>
            <path d="M475.089,317.484C474.903,317.437 474.683,317.388 474.431,317.337C474.179,317.286 473.909,317.26 473.619,317.26C473.489,317.26 473.332,317.272 473.15,317.295C472.968,317.318 472.831,317.344 472.737,317.372L472.737,323L470.651,323L470.651,316.028C471.025,315.897 471.466,315.774 471.974,315.657C472.483,315.54 473.05,315.482 473.675,315.482C473.787,315.482 473.923,315.489 474.081,315.503C474.24,315.517 474.399,315.536 474.557,315.559C474.716,315.582 474.875,315.61 475.033,315.643C475.192,315.676 475.327,315.715 475.439,315.762L475.089,317.484Z" style="fill:white;fill-rule:nonzero;"/>
            <path d="M483.297,319.304C483.297,319.883 483.213,320.412 483.045,320.893C482.877,321.374 482.635,321.784 482.317,322.125C482,322.466 481.62,322.729 481.176,322.916C480.733,323.103 480.236,323.196 479.685,323.196C479.144,323.196 478.652,323.103 478.208,322.916C477.765,322.729 477.385,322.466 477.067,322.125C476.75,321.784 476.503,321.374 476.325,320.893C476.148,320.412 476.059,319.883 476.059,319.304C476.059,318.725 476.15,318.198 476.332,317.722C476.514,317.246 476.766,316.84 477.088,316.504C477.41,316.168 477.793,315.907 478.236,315.72C478.68,315.533 479.163,315.44 479.685,315.44C480.217,315.44 480.705,315.533 481.148,315.72C481.592,315.907 481.972,316.168 482.289,316.504C482.607,316.84 482.854,317.246 483.031,317.722C483.209,318.198 483.297,318.725 483.297,319.304ZM481.169,319.304C481.169,318.66 481.041,318.154 480.784,317.785C480.528,317.416 480.161,317.232 479.685,317.232C479.209,317.232 478.841,317.416 478.579,317.785C478.318,318.154 478.187,318.66 478.187,319.304C478.187,319.948 478.318,320.459 478.579,320.837C478.841,321.215 479.209,321.404 479.685,321.404C480.161,321.404 480.528,321.215 480.784,320.837C481.041,320.459 481.169,319.948 481.169,319.304Z" style="fill:white;fill-rule:nonzero;"/>
            <path d="M486.993,318.296C487.199,318.072 487.411,317.839 487.63,317.596C487.85,317.353 488.062,317.113 488.267,316.875C488.473,316.637 488.666,316.411 488.848,316.196C489.03,315.981 489.187,315.795 489.317,315.636L491.795,315.636C491.301,316.205 490.818,316.749 490.346,317.267C489.875,317.785 489.359,318.319 488.799,318.87C489.079,319.122 489.369,319.423 489.667,319.773C489.966,320.123 490.255,320.485 490.535,320.858C490.815,321.231 491.072,321.605 491.305,321.978C491.539,322.351 491.735,322.692 491.893,323L489.499,323C489.35,322.757 489.18,322.489 488.988,322.195C488.797,321.901 488.594,321.607 488.379,321.313C488.165,321.019 487.938,320.737 487.7,320.466C487.462,320.195 487.227,319.967 486.993,319.78L486.993,323L484.907,323L484.907,312.472L486.993,312.136L486.993,318.296Z" style="fill:white;fill-rule:nonzero;"/>
            <path d="M492.163,319.374C492.163,318.721 492.264,318.149 492.464,317.659C492.665,317.169 492.929,316.761 493.255,316.434C493.582,316.107 493.958,315.86 494.382,315.692C494.807,315.524 495.243,315.44 495.691,315.44C496.737,315.44 497.563,315.76 498.169,316.399C498.776,317.038 499.079,317.979 499.079,319.22C499.079,319.341 499.075,319.474 499.065,319.619C499.056,319.764 499.047,319.892 499.037,320.004L494.305,320.004C494.352,320.433 494.553,320.774 494.907,321.026C495.262,321.278 495.738,321.404 496.335,321.404C496.718,321.404 497.094,321.369 497.462,321.299C497.831,321.229 498.132,321.143 498.365,321.04L498.645,322.734C498.533,322.79 498.384,322.846 498.197,322.902C498.011,322.958 497.803,323.007 497.574,323.049C497.346,323.091 497.101,323.126 496.839,323.154C496.578,323.182 496.317,323.196 496.055,323.196C495.393,323.196 494.816,323.098 494.326,322.902C493.836,322.706 493.43,322.438 493.108,322.097C492.786,321.756 492.548,321.353 492.394,320.886C492.24,320.419 492.163,319.915 492.163,319.374ZM497.063,318.576C497.054,318.399 497.024,318.226 496.972,318.058C496.921,317.89 496.842,317.741 496.734,317.61C496.627,317.479 496.492,317.372 496.328,317.288C496.165,317.204 495.962,317.162 495.719,317.162C495.486,317.162 495.285,317.202 495.117,317.281C494.949,317.36 494.809,317.465 494.697,317.596C494.585,317.727 494.499,317.878 494.438,318.051C494.378,318.224 494.333,318.399 494.305,318.576L497.063,318.576Z" style="fill:white;fill-rule:nonzero;"/>
            <path d="M505.127,317.484C504.941,317.437 504.721,317.388 504.469,317.337C504.217,317.286 503.947,317.26 503.657,317.26C503.527,317.26 503.37,317.272 503.188,317.295C503.006,317.318 502.869,317.344 502.775,317.372L502.775,323L500.689,323L500.689,316.028C501.063,315.897 501.504,315.774 502.012,315.657C502.521,315.54 503.088,315.482 503.713,315.482C503.825,315.482 503.961,315.489 504.119,315.503C504.278,315.517 504.437,315.536 504.595,315.559C504.754,315.582 504.913,315.61 505.071,315.643C505.23,315.676 505.365,315.715 505.477,315.762L505.127,317.484Z" style="fill:white;fill-rule:nonzero;"/>
        </g>
        <path d="M65.743,322.734C65.109,322.734 64.558,322.636 64.091,322.44C63.625,322.244 63.242,321.976 62.943,321.635C62.645,321.294 62.423,320.891 62.278,320.424C62.134,319.957 62.061,319.453 62.061,318.912L62.061,312.822L63.419,312.822L63.419,318.758C63.419,319.729 63.634,320.433 64.063,320.872C64.493,321.311 65.053,321.53 65.743,321.53C66.089,321.53 66.404,321.476 66.688,321.369C66.973,321.262 67.218,321.096 67.423,320.872C67.629,320.648 67.787,320.361 67.899,320.011C68.011,319.661 68.067,319.243 68.067,318.758L68.067,312.822L69.425,312.822L69.425,318.912C69.425,319.453 69.353,319.957 69.208,320.424C69.064,320.891 68.84,321.294 68.536,321.635C68.233,321.976 67.85,322.244 67.388,322.44C66.926,322.636 66.378,322.734 65.743,322.734Z" style="fill:rgb(59,208,248);fill-rule:nonzero;"/>
        <path d="M73.373,321.586C73.905,321.586 74.3,321.516 74.556,321.376C74.813,321.236 74.941,321.012 74.941,320.704C74.941,320.387 74.815,320.135 74.563,319.948C74.311,319.761 73.896,319.551 73.317,319.318C73.037,319.206 72.769,319.092 72.512,318.975C72.256,318.858 72.034,318.721 71.847,318.562C71.661,318.403 71.511,318.212 71.399,317.988C71.287,317.764 71.231,317.489 71.231,317.162C71.231,316.518 71.469,316.007 71.945,315.629C72.421,315.251 73.07,315.062 73.891,315.062C74.097,315.062 74.302,315.074 74.507,315.097C74.713,315.12 74.904,315.148 75.081,315.181C75.259,315.214 75.415,315.249 75.55,315.286C75.686,315.323 75.791,315.356 75.865,315.384L75.627,316.504C75.487,316.429 75.268,316.352 74.969,316.273C74.671,316.194 74.311,316.154 73.891,316.154C73.527,316.154 73.21,316.226 72.939,316.371C72.669,316.516 72.533,316.742 72.533,317.05C72.533,317.209 72.564,317.349 72.624,317.47C72.685,317.591 72.778,317.701 72.904,317.799C73.03,317.897 73.187,317.988 73.373,318.072C73.56,318.156 73.784,318.245 74.045,318.338C74.391,318.469 74.699,318.597 74.969,318.723C75.24,318.849 75.471,318.996 75.662,319.164C75.854,319.332 76.001,319.535 76.103,319.773C76.206,320.011 76.257,320.303 76.257,320.648C76.257,321.32 76.008,321.829 75.508,322.174C75.009,322.519 74.297,322.692 73.373,322.692C72.729,322.692 72.225,322.638 71.861,322.531C71.497,322.424 71.25,322.342 71.119,322.286L71.357,321.166C71.507,321.222 71.745,321.306 72.071,321.418C72.398,321.53 72.832,321.586 73.373,321.586Z" style="fill:rgb(59,208,248);fill-rule:nonzero;"/>
        <path d="M77.517,318.898C77.517,318.254 77.611,317.692 77.797,317.211C77.984,316.73 78.231,316.331 78.539,316.014C78.847,315.697 79.202,315.459 79.603,315.3C80.005,315.141 80.415,315.062 80.835,315.062C81.815,315.062 82.567,315.368 83.089,315.979C83.612,316.59 83.873,317.521 83.873,318.772C83.873,318.828 83.873,318.9 83.873,318.989C83.873,319.078 83.869,319.159 83.859,319.234L78.875,319.234C78.931,319.99 79.151,320.564 79.533,320.956C79.916,321.348 80.513,321.544 81.325,321.544C81.783,321.544 82.168,321.504 82.48,321.425C82.793,321.346 83.029,321.269 83.187,321.194L83.369,322.286C83.211,322.37 82.933,322.459 82.536,322.552C82.14,322.645 81.689,322.692 81.185,322.692C80.551,322.692 80.002,322.596 79.54,322.405C79.078,322.214 78.698,321.95 78.399,321.614C78.101,321.278 77.879,320.879 77.734,320.417C77.59,319.955 77.517,319.449 77.517,318.898ZM82.515,318.184C82.525,317.596 82.378,317.113 82.074,316.735C81.771,316.357 81.353,316.168 80.821,316.168C80.523,316.168 80.259,316.226 80.03,316.343C79.802,316.46 79.608,316.611 79.449,316.798C79.291,316.985 79.167,317.199 79.078,317.442C78.99,317.685 78.931,317.932 78.903,318.184L82.515,318.184Z" style="fill:rgb(59,208,248);fill-rule:nonzero;"/>
        <path d="M88.437,315.09C88.549,315.09 88.678,315.097 88.822,315.111C88.967,315.125 89.109,315.144 89.249,315.167C89.389,315.19 89.518,315.214 89.634,315.237C89.751,315.26 89.837,315.281 89.893,315.3L89.669,316.434C89.567,316.397 89.396,316.352 89.158,316.301C88.92,316.25 88.615,316.224 88.241,316.224C87.999,316.224 87.758,316.25 87.52,316.301C87.282,316.352 87.126,316.387 87.051,316.406L87.051,322.524L85.749,322.524L85.749,315.552C86.057,315.44 86.44,315.335 86.897,315.237C87.355,315.139 87.868,315.09 88.437,315.09Z" style="fill:rgb(59,208,248);fill-rule:nonzero;"/>
        <g>
            <path d="M904.021,154.048L904.021,144.346L909.943,144.346L909.943,145.508L905.379,145.508L905.379,148.392L909.439,148.392L909.439,149.526L905.379,149.526L905.379,152.886L910.293,152.886L910.293,154.048L904.021,154.048Z" style="fill:rgb(59,208,248);fill-rule:nonzero;"/>
            <path d="M917.265,146.768C916.901,148.131 916.474,149.437 915.984,150.688C915.494,151.939 915.021,153.059 914.563,154.048L913.387,154.048C912.93,153.059 912.456,151.939 911.966,150.688C911.476,149.437 911.049,148.131 910.685,146.768L912.085,146.768C912.197,147.225 912.33,147.713 912.484,148.231C912.638,148.749 912.802,149.262 912.974,149.771C913.147,150.28 913.322,150.772 913.499,151.248C913.677,151.724 913.845,152.149 914.003,152.522C914.162,152.149 914.33,151.724 914.507,151.248C914.685,150.772 914.86,150.28 915.032,149.771C915.205,149.262 915.368,148.749 915.522,148.231C915.676,147.713 915.809,147.225 915.921,146.768L917.265,146.768Z" style="fill:rgb(59,208,248);fill-rule:nonzero;"/>
            <path d="M918.003,150.422C918.003,149.778 918.097,149.216 918.283,148.735C918.47,148.254 918.717,147.855 919.025,147.538C919.333,147.221 919.688,146.983 920.089,146.824C920.491,146.665 920.901,146.586 921.321,146.586C922.301,146.586 923.053,146.892 923.575,147.503C924.098,148.114 924.359,149.045 924.359,150.296C924.359,150.352 924.359,150.424 924.359,150.513C924.359,150.602 924.355,150.683 924.345,150.758L919.361,150.758C919.417,151.514 919.637,152.088 920.019,152.48C920.402,152.872 920.999,153.068 921.811,153.068C922.269,153.068 922.654,153.028 922.966,152.949C923.279,152.87 923.515,152.793 923.673,152.718L923.855,153.81C923.697,153.894 923.419,153.983 923.022,154.076C922.626,154.169 922.175,154.216 921.671,154.216C921.037,154.216 920.488,154.12 920.026,153.929C919.564,153.738 919.184,153.474 918.885,153.138C918.587,152.802 918.365,152.403 918.22,151.941C918.076,151.479 918.003,150.973 918.003,150.422ZM923.001,149.708C923.011,149.12 922.864,148.637 922.56,148.259C922.257,147.881 921.839,147.692 921.307,147.692C921.009,147.692 920.745,147.75 920.516,147.867C920.288,147.984 920.094,148.135 919.935,148.322C919.777,148.509 919.653,148.723 919.564,148.966C919.476,149.209 919.417,149.456 919.389,149.708L923.001,149.708Z" style="fill:rgb(59,208,248);fill-rule:nonzero;"/>
            <path d="M926.235,146.978C926.534,146.903 926.931,146.824 927.425,146.74C927.92,146.656 928.489,146.614 929.133,146.614C929.712,146.614 930.193,146.696 930.575,146.859C930.958,147.022 931.264,147.251 931.492,147.545C931.721,147.839 931.882,148.191 931.975,148.602C932.069,149.013 932.115,149.465 932.115,149.96L932.115,154.048L930.813,154.048L930.813,150.24C930.813,149.792 930.783,149.409 930.722,149.092C930.662,148.775 930.561,148.518 930.421,148.322C930.281,148.126 930.095,147.984 929.861,147.895C929.628,147.806 929.339,147.762 928.993,147.762C928.853,147.762 928.709,147.767 928.559,147.776C928.41,147.785 928.268,147.797 928.132,147.811C927.997,147.825 927.876,147.841 927.768,147.86C927.661,147.879 927.584,147.893 927.537,147.902L927.537,154.048L926.235,154.048L926.235,146.978Z" style="fill:rgb(59,208,248);fill-rule:nonzero;"/>
            <path d="M935.489,146.768L938.247,146.768L938.247,147.86L935.489,147.86L935.489,151.22C935.489,151.584 935.517,151.885 935.573,152.123C935.629,152.361 935.713,152.548 935.825,152.683C935.937,152.818 936.077,152.914 936.245,152.97C936.413,153.026 936.609,153.054 936.833,153.054C937.225,153.054 937.54,153.01 937.778,152.921C938.016,152.832 938.182,152.769 938.275,152.732L938.527,153.81C938.397,153.875 938.168,153.957 937.841,154.055C937.515,154.153 937.141,154.202 936.721,154.202C936.227,154.202 935.818,154.139 935.496,154.013C935.174,153.887 934.915,153.698 934.719,153.446C934.523,153.194 934.386,152.884 934.306,152.515C934.227,152.146 934.187,151.719 934.187,151.234L934.187,144.738L935.489,144.514L935.489,146.768Z" style="fill:rgb(59,208,248);fill-rule:nonzero;"/>
            <path d="M944.827,153.11C945.359,153.11 945.754,153.04 946.01,152.9C946.267,152.76 946.395,152.536 946.395,152.228C946.395,151.911 946.269,151.659 946.017,151.472C945.765,151.285 945.35,151.075 944.771,150.842C944.491,150.73 944.223,150.616 943.966,150.499C943.71,150.382 943.488,150.245 943.301,150.086C943.115,149.927 942.965,149.736 942.853,149.512C942.741,149.288 942.685,149.013 942.685,148.686C942.685,148.042 942.923,147.531 943.399,147.153C943.875,146.775 944.524,146.586 945.345,146.586C945.551,146.586 945.756,146.598 945.961,146.621C946.167,146.644 946.358,146.672 946.535,146.705C946.713,146.738 946.869,146.773 947.004,146.81C947.14,146.847 947.245,146.88 947.319,146.908L947.081,148.028C946.941,147.953 946.722,147.876 946.423,147.797C946.125,147.718 945.765,147.678 945.345,147.678C944.981,147.678 944.664,147.75 944.393,147.895C944.123,148.04 943.987,148.266 943.987,148.574C943.987,148.733 944.018,148.873 944.078,148.994C944.139,149.115 944.232,149.225 944.358,149.323C944.484,149.421 944.641,149.512 944.827,149.596C945.014,149.68 945.238,149.769 945.499,149.862C945.845,149.993 946.153,150.121 946.423,150.247C946.694,150.373 946.925,150.52 947.116,150.688C947.308,150.856 947.455,151.059 947.557,151.297C947.66,151.535 947.711,151.827 947.711,152.172C947.711,152.844 947.462,153.353 946.962,153.698C946.463,154.043 945.751,154.216 944.827,154.216C944.183,154.216 943.679,154.162 943.315,154.055C942.951,153.948 942.704,153.866 942.573,153.81L942.811,152.69C942.961,152.746 943.199,152.83 943.525,152.942C943.852,153.054 944.286,153.11 944.827,153.11Z" style="fill:rgb(59,208,248);fill-rule:nonzero;"/>
            <path d="M950.595,146.768L953.353,146.768L953.353,147.86L950.595,147.86L950.595,151.22C950.595,151.584 950.623,151.885 950.679,152.123C950.735,152.361 950.819,152.548 950.931,152.683C951.043,152.818 951.183,152.914 951.351,152.97C951.519,153.026 951.715,153.054 951.939,153.054C952.331,153.054 952.646,153.01 952.884,152.921C953.122,152.832 953.288,152.769 953.381,152.732L953.633,153.81C953.503,153.875 953.274,153.957 952.947,154.055C952.621,154.153 952.247,154.202 951.827,154.202C951.333,154.202 950.924,154.139 950.602,154.013C950.28,153.887 950.021,153.698 949.825,153.446C949.629,153.194 949.492,152.884 949.412,152.515C949.333,152.146 949.293,151.719 949.293,151.234L949.293,144.738L950.595,144.514L950.595,146.768Z" style="fill:rgb(59,208,248);fill-rule:nonzero;"/>
            <path d="M961.231,150.408C961.231,150.987 961.147,151.509 960.979,151.976C960.811,152.443 960.576,152.844 960.272,153.18C959.969,153.516 959.607,153.775 959.187,153.957C958.767,154.139 958.31,154.23 957.815,154.23C957.321,154.23 956.863,154.139 956.443,153.957C956.023,153.775 955.662,153.516 955.358,153.18C955.055,152.844 954.819,152.443 954.651,151.976C954.483,151.509 954.399,150.987 954.399,150.408C954.399,149.839 954.483,149.318 954.651,148.847C954.819,148.376 955.055,147.972 955.358,147.636C955.662,147.3 956.023,147.041 956.443,146.859C956.863,146.677 957.321,146.586 957.815,146.586C958.31,146.586 958.767,146.677 959.187,146.859C959.607,147.041 959.969,147.3 960.272,147.636C960.576,147.972 960.811,148.376 960.979,148.847C961.147,149.318 961.231,149.839 961.231,150.408ZM959.873,150.408C959.873,149.587 959.689,148.936 959.32,148.455C958.952,147.974 958.45,147.734 957.815,147.734C957.181,147.734 956.679,147.974 956.31,148.455C955.942,148.936 955.757,149.587 955.757,150.408C955.757,151.229 955.942,151.88 956.31,152.361C956.679,152.842 957.181,153.082 957.815,153.082C958.45,153.082 958.952,152.842 959.32,152.361C959.689,151.88 959.873,151.229 959.873,150.408Z" style="fill:rgb(59,208,248);fill-rule:nonzero;"/>
            <path d="M965.753,146.614C965.865,146.614 965.994,146.621 966.138,146.635C966.283,146.649 966.425,146.668 966.565,146.691C966.705,146.714 966.834,146.738 966.95,146.761C967.067,146.784 967.153,146.805 967.209,146.824L966.985,147.958C966.883,147.921 966.712,147.876 966.474,147.825C966.236,147.774 965.931,147.748 965.557,147.748C965.315,147.748 965.074,147.774 964.836,147.825C964.598,147.876 964.442,147.911 964.367,147.93L964.367,154.048L963.065,154.048L963.065,147.076C963.373,146.964 963.756,146.859 964.213,146.761C964.671,146.663 965.184,146.614 965.753,146.614Z" style="fill:rgb(59,208,248);fill-rule:nonzero;"/>
            <path d="M968.063,150.422C968.063,149.778 968.157,149.216 968.343,148.735C968.53,148.254 968.777,147.855 969.085,147.538C969.393,147.221 969.748,146.983 970.149,146.824C970.551,146.665 970.961,146.586 971.381,146.586C972.361,146.586 973.113,146.892 973.635,147.503C974.158,148.114 974.419,149.045 974.419,150.296C974.419,150.352 974.419,150.424 974.419,150.513C974.419,150.602 974.415,150.683 974.405,150.758L969.421,150.758C969.477,151.514 969.697,152.088 970.079,152.48C970.462,152.872 971.059,153.068 971.871,153.068C972.329,153.068 972.714,153.028 973.026,152.949C973.339,152.87 973.575,152.793 973.733,152.718L973.915,153.81C973.757,153.894 973.479,153.983 973.082,154.076C972.686,154.169 972.235,154.216 971.731,154.216C971.097,154.216 970.548,154.12 970.086,153.929C969.624,153.738 969.244,153.474 968.945,153.138C968.647,152.802 968.425,152.403 968.28,151.941C968.136,151.479 968.063,150.973 968.063,150.422ZM973.061,149.708C973.071,149.12 972.924,148.637 972.62,148.259C972.317,147.881 971.899,147.692 971.367,147.692C971.069,147.692 970.805,147.75 970.576,147.867C970.348,147.984 970.154,148.135 969.995,148.322C969.837,148.509 969.713,148.723 969.624,148.966C969.536,149.209 969.477,149.456 969.449,149.708L973.061,149.708Z" style="fill:rgb(59,208,248);fill-rule:nonzero;"/>
        </g>
        <g>
            <path d="M458.779,152.746L458.779,153.922L452.941,153.922L452.941,144.22L454.299,144.22L454.299,152.746L458.779,152.746Z" style="fill:rgb(59,208,248);fill-rule:nonzero;"/>
            <path d="M461.425,153.922L460.123,153.922L460.123,146.642L461.425,146.642L461.425,153.922ZM460.767,145.326C460.534,145.326 460.336,145.249 460.172,145.095C460.009,144.941 459.927,144.733 459.927,144.472C459.927,144.211 460.009,144.003 460.172,143.849C460.336,143.695 460.534,143.618 460.767,143.618C461.001,143.618 461.199,143.695 461.362,143.849C461.526,144.003 461.607,144.211 461.607,144.472C461.607,144.733 461.526,144.941 461.362,145.095C461.199,145.249 461.001,145.326 460.767,145.326Z" style="fill:rgb(59,208,248);fill-rule:nonzero;"/>
            <path d="M465.359,152.984C465.891,152.984 466.286,152.914 466.542,152.774C466.799,152.634 466.927,152.41 466.927,152.102C466.927,151.785 466.801,151.533 466.549,151.346C466.297,151.159 465.882,150.949 465.303,150.716C465.023,150.604 464.755,150.49 464.498,150.373C464.242,150.256 464.02,150.119 463.833,149.96C463.647,149.801 463.497,149.61 463.385,149.386C463.273,149.162 463.217,148.887 463.217,148.56C463.217,147.916 463.455,147.405 463.931,147.027C464.407,146.649 465.056,146.46 465.877,146.46C466.083,146.46 466.288,146.472 466.493,146.495C466.699,146.518 466.89,146.546 467.067,146.579C467.245,146.612 467.401,146.647 467.536,146.684C467.672,146.721 467.777,146.754 467.851,146.782L467.613,147.902C467.473,147.827 467.254,147.75 466.955,147.671C466.657,147.592 466.297,147.552 465.877,147.552C465.513,147.552 465.196,147.624 464.925,147.769C464.655,147.914 464.519,148.14 464.519,148.448C464.519,148.607 464.55,148.747 464.61,148.868C464.671,148.989 464.764,149.099 464.89,149.197C465.016,149.295 465.173,149.386 465.359,149.47C465.546,149.554 465.77,149.643 466.031,149.736C466.377,149.867 466.685,149.995 466.955,150.121C467.226,150.247 467.457,150.394 467.648,150.562C467.84,150.73 467.987,150.933 468.089,151.171C468.192,151.409 468.243,151.701 468.243,152.046C468.243,152.718 467.994,153.227 467.494,153.572C466.995,153.917 466.283,154.09 465.359,154.09C464.715,154.09 464.211,154.036 463.847,153.929C463.483,153.822 463.236,153.74 463.105,153.684L463.343,152.564C463.493,152.62 463.731,152.704 464.057,152.816C464.384,152.928 464.818,152.984 465.359,152.984Z" style="fill:rgb(59,208,248);fill-rule:nonzero;"/>
            <path d="M471.127,146.642L473.885,146.642L473.885,147.734L471.127,147.734L471.127,151.094C471.127,151.458 471.155,151.759 471.211,151.997C471.267,152.235 471.351,152.422 471.463,152.557C471.575,152.692 471.715,152.788 471.883,152.844C472.051,152.9 472.247,152.928 472.471,152.928C472.863,152.928 473.178,152.884 473.416,152.795C473.654,152.706 473.82,152.643 473.913,152.606L474.165,153.684C474.035,153.749 473.806,153.831 473.479,153.929C473.153,154.027 472.779,154.076 472.359,154.076C471.865,154.076 471.456,154.013 471.134,153.887C470.812,153.761 470.553,153.572 470.357,153.32C470.161,153.068 470.024,152.758 469.944,152.389C469.865,152.02 469.825,151.593 469.825,151.108L469.825,144.612L471.127,144.388L471.127,146.642Z" style="fill:rgb(59,208,248);fill-rule:nonzero;"/>
            <path d="M480.465,152.984C480.997,152.984 481.392,152.914 481.648,152.774C481.905,152.634 482.033,152.41 482.033,152.102C482.033,151.785 481.907,151.533 481.655,151.346C481.403,151.159 480.988,150.949 480.409,150.716C480.129,150.604 479.861,150.49 479.604,150.373C479.348,150.256 479.126,150.119 478.939,149.96C478.753,149.801 478.603,149.61 478.491,149.386C478.379,149.162 478.323,148.887 478.323,148.56C478.323,147.916 478.561,147.405 479.037,147.027C479.513,146.649 480.162,146.46 480.983,146.46C481.189,146.46 481.394,146.472 481.599,146.495C481.805,146.518 481.996,146.546 482.173,146.579C482.351,146.612 482.507,146.647 482.642,146.684C482.778,146.721 482.883,146.754 482.957,146.782L482.719,147.902C482.579,147.827 482.36,147.75 482.061,147.671C481.763,147.592 481.403,147.552 480.983,147.552C480.619,147.552 480.302,147.624 480.031,147.769C479.761,147.914 479.625,148.14 479.625,148.448C479.625,148.607 479.656,148.747 479.716,148.868C479.777,148.989 479.87,149.099 479.996,149.197C480.122,149.295 480.279,149.386 480.465,149.47C480.652,149.554 480.876,149.643 481.137,149.736C481.483,149.867 481.791,149.995 482.061,150.121C482.332,150.247 482.563,150.394 482.754,150.562C482.946,150.73 483.093,150.933 483.195,151.171C483.298,151.409 483.349,151.701 483.349,152.046C483.349,152.718 483.1,153.227 482.6,153.572C482.101,153.917 481.389,154.09 480.465,154.09C479.821,154.09 479.317,154.036 478.953,153.929C478.589,153.822 478.342,153.74 478.211,153.684L478.449,152.564C478.599,152.62 478.837,152.704 479.163,152.816C479.49,152.928 479.924,152.984 480.465,152.984Z" style="fill:rgb(59,208,248);fill-rule:nonzero;"/>
            <path d="M486.233,146.642L488.991,146.642L488.991,147.734L486.233,147.734L486.233,151.094C486.233,151.458 486.261,151.759 486.317,151.997C486.373,152.235 486.457,152.422 486.569,152.557C486.681,152.692 486.821,152.788 486.989,152.844C487.157,152.9 487.353,152.928 487.577,152.928C487.969,152.928 488.284,152.884 488.522,152.795C488.76,152.706 488.926,152.643 489.019,152.606L489.271,153.684C489.141,153.749 488.912,153.831 488.585,153.929C488.259,154.027 487.885,154.076 487.465,154.076C486.971,154.076 486.562,154.013 486.24,153.887C485.918,153.761 485.659,153.572 485.463,153.32C485.267,153.068 485.13,152.758 485.05,152.389C484.971,152.02 484.931,151.593 484.931,151.108L484.931,144.612L486.233,144.388L486.233,146.642Z" style="fill:rgb(59,208,248);fill-rule:nonzero;"/>
            <path d="M496.869,150.282C496.869,150.861 496.785,151.383 496.617,151.85C496.449,152.317 496.214,152.718 495.91,153.054C495.607,153.39 495.245,153.649 494.825,153.831C494.405,154.013 493.948,154.104 493.453,154.104C492.959,154.104 492.501,154.013 492.081,153.831C491.661,153.649 491.3,153.39 490.996,153.054C490.693,152.718 490.457,152.317 490.289,151.85C490.121,151.383 490.037,150.861 490.037,150.282C490.037,149.713 490.121,149.192 490.289,148.721C490.457,148.25 490.693,147.846 490.996,147.51C491.3,147.174 491.661,146.915 492.081,146.733C492.501,146.551 492.959,146.46 493.453,146.46C493.948,146.46 494.405,146.551 494.825,146.733C495.245,146.915 495.607,147.174 495.91,147.51C496.214,147.846 496.449,148.25 496.617,148.721C496.785,149.192 496.869,149.713 496.869,150.282ZM495.511,150.282C495.511,149.461 495.327,148.81 494.958,148.329C494.59,147.848 494.088,147.608 493.453,147.608C492.819,147.608 492.317,147.848 491.948,148.329C491.58,148.81 491.395,149.461 491.395,150.282C491.395,151.103 491.58,151.754 491.948,152.235C492.317,152.716 492.819,152.956 493.453,152.956C494.088,152.956 494.59,152.716 494.958,152.235C495.327,151.754 495.511,151.103 495.511,150.282Z" style="fill:rgb(59,208,248);fill-rule:nonzero;"/>
            <path d="M501.391,146.488C501.503,146.488 501.632,146.495 501.776,146.509C501.921,146.523 502.063,146.542 502.203,146.565C502.343,146.588 502.472,146.612 502.588,146.635C502.705,146.658 502.791,146.679 502.847,146.698L502.623,147.832C502.521,147.795 502.35,147.75 502.112,147.699C501.874,147.648 501.569,147.622 501.195,147.622C500.953,147.622 500.712,147.648 500.474,147.699C500.236,147.75 500.08,147.785 500.005,147.804L500.005,153.922L498.703,153.922L498.703,146.95C499.011,146.838 499.394,146.733 499.851,146.635C500.309,146.537 500.822,146.488 501.391,146.488Z" style="fill:rgb(59,208,248);fill-rule:nonzero;"/>
            <path d="M503.701,150.296C503.701,149.652 503.795,149.09 503.981,148.609C504.168,148.128 504.415,147.729 504.723,147.412C505.031,147.095 505.386,146.857 505.787,146.698C506.189,146.539 506.599,146.46 507.019,146.46C507.999,146.46 508.751,146.766 509.273,147.377C509.796,147.988 510.057,148.919 510.057,150.17C510.057,150.226 510.057,150.298 510.057,150.387C510.057,150.476 510.053,150.557 510.043,150.632L505.059,150.632C505.115,151.388 505.335,151.962 505.717,152.354C506.1,152.746 506.697,152.942 507.509,152.942C507.967,152.942 508.352,152.902 508.664,152.823C508.977,152.744 509.213,152.667 509.371,152.592L509.553,153.684C509.395,153.768 509.117,153.857 508.72,153.95C508.324,154.043 507.873,154.09 507.369,154.09C506.735,154.09 506.186,153.994 505.724,153.803C505.262,153.612 504.882,153.348 504.583,153.012C504.285,152.676 504.063,152.277 503.918,151.815C503.774,151.353 503.701,150.847 503.701,150.296ZM508.699,149.582C508.709,148.994 508.562,148.511 508.258,148.133C507.955,147.755 507.537,147.566 507.005,147.566C506.707,147.566 506.443,147.624 506.214,147.741C505.986,147.858 505.792,148.009 505.633,148.196C505.475,148.383 505.351,148.597 505.262,148.84C505.174,149.083 505.115,149.33 505.087,149.582L508.699,149.582Z" style="fill:rgb(59,208,248);fill-rule:nonzero;"/>
        </g>
        <path d="M228.255,322.72C226.678,322.72 225.476,322.281 224.65,321.404C223.824,320.527 223.411,319.281 223.411,317.666C223.411,316.863 223.537,316.147 223.789,315.517C224.041,314.887 224.387,314.355 224.825,313.921C225.264,313.487 225.787,313.158 226.393,312.934C227,312.71 227.658,312.598 228.367,312.598C228.778,312.598 229.151,312.628 229.487,312.689C229.823,312.75 230.117,312.82 230.369,312.899C230.621,312.978 230.831,313.06 230.999,313.144C231.167,313.228 231.289,313.293 231.363,313.34L230.733,315.104C230.435,314.945 230.087,314.81 229.69,314.698C229.294,314.586 228.843,314.53 228.339,314.53C228.003,314.53 227.674,314.586 227.352,314.698C227.03,314.81 226.746,314.99 226.498,315.237C226.251,315.484 226.053,315.804 225.903,316.196C225.754,316.588 225.679,317.064 225.679,317.624C225.679,318.072 225.728,318.49 225.826,318.877C225.924,319.264 226.083,319.598 226.302,319.878C226.522,320.158 226.809,320.38 227.163,320.543C227.518,320.706 227.947,320.788 228.451,320.788C228.769,320.788 229.053,320.769 229.305,320.732C229.557,320.695 229.781,320.65 229.977,320.599C230.173,320.548 230.346,320.489 230.495,320.424C230.645,320.359 230.78,320.298 230.901,320.242L231.503,321.992C231.195,322.179 230.761,322.347 230.201,322.496C229.641,322.645 228.993,322.72 228.255,322.72Z" style="fill:white;fill-rule:nonzero;"/>
        <path d="M235.703,322.664C235.097,322.655 234.604,322.589 234.226,322.468C233.848,322.347 233.55,322.176 233.33,321.957C233.111,321.738 232.962,321.472 232.882,321.159C232.803,320.846 232.763,320.494 232.763,320.102L232.763,311.996L234.849,311.66L234.849,319.682C234.849,319.869 234.863,320.037 234.891,320.186C234.919,320.335 234.973,320.461 235.052,320.564C235.132,320.667 235.246,320.751 235.395,320.816C235.545,320.881 235.745,320.923 235.997,320.942L235.703,322.664Z" style="fill:white;fill-rule:nonzero;"/>
        <path d="M239.273,322.524L237.187,322.524L237.187,315.16L239.273,315.16L239.273,322.524ZM239.469,313.032C239.469,313.415 239.346,313.716 239.098,313.935C238.851,314.154 238.559,314.264 238.223,314.264C237.887,314.264 237.596,314.154 237.348,313.935C237.101,313.716 236.977,313.415 236.977,313.032C236.977,312.649 237.101,312.348 237.348,312.129C237.596,311.91 237.887,311.8 238.223,311.8C238.559,311.8 238.851,311.91 239.098,312.129C239.346,312.348 239.469,312.649 239.469,313.032Z" style="fill:white;fill-rule:nonzero;"/>
        <path d="M240.883,318.898C240.883,318.245 240.984,317.673 241.184,317.183C241.385,316.693 241.649,316.285 241.975,315.958C242.302,315.631 242.678,315.384 243.102,315.216C243.527,315.048 243.963,314.964 244.411,314.964C245.457,314.964 246.283,315.284 246.889,315.923C247.496,316.562 247.799,317.503 247.799,318.744C247.799,318.865 247.795,318.998 247.785,319.143C247.776,319.288 247.767,319.416 247.757,319.528L243.025,319.528C243.072,319.957 243.273,320.298 243.627,320.55C243.982,320.802 244.458,320.928 245.055,320.928C245.438,320.928 245.814,320.893 246.182,320.823C246.551,320.753 246.852,320.667 247.085,320.564L247.365,322.258C247.253,322.314 247.104,322.37 246.917,322.426C246.731,322.482 246.523,322.531 246.294,322.573C246.066,322.615 245.821,322.65 245.559,322.678C245.298,322.706 245.037,322.72 244.775,322.72C244.113,322.72 243.536,322.622 243.046,322.426C242.556,322.23 242.15,321.962 241.828,321.621C241.506,321.28 241.268,320.877 241.114,320.41C240.96,319.943 240.883,319.439 240.883,318.898ZM245.783,318.1C245.774,317.923 245.744,317.75 245.692,317.582C245.641,317.414 245.562,317.265 245.454,317.134C245.347,317.003 245.212,316.896 245.048,316.812C244.885,316.728 244.682,316.686 244.439,316.686C244.206,316.686 244.005,316.726 243.837,316.805C243.669,316.884 243.529,316.989 243.417,317.12C243.305,317.251 243.219,317.402 243.158,317.575C243.098,317.748 243.053,317.923 243.025,318.1L245.783,318.1Z" style="fill:white;fill-rule:nonzero;"/>
        <path d="M249.409,315.412C249.764,315.309 250.221,315.214 250.781,315.125C251.341,315.036 251.929,314.992 252.545,314.992C253.171,314.992 253.691,315.074 254.106,315.237C254.522,315.4 254.851,315.631 255.093,315.93C255.336,316.229 255.509,316.583 255.611,316.994C255.714,317.405 255.765,317.862 255.765,318.366L255.765,322.524L253.679,322.524L253.679,318.618C253.679,317.946 253.591,317.47 253.413,317.19C253.236,316.91 252.905,316.77 252.419,316.77C252.27,316.77 252.111,316.777 251.943,316.791C251.775,316.805 251.626,316.821 251.495,316.84L251.495,322.524L249.409,322.524L249.409,315.412Z" style="fill:white;fill-rule:nonzero;"/>
        <path d="M257.585,313.326L259.671,312.99L259.671,315.16L262.177,315.16L262.177,316.896L259.671,316.896L259.671,319.486C259.671,319.925 259.748,320.275 259.902,320.536C260.056,320.797 260.367,320.928 260.833,320.928C261.057,320.928 261.288,320.907 261.526,320.865C261.764,320.823 261.981,320.765 262.177,320.69L262.471,322.314C262.219,322.417 261.939,322.505 261.631,322.58C261.323,322.655 260.945,322.692 260.497,322.692C259.928,322.692 259.457,322.615 259.083,322.461C258.71,322.307 258.411,322.092 258.187,321.817C257.963,321.542 257.807,321.208 257.718,320.816C257.63,320.424 257.585,319.99 257.585,319.514L257.585,313.326Z" style="fill:white;fill-rule:nonzero;"/>
        <g>
            <g opacity="0.899994">
                <g>
                    <path d="M330.048,248.661C331.238,248.661 332.134,248.171 332.862,247.331L332.218,246.603C331.63,247.247 330.972,247.639 330.09,247.639C328.354,247.639 327.248,246.183 327.248,243.873C327.248,241.591 328.396,240.163 330.132,240.163C330.916,240.163 331.518,240.513 332.008,241.031L332.638,240.275C332.106,239.673 331.238,239.141 330.118,239.141C327.78,239.141 326.044,240.947 326.044,243.901C326.044,246.897 327.752,248.661 330.048,248.661Z" style="fill:rgb(46,52,58);fill-rule:nonzero;"/>
                    <path d="M337.404,248.661C339.07,248.661 340.554,247.359 340.554,245.105C340.554,242.823 339.07,241.521 337.404,241.521C335.738,241.521 334.254,242.823 334.254,245.105C334.254,247.359 335.738,248.661 337.404,248.661ZM337.404,247.709C336.242,247.709 335.444,246.659 335.444,245.105C335.444,243.537 336.242,242.473 337.404,242.473C338.58,242.473 339.364,243.537 339.364,245.105C339.364,246.659 338.58,247.709 337.404,247.709Z" style="fill:rgb(46,52,58);fill-rule:nonzero;"/>
                    <path d="M342.646,248.493L343.794,248.493L343.794,243.565C344.424,242.865 344.998,242.515 345.502,242.515C346.37,242.515 346.776,243.061 346.776,244.335L346.776,248.493L347.924,248.493L347.924,243.565C348.554,242.865 349.1,242.515 349.632,242.515C350.486,242.515 350.892,243.061 350.892,244.335L350.892,248.493L352.04,248.493L352.04,244.181C352.04,242.445 351.368,241.521 349.968,241.521C349.142,241.521 348.442,242.053 347.728,242.823C347.448,242.011 346.888,241.521 345.852,241.521C345.04,241.521 344.326,242.025 343.738,242.669L343.696,242.669L343.598,241.689L342.646,241.689L342.646,248.493Z" style="fill:rgb(46,52,58);fill-rule:nonzero;"/>
                    <path d="M354.552,248.493L355.7,248.493L355.7,243.565C356.33,242.865 356.904,242.515 357.408,242.515C358.276,242.515 358.682,243.061 358.682,244.335L358.682,248.493L359.83,248.493L359.83,243.565C360.46,242.865 361.006,242.515 361.538,242.515C362.392,242.515 362.798,243.061 362.798,244.335L362.798,248.493L363.946,248.493L363.946,244.181C363.946,242.445 363.274,241.521 361.874,241.521C361.048,241.521 360.348,242.053 359.634,242.823C359.354,242.011 358.794,241.521 357.758,241.521C356.946,241.521 356.232,242.025 355.644,242.669L355.602,242.669L355.504,241.689L354.552,241.689L354.552,248.493Z" style="fill:rgb(46,52,58);fill-rule:nonzero;"/>
                    <path d="M368.026,248.661C368.88,248.661 369.636,248.213 370.28,247.681L370.322,247.681L370.42,248.493L371.372,248.493L371.372,244.321C371.372,242.627 370.672,241.521 369.006,241.521C367.914,241.521 366.962,241.997 366.332,242.403L366.78,243.201C367.312,242.837 368.026,242.473 368.81,242.473C369.93,242.473 370.21,243.313 370.21,244.181C367.312,244.503 366.038,245.245 366.038,246.729C366.038,247.947 366.892,248.661 368.026,248.661ZM368.362,247.737C367.69,247.737 367.158,247.415 367.158,246.645C367.158,245.777 367.942,245.217 370.21,244.937L370.21,246.827C369.552,247.415 369.02,247.737 368.362,247.737Z" style="fill:rgb(46,52,58);fill-rule:nonzero;"/>
                    <path d="M373.714,248.493L374.862,248.493L374.862,243.565C375.548,242.879 376.024,242.515 376.724,242.515C377.62,242.515 378.012,243.061 378.012,244.335L378.012,248.493L379.16,248.493L379.16,244.181C379.16,242.445 378.516,241.521 377.088,241.521C376.15,241.521 375.45,242.025 374.806,242.669L374.764,242.669L374.666,241.689L373.714,241.689L373.714,248.493Z" style="fill:rgb(46,52,58);fill-rule:nonzero;"/>
                    <path d="M383.996,248.661C384.794,248.661 385.522,248.213 386.054,247.695L386.096,247.695L386.194,248.493L387.146,248.493L387.146,238.525L385.984,238.525L385.984,241.143L386.04,242.305C385.438,241.815 384.92,241.521 384.136,241.521C382.582,241.521 381.182,242.893 381.182,245.105C381.182,247.373 382.288,248.661 383.996,248.661ZM384.248,247.695C383.058,247.695 382.372,246.715 382.372,245.091C382.372,243.537 383.24,242.487 384.332,242.487C384.892,242.487 385.41,242.683 385.984,243.201L385.984,246.757C385.424,247.387 384.878,247.695 384.248,247.695Z" style="fill:rgb(46,52,58);fill-rule:nonzero;"/>
                    <path d="M391.52,248.661C393.13,248.661 394.012,247.737 394.012,246.631C394.012,245.343 392.92,244.937 391.94,244.573C391.17,244.279 390.428,244.041 390.428,243.397C390.428,242.879 390.82,242.417 391.674,242.417C392.276,242.417 392.766,242.669 393.228,243.019L393.774,242.291C393.256,241.871 392.514,241.521 391.66,241.521C390.19,241.521 389.322,242.361 389.322,243.453C389.322,244.601 390.386,245.063 391.352,245.413C392.094,245.693 392.906,246.001 392.906,246.701C392.906,247.289 392.458,247.765 391.562,247.765C390.75,247.765 390.148,247.429 389.56,246.953L388.986,247.723C389.63,248.255 390.554,248.661 391.52,248.661Z" style="fill:rgb(46,52,58);fill-rule:nonzero;"/>
                </g>
            </g>
        </g>
        <g>
            <g opacity="0.5">
                <g>
                    <path d="M354.824,295.709C353.186,295.709 352.108,294.225 352.108,291.873C352.108,289.591 353.186,288.177 354.824,288.177C356.462,288.177 357.54,289.591 357.54,291.873C357.54,294.225 356.462,295.709 354.824,295.709ZM357.638,298.817C358.184,298.817 358.674,298.719 358.954,298.607L358.73,297.711C358.478,297.781 358.17,297.837 357.764,297.837C356.77,297.837 355.93,297.431 355.51,296.619C357.456,296.283 358.758,294.519 358.758,291.873C358.758,288.947 357.134,287.155 354.824,287.155C352.514,287.155 350.904,288.933 350.904,291.873C350.904,294.575 352.248,296.353 354.25,296.633C354.782,297.893 355.944,298.817 357.638,298.817Z" style="fill:rgb(46,52,58);fill-rule:nonzero;"/>
                    <path d="M362.908,296.675C363.846,296.675 364.518,296.185 365.148,295.443L365.19,295.443L365.288,296.507L366.24,296.507L366.24,289.703L365.092,289.703L365.092,294.533C364.448,295.331 363.958,295.681 363.258,295.681C362.362,295.681 361.984,295.135 361.984,293.861L361.984,289.703L360.822,289.703L360.822,294.015C360.822,295.751 361.466,296.675 362.908,296.675Z" style="fill:rgb(46,52,58);fill-rule:nonzero;"/>
                    <path d="M371.594,296.675C372.518,296.675 373.246,296.353 373.834,295.975L373.428,295.219C372.924,295.541 372.378,295.751 371.734,295.751C370.432,295.751 369.55,294.827 369.466,293.385L374.058,293.385C374.086,293.217 374.1,292.965 374.1,292.727C374.1,290.781 373.12,289.535 371.384,289.535C369.83,289.535 368.332,290.893 368.332,293.119C368.332,295.345 369.774,296.675 371.594,296.675ZM369.452,292.559C369.592,291.215 370.46,290.445 371.412,290.445C372.476,290.445 373.092,291.187 373.092,292.559L369.452,292.559Z" style="fill:rgb(46,52,58);fill-rule:nonzero;"/>
                    <path d="M376.08,296.507L377.228,296.507L377.228,292.139C377.69,290.991 378.376,290.571 378.95,290.571C379.23,290.571 379.384,290.613 379.608,290.683L379.832,289.675C379.608,289.577 379.398,289.535 379.104,289.535C378.334,289.535 377.634,290.081 377.172,290.935L377.13,290.935L377.032,289.703L376.08,289.703L376.08,296.507Z" style="fill:rgb(46,52,58);fill-rule:nonzero;"/>
                    <path d="M381.238,296.507L382.386,296.507L382.386,289.703L381.238,289.703L381.238,296.507ZM381.826,288.303C382.274,288.303 382.624,287.995 382.624,287.561C382.624,287.113 382.274,286.819 381.826,286.819C381.378,286.819 381.028,287.113 381.028,287.561C381.028,287.995 381.378,288.303 381.826,288.303Z" style="fill:rgb(46,52,58);fill-rule:nonzero;"/>
                    <path d="M387.64,296.675C388.564,296.675 389.292,296.353 389.88,295.975L389.474,295.219C388.97,295.541 388.424,295.751 387.78,295.751C386.478,295.751 385.596,294.827 385.512,293.385L390.104,293.385C390.132,293.217 390.146,292.965 390.146,292.727C390.146,290.781 389.166,289.535 387.43,289.535C385.876,289.535 384.378,290.893 384.378,293.119C384.378,295.345 385.82,296.675 387.64,296.675ZM385.498,292.559C385.638,291.215 386.506,290.445 387.458,290.445C388.522,290.445 389.138,291.187 389.138,292.559L385.498,292.559Z" style="fill:rgb(46,52,58);fill-rule:nonzero;"/>
                    <path d="M393.904,296.675C395.514,296.675 396.396,295.751 396.396,294.645C396.396,293.357 395.304,292.951 394.324,292.587C393.554,292.293 392.812,292.055 392.812,291.411C392.812,290.893 393.204,290.431 394.058,290.431C394.66,290.431 395.15,290.683 395.612,291.033L396.158,290.305C395.64,289.885 394.898,289.535 394.044,289.535C392.574,289.535 391.706,290.375 391.706,291.467C391.706,292.615 392.77,293.077 393.736,293.427C394.478,293.707 395.29,294.015 395.29,294.715C395.29,295.303 394.842,295.779 393.946,295.779C393.134,295.779 392.532,295.443 391.944,294.967L391.37,295.737C392.014,296.269 392.938,296.675 393.904,296.675Z" style="fill:rgb(46,52,58);fill-rule:nonzero;"/>
                </g>
            </g>
        </g>
        <g>
            <path d="M670.289,236.634C669.607,236.634 668.987,236.522 668.427,236.298C667.867,236.074 667.386,235.747 666.985,235.318C666.583,234.888 666.273,234.359 666.054,233.729C665.834,233.099 665.725,232.378 665.725,231.566C665.725,230.754 665.848,230.033 666.096,229.403C666.343,228.773 666.677,228.243 667.097,227.814C667.517,227.384 668.007,227.058 668.567,226.834C669.127,226.61 669.724,226.498 670.359,226.498C670.76,226.498 671.122,226.526 671.444,226.582C671.766,226.638 672.046,226.703 672.284,226.778C672.522,226.852 672.715,226.927 672.865,227.002C673.014,227.076 673.117,227.132 673.173,227.17L672.781,228.29C672.697,228.234 672.575,228.173 672.417,228.108C672.258,228.042 672.078,227.977 671.878,227.912C671.677,227.846 671.458,227.793 671.22,227.751C670.982,227.709 670.741,227.688 670.499,227.688C669.985,227.688 669.523,227.776 669.113,227.954C668.702,228.131 668.352,228.388 668.063,228.724C667.773,229.06 667.552,229.468 667.398,229.949C667.244,230.429 667.167,230.968 667.167,231.566C667.167,232.144 667.234,232.672 667.37,233.148C667.505,233.624 667.708,234.032 667.979,234.373C668.249,234.713 668.588,234.977 668.994,235.164C669.4,235.35 669.873,235.444 670.415,235.444C671.04,235.444 671.558,235.378 671.969,235.248C672.379,235.117 672.687,235 672.893,234.898L673.243,236.018C673.177,236.064 673.061,236.123 672.893,236.193C672.725,236.263 672.515,236.33 672.263,236.396C672.011,236.461 671.717,236.517 671.381,236.564C671.045,236.61 670.681,236.634 670.289,236.634Z" style="fill:rgb(59,208,248);fill-rule:nonzero;"/>
            <path d="M680.939,232.784C680.939,233.362 680.855,233.885 680.687,234.352C680.519,234.818 680.283,235.22 679.98,235.556C679.676,235.892 679.315,236.151 678.895,236.333C678.475,236.515 678.017,236.606 677.523,236.606C677.028,236.606 676.571,236.515 676.151,236.333C675.731,236.151 675.369,235.892 675.066,235.556C674.762,235.22 674.527,234.818 674.359,234.352C674.191,233.885 674.107,233.362 674.107,232.784C674.107,232.214 674.191,231.694 674.359,231.223C674.527,230.751 674.762,230.348 675.066,230.012C675.369,229.676 675.731,229.417 676.151,229.235C676.571,229.053 677.028,228.962 677.523,228.962C678.017,228.962 678.475,229.053 678.895,229.235C679.315,229.417 679.676,229.676 679.98,230.012C680.283,230.348 680.519,230.751 680.687,231.223C680.855,231.694 680.939,232.214 680.939,232.784ZM679.581,232.784C679.581,231.962 679.396,231.311 679.028,230.831C678.659,230.35 678.157,230.11 677.523,230.11C676.888,230.11 676.386,230.35 676.018,230.831C675.649,231.311 675.465,231.962 675.465,232.784C675.465,233.605 675.649,234.256 676.018,234.737C676.386,235.217 676.888,235.458 677.523,235.458C678.157,235.458 678.659,235.217 679.028,234.737C679.396,234.256 679.581,233.605 679.581,232.784Z" style="fill:rgb(59,208,248);fill-rule:nonzero;"/>
            <path d="M682.773,229.354C683.071,229.279 683.466,229.2 683.956,229.116C684.446,229.032 685.013,228.99 685.657,228.99C686.123,228.99 686.515,229.053 686.833,229.179C687.15,229.305 687.416,229.489 687.631,229.732C687.696,229.685 687.799,229.62 687.939,229.536C688.079,229.452 688.251,229.37 688.457,229.291C688.662,229.211 688.891,229.141 689.143,229.081C689.395,229.02 689.665,228.99 689.955,228.99C690.515,228.99 690.972,229.071 691.327,229.235C691.681,229.398 691.959,229.629 692.16,229.928C692.36,230.226 692.496,230.581 692.566,230.992C692.636,231.402 692.671,231.85 692.671,232.336L692.671,236.424L691.369,236.424L691.369,232.616C691.369,232.186 691.348,231.818 691.306,231.51C691.264,231.202 691.184,230.945 691.068,230.74C690.951,230.534 690.792,230.383 690.592,230.285C690.391,230.187 690.132,230.138 689.815,230.138C689.376,230.138 689.014,230.196 688.73,230.313C688.445,230.429 688.251,230.534 688.149,230.628C688.223,230.87 688.279,231.136 688.317,231.426C688.354,231.715 688.373,232.018 688.373,232.336L688.373,236.424L687.071,236.424L687.071,232.616C687.071,232.186 687.047,231.818 687.001,231.51C686.954,231.202 686.872,230.945 686.756,230.74C686.639,230.534 686.48,230.383 686.28,230.285C686.079,230.187 685.825,230.138 685.517,230.138C685.386,230.138 685.246,230.142 685.097,230.152C684.947,230.161 684.805,230.173 684.67,230.187C684.534,230.201 684.411,230.217 684.299,230.236C684.187,230.254 684.112,230.268 684.075,230.278L684.075,236.424L682.773,236.424L682.773,229.354Z" style="fill:rgb(59,208,248);fill-rule:nonzero;"/>
            <path d="M694.827,229.354C695.125,229.279 695.52,229.2 696.01,229.116C696.5,229.032 697.067,228.99 697.711,228.99C698.177,228.99 698.569,229.053 698.887,229.179C699.204,229.305 699.47,229.489 699.685,229.732C699.75,229.685 699.853,229.62 699.993,229.536C700.133,229.452 700.305,229.37 700.511,229.291C700.716,229.211 700.945,229.141 701.197,229.081C701.449,229.02 701.719,228.99 702.009,228.99C702.569,228.99 703.026,229.071 703.381,229.235C703.735,229.398 704.013,229.629 704.214,229.928C704.414,230.226 704.55,230.581 704.62,230.992C704.69,231.402 704.725,231.85 704.725,232.336L704.725,236.424L703.423,236.424L703.423,232.616C703.423,232.186 703.402,231.818 703.36,231.51C703.318,231.202 703.238,230.945 703.122,230.74C703.005,230.534 702.846,230.383 702.646,230.285C702.445,230.187 702.186,230.138 701.869,230.138C701.43,230.138 701.068,230.196 700.784,230.313C700.499,230.429 700.305,230.534 700.203,230.628C700.277,230.87 700.333,231.136 700.371,231.426C700.408,231.715 700.427,232.018 700.427,232.336L700.427,236.424L699.125,236.424L699.125,232.616C699.125,232.186 699.101,231.818 699.055,231.51C699.008,231.202 698.926,230.945 698.81,230.74C698.693,230.534 698.534,230.383 698.334,230.285C698.133,230.187 697.879,230.138 697.571,230.138C697.44,230.138 697.3,230.142 697.151,230.152C697.001,230.161 696.859,230.173 696.724,230.187C696.588,230.201 696.465,230.217 696.353,230.236C696.241,230.254 696.166,230.268 696.129,230.278L696.129,236.424L694.827,236.424L694.827,229.354Z" style="fill:rgb(59,208,248);fill-rule:nonzero;"/>
            <path d="M709.345,235.486C709.653,235.486 709.926,235.479 710.164,235.465C710.402,235.451 710.6,235.425 710.759,235.388L710.759,233.218C710.665,233.171 710.514,233.131 710.304,233.099C710.094,233.066 709.839,233.05 709.541,233.05C709.345,233.05 709.137,233.064 708.918,233.092C708.698,233.12 708.498,233.178 708.316,233.267C708.134,233.355 707.982,233.477 707.861,233.631C707.739,233.785 707.679,233.988 707.679,234.24C707.679,234.706 707.828,235.031 708.127,235.213C708.425,235.395 708.831,235.486 709.345,235.486ZM709.233,228.962C709.755,228.962 710.196,229.029 710.556,229.165C710.915,229.3 711.204,229.491 711.424,229.739C711.643,229.986 711.799,230.28 711.893,230.621C711.986,230.961 712.033,231.337 712.033,231.748L712.033,236.298C711.921,236.316 711.764,236.342 711.564,236.375C711.363,236.407 711.137,236.438 710.885,236.466C710.633,236.494 710.36,236.519 710.066,236.543C709.772,236.566 709.48,236.578 709.191,236.578C708.78,236.578 708.402,236.536 708.057,236.452C707.711,236.368 707.413,236.235 707.161,236.053C706.909,235.871 706.713,235.63 706.573,235.332C706.433,235.033 706.363,234.674 706.363,234.254C706.363,233.852 706.444,233.507 706.608,233.218C706.771,232.928 706.993,232.695 707.273,232.518C707.553,232.34 707.879,232.21 708.253,232.126C708.626,232.042 709.018,232 709.429,232C709.559,232 709.695,232.007 709.835,232.021C709.975,232.035 710.108,232.053 710.234,232.077C710.36,232.1 710.469,232.121 710.563,232.14C710.656,232.158 710.721,232.172 710.759,232.182L710.759,231.818C710.759,231.603 710.735,231.391 710.689,231.181C710.642,230.971 710.558,230.784 710.437,230.621C710.315,230.457 710.15,230.327 709.94,230.229C709.73,230.131 709.457,230.082 709.121,230.082C708.691,230.082 708.316,230.112 707.994,230.173C707.672,230.233 707.431,230.296 707.273,230.362L707.119,229.284C707.287,229.209 707.567,229.137 707.959,229.067C708.351,228.997 708.775,228.962 709.233,228.962Z" style="fill:rgb(59,208,248);fill-rule:nonzero;"/>
            <path d="M714.189,229.354C714.487,229.279 714.884,229.2 715.379,229.116C715.873,229.032 716.443,228.99 717.087,228.99C717.665,228.99 718.146,229.071 718.529,229.235C718.911,229.398 719.217,229.627 719.446,229.921C719.674,230.215 719.835,230.567 719.929,230.978C720.022,231.388 720.069,231.841 720.069,232.336L720.069,236.424L718.767,236.424L718.767,232.616C718.767,232.168 718.736,231.785 718.676,231.468C718.615,231.15 718.515,230.894 718.375,230.698C718.235,230.502 718.048,230.359 717.815,230.271C717.581,230.182 717.292,230.138 716.947,230.138C716.807,230.138 716.662,230.142 716.513,230.152C716.363,230.161 716.221,230.173 716.086,230.187C715.95,230.201 715.829,230.217 715.722,230.236C715.614,230.254 715.537,230.268 715.491,230.278L715.491,236.424L714.189,236.424L714.189,229.354Z" style="fill:rgb(59,208,248);fill-rule:nonzero;"/>
            <path d="M726.929,230.684C726.77,230.553 726.541,230.427 726.243,230.306C725.944,230.184 725.617,230.124 725.263,230.124C724.889,230.124 724.57,230.191 724.304,230.327C724.038,230.462 723.821,230.649 723.653,230.887C723.485,231.125 723.363,231.407 723.289,231.734C723.214,232.06 723.177,232.41 723.177,232.784C723.177,233.633 723.387,234.289 723.807,234.751C724.227,235.213 724.787,235.444 725.487,235.444C725.841,235.444 726.138,235.427 726.376,235.395C726.614,235.362 726.798,235.327 726.929,235.29L726.929,230.684ZM726.929,225.784L728.231,225.56L728.231,236.214C727.932,236.298 727.549,236.382 727.083,236.466C726.616,236.55 726.079,236.592 725.473,236.592C724.913,236.592 724.409,236.503 723.961,236.326C723.513,236.148 723.13,235.896 722.813,235.57C722.495,235.243 722.25,234.844 722.078,234.373C721.905,233.901 721.819,233.372 721.819,232.784C721.819,232.224 721.891,231.71 722.036,231.244C722.18,230.777 722.393,230.376 722.673,230.04C722.953,229.704 723.296,229.442 723.702,229.256C724.108,229.069 724.572,228.976 725.095,228.976C725.515,228.976 725.886,229.032 726.208,229.144C726.53,229.256 726.77,229.363 726.929,229.466L726.929,225.784Z" style="fill:rgb(59,208,248);fill-rule:nonzero;"/>
            <path d="M735.007,229.466C735.165,229.363 735.406,229.256 735.728,229.144C736.05,229.032 736.421,228.976 736.841,228.976C737.363,228.976 737.828,229.069 738.234,229.256C738.64,229.442 738.983,229.704 739.263,230.04C739.543,230.376 739.755,230.777 739.9,231.244C740.044,231.71 740.117,232.224 740.117,232.784C740.117,233.372 740.03,233.901 739.858,234.373C739.685,234.844 739.44,235.243 739.123,235.57C738.805,235.896 738.423,236.148 737.975,236.326C737.527,236.503 737.023,236.592 736.463,236.592C735.856,236.592 735.319,236.55 734.853,236.466C734.386,236.382 734.003,236.298 733.705,236.214L733.705,225.784L735.007,225.56L735.007,229.466ZM735.007,235.29C735.137,235.327 735.322,235.362 735.56,235.395C735.798,235.427 736.094,235.444 736.449,235.444C737.149,235.444 737.709,235.213 738.129,234.751C738.549,234.289 738.759,233.633 738.759,232.784C738.759,232.41 738.721,232.06 738.647,231.734C738.572,231.407 738.451,231.125 738.283,230.887C738.115,230.649 737.898,230.462 737.632,230.327C737.366,230.191 737.046,230.124 736.673,230.124C736.318,230.124 735.991,230.184 735.693,230.306C735.394,230.427 735.165,230.553 735.007,230.684L735.007,235.29Z" style="fill:rgb(59,208,248);fill-rule:nonzero;"/>
            <path d="M747.747,236.214C747.448,236.288 747.054,236.368 746.564,236.452C746.074,236.536 745.507,236.578 744.863,236.578C744.303,236.578 743.831,236.496 743.449,236.333C743.066,236.169 742.758,235.938 742.525,235.64C742.291,235.341 742.123,234.989 742.021,234.583C741.918,234.177 741.867,233.726 741.867,233.232L741.867,229.144L743.169,229.144L743.169,232.952C743.169,233.838 743.309,234.473 743.589,234.856C743.869,235.238 744.34,235.43 745.003,235.43C745.143,235.43 745.287,235.425 745.437,235.416C745.586,235.406 745.726,235.395 745.857,235.381C745.987,235.367 746.106,235.353 746.214,235.339C746.321,235.325 746.398,235.308 746.445,235.29L746.445,229.144L747.747,229.144L747.747,236.214Z" style="fill:rgb(59,208,248);fill-rule:nonzero;"/>
            <path d="M751.681,235.486C752.213,235.486 752.607,235.416 752.864,235.276C753.12,235.136 753.249,234.912 753.249,234.604C753.249,234.286 753.123,234.034 752.871,233.848C752.619,233.661 752.203,233.451 751.625,233.218C751.345,233.106 751.076,232.991 750.82,232.875C750.563,232.758 750.341,232.62 750.155,232.462C749.968,232.303 749.819,232.112 749.707,231.888C749.595,231.664 749.539,231.388 749.539,231.062C749.539,230.418 749.777,229.907 750.253,229.529C750.729,229.151 751.377,228.962 752.199,228.962C752.404,228.962 752.609,228.973 752.815,228.997C753.02,229.02 753.211,229.048 753.389,229.081C753.566,229.113 753.722,229.148 753.858,229.186C753.993,229.223 754.098,229.256 754.173,229.284L753.935,230.404C753.795,230.329 753.575,230.252 753.277,230.173C752.978,230.093 752.619,230.054 752.199,230.054C751.835,230.054 751.517,230.126 751.247,230.271C750.976,230.415 750.841,230.642 750.841,230.95C750.841,231.108 750.871,231.248 750.932,231.37C750.992,231.491 751.086,231.601 751.212,231.699C751.338,231.797 751.494,231.888 751.681,231.972C751.867,232.056 752.091,232.144 752.353,232.238C752.698,232.368 753.006,232.497 753.277,232.623C753.547,232.749 753.778,232.896 753.97,233.064C754.161,233.232 754.308,233.435 754.411,233.673C754.513,233.911 754.565,234.202 754.565,234.548C754.565,235.22 754.315,235.728 753.816,236.074C753.316,236.419 752.605,236.592 751.681,236.592C751.037,236.592 750.533,236.538 750.169,236.431C749.805,236.323 749.557,236.242 749.427,236.186L749.665,235.066C749.814,235.122 750.052,235.206 750.379,235.318C750.705,235.43 751.139,235.486 751.681,235.486Z" style="fill:rgb(59,208,248);fill-rule:nonzero;"/>
        </g>
        <g>
            <path d="M682.343,361.43L682.343,351.728L688.265,351.728L688.265,352.89L683.701,352.89L683.701,355.774L687.761,355.774L687.761,356.908L683.701,356.908L683.701,360.268L688.615,360.268L688.615,361.43L682.343,361.43Z" style="fill:rgb(59,208,248);fill-rule:nonzero;"/>
            <path d="M695.587,354.15C695.223,355.512 694.796,356.819 694.306,358.07C693.816,359.32 693.342,360.44 692.885,361.43L691.709,361.43C691.251,360.44 690.778,359.32 690.288,358.07C689.798,356.819 689.371,355.512 689.007,354.15L690.407,354.15C690.519,354.607 690.652,355.095 690.806,355.613C690.96,356.131 691.123,356.644 691.296,357.153C691.468,357.661 691.643,358.154 691.821,358.63C691.998,359.106 692.166,359.53 692.325,359.904C692.483,359.53 692.651,359.106 692.829,358.63C693.006,358.154 693.181,357.661 693.354,357.153C693.526,356.644 693.69,356.131 693.844,355.613C693.998,355.095 694.131,354.607 694.243,354.15L695.587,354.15Z" style="fill:rgb(59,208,248);fill-rule:nonzero;"/>
            <path d="M696.325,357.804C696.325,357.16 696.418,356.597 696.605,356.117C696.791,355.636 697.039,355.237 697.347,354.92C697.655,354.602 698.009,354.364 698.411,354.206C698.812,354.047 699.223,353.968 699.643,353.968C700.623,353.968 701.374,354.273 701.897,354.885C702.419,355.496 702.681,356.427 702.681,357.678C702.681,357.734 702.681,357.806 702.681,357.895C702.681,357.983 702.676,358.065 702.667,358.14L697.683,358.14C697.739,358.896 697.958,359.47 698.341,359.862C698.723,360.254 699.321,360.45 700.133,360.45C700.59,360.45 700.975,360.41 701.288,360.331C701.6,360.251 701.836,360.174 701.995,360.1L702.177,361.192C702.018,361.276 701.74,361.364 701.344,361.458C700.947,361.551 700.497,361.598 699.993,361.598C699.358,361.598 698.81,361.502 698.348,361.311C697.886,361.119 697.505,360.856 697.207,360.52C696.908,360.184 696.686,359.785 696.542,359.323C696.397,358.861 696.325,358.354 696.325,357.804ZM701.323,357.09C701.332,356.502 701.185,356.019 700.882,355.641C700.578,355.263 700.161,355.074 699.629,355.074C699.33,355.074 699.066,355.132 698.838,355.249C698.609,355.365 698.415,355.517 698.257,355.704C698.098,355.89 697.974,356.105 697.886,356.348C697.797,356.59 697.739,356.838 697.711,357.09L701.323,357.09Z" style="fill:rgb(59,208,248);fill-rule:nonzero;"/>
            <path d="M704.557,354.36C704.855,354.285 705.252,354.206 705.747,354.122C706.241,354.038 706.811,353.996 707.455,353.996C708.033,353.996 708.514,354.077 708.897,354.241C709.279,354.404 709.585,354.633 709.814,354.927C710.042,355.221 710.203,355.573 710.297,355.984C710.39,356.394 710.437,356.847 710.437,357.342L710.437,361.43L709.135,361.43L709.135,357.622C709.135,357.174 709.104,356.791 709.044,356.474C708.983,356.156 708.883,355.9 708.743,355.704C708.603,355.508 708.416,355.365 708.183,355.277C707.949,355.188 707.66,355.144 707.315,355.144C707.175,355.144 707.03,355.148 706.881,355.158C706.731,355.167 706.589,355.179 706.454,355.193C706.318,355.207 706.197,355.223 706.09,355.242C705.982,355.26 705.905,355.274 705.859,355.284L705.859,361.43L704.557,361.43L704.557,354.36Z" style="fill:rgb(59,208,248);fill-rule:nonzero;"/>
            <path d="M713.811,354.15L716.569,354.15L716.569,355.242L713.811,355.242L713.811,358.602C713.811,358.966 713.839,359.267 713.895,359.505C713.951,359.743 714.035,359.929 714.147,360.065C714.259,360.2 714.399,360.296 714.567,360.352C714.735,360.408 714.931,360.436 715.155,360.436C715.547,360.436 715.862,360.391 716.1,360.303C716.338,360.214 716.503,360.151 716.597,360.114L716.849,361.192C716.718,361.257 716.489,361.339 716.163,361.437C715.836,361.535 715.463,361.584 715.043,361.584C714.548,361.584 714.14,361.521 713.818,361.395C713.496,361.269 713.237,361.08 713.041,360.828C712.845,360.576 712.707,360.265 712.628,359.897C712.548,359.528 712.509,359.101 712.509,358.616L712.509,352.12L713.811,351.896L713.811,354.15Z" style="fill:rgb(59,208,248);fill-rule:nonzero;"/>
            <path d="M722.757,354.472C722.915,354.369 723.156,354.262 723.478,354.15C723.8,354.038 724.171,353.982 724.591,353.982C725.113,353.982 725.578,354.075 725.984,354.262C726.39,354.448 726.733,354.71 727.013,355.046C727.293,355.382 727.505,355.783 727.65,356.25C727.794,356.716 727.867,357.23 727.867,357.79C727.867,358.378 727.78,358.907 727.608,359.379C727.435,359.85 727.19,360.249 726.873,360.576C726.555,360.902 726.173,361.154 725.725,361.332C725.277,361.509 724.773,361.598 724.213,361.598C723.606,361.598 723.069,361.556 722.603,361.472C722.136,361.388 721.753,361.304 721.455,361.22L721.455,350.79L722.757,350.566L722.757,354.472ZM722.757,360.296C722.887,360.333 723.072,360.368 723.31,360.401C723.548,360.433 723.844,360.45 724.199,360.45C724.899,360.45 725.459,360.219 725.879,359.757C726.299,359.295 726.509,358.639 726.509,357.79C726.509,357.416 726.471,357.066 726.397,356.74C726.322,356.413 726.201,356.131 726.033,355.893C725.865,355.655 725.648,355.468 725.382,355.333C725.116,355.197 724.796,355.13 724.423,355.13C724.068,355.13 723.741,355.19 723.443,355.312C723.144,355.433 722.915,355.559 722.757,355.69L722.757,360.296Z" style="fill:rgb(59,208,248);fill-rule:nonzero;"/>
            <path d="M735.497,361.22C735.198,361.294 734.804,361.374 734.314,361.458C733.824,361.542 733.257,361.584 732.613,361.584C732.053,361.584 731.581,361.502 731.199,361.339C730.816,361.175 730.508,360.944 730.275,360.646C730.041,360.347 729.873,359.995 729.771,359.589C729.668,359.183 729.617,358.732 729.617,358.238L729.617,354.15L730.919,354.15L730.919,357.958C730.919,358.844 731.059,359.479 731.339,359.862C731.619,360.244 732.09,360.436 732.753,360.436C732.893,360.436 733.037,360.431 733.187,360.422C733.336,360.412 733.476,360.401 733.607,360.387C733.737,360.373 733.856,360.359 733.964,360.345C734.071,360.331 734.148,360.314 734.195,360.296L734.195,354.15L735.497,354.15L735.497,361.22Z" style="fill:rgb(59,208,248);fill-rule:nonzero;"/>
            <path d="M739.431,360.492C739.963,360.492 740.357,360.422 740.614,360.282C740.87,360.142 740.999,359.918 740.999,359.61C740.999,359.292 740.873,359.04 740.621,358.854C740.369,358.667 739.953,358.457 739.375,358.224C739.095,358.112 738.826,357.997 738.57,357.881C738.313,357.764 738.091,357.626 737.905,357.468C737.718,357.309 737.569,357.118 737.457,356.894C737.345,356.67 737.289,356.394 737.289,356.068C737.289,355.424 737.527,354.913 738.003,354.535C738.479,354.157 739.127,353.968 739.949,353.968C740.154,353.968 740.359,353.979 740.565,354.003C740.77,354.026 740.961,354.054 741.139,354.087C741.316,354.119 741.472,354.154 741.608,354.192C741.743,354.229 741.848,354.262 741.923,354.29L741.685,355.41C741.545,355.335 741.325,355.258 741.027,355.179C740.728,355.099 740.369,355.06 739.949,355.06C739.585,355.06 739.267,355.132 738.997,355.277C738.726,355.421 738.591,355.648 738.591,355.956C738.591,356.114 738.621,356.254 738.682,356.376C738.742,356.497 738.836,356.607 738.962,356.705C739.088,356.803 739.244,356.894 739.431,356.978C739.617,357.062 739.841,357.15 740.103,357.244C740.448,357.374 740.756,357.503 741.027,357.629C741.297,357.755 741.528,357.902 741.72,358.07C741.911,358.238 742.058,358.441 742.161,358.679C742.263,358.917 742.315,359.208 742.315,359.554C742.315,360.226 742.065,360.734 741.566,361.08C741.066,361.425 740.355,361.598 739.431,361.598C738.787,361.598 738.283,361.544 737.919,361.437C737.555,361.329 737.307,361.248 737.177,361.192L737.415,360.072C737.564,360.128 737.802,360.212 738.129,360.324C738.455,360.436 738.889,360.492 739.431,360.492Z" style="fill:rgb(59,208,248);fill-rule:nonzero;"/>
        </g>
        <g>
            <path d="M931.404,322.654C929.827,322.654 928.625,322.215 927.799,321.338C926.973,320.461 926.56,319.215 926.56,317.6C926.56,316.797 926.686,316.081 926.938,315.451C927.19,314.821 927.536,314.289 927.974,313.855C928.413,313.421 928.936,313.092 929.542,312.868C930.149,312.644 930.807,312.532 931.516,312.532C931.927,312.532 932.3,312.562 932.636,312.623C932.972,312.684 933.266,312.754 933.518,312.833C933.77,312.912 933.98,312.994 934.148,313.078C934.316,313.162 934.438,313.227 934.512,313.274L933.882,315.038C933.584,314.879 933.236,314.744 932.839,314.632C932.443,314.52 931.992,314.464 931.488,314.464C931.152,314.464 930.823,314.52 930.501,314.632C930.179,314.744 929.895,314.924 929.647,315.171C929.4,315.418 929.202,315.738 929.052,316.13C928.903,316.522 928.828,316.998 928.828,317.558C928.828,318.006 928.877,318.424 928.975,318.811C929.073,319.198 929.232,319.532 929.451,319.812C929.671,320.092 929.958,320.314 930.312,320.477C930.667,320.64 931.096,320.722 931.6,320.722C931.918,320.722 932.202,320.703 932.454,320.666C932.706,320.629 932.93,320.584 933.126,320.533C933.322,320.482 933.495,320.423 933.644,320.358C933.794,320.293 933.929,320.232 934.05,320.176L934.652,321.926C934.344,322.113 933.91,322.281 933.35,322.43C932.79,322.579 932.142,322.654 931.404,322.654Z" style="fill:white;fill-rule:nonzero;"/>
            <path d="M942.632,318.762C942.632,319.341 942.548,319.87 942.38,320.351C942.212,320.832 941.97,321.242 941.652,321.583C941.335,321.924 940.955,322.187 940.511,322.374C940.068,322.561 939.571,322.654 939.02,322.654C938.479,322.654 937.987,322.561 937.543,322.374C937.1,322.187 936.72,321.924 936.402,321.583C936.085,321.242 935.838,320.832 935.66,320.351C935.483,319.87 935.394,319.341 935.394,318.762C935.394,318.183 935.485,317.656 935.667,317.18C935.849,316.704 936.101,316.298 936.423,315.962C936.745,315.626 937.128,315.365 937.571,315.178C938.015,314.991 938.498,314.898 939.02,314.898C939.552,314.898 940.04,314.991 940.483,315.178C940.927,315.365 941.307,315.626 941.624,315.962C941.942,316.298 942.189,316.704 942.366,317.18C942.544,317.656 942.632,318.183 942.632,318.762ZM940.504,318.762C940.504,318.118 940.376,317.612 940.119,317.243C939.863,316.874 939.496,316.69 939.02,316.69C938.544,316.69 938.176,316.874 937.914,317.243C937.653,317.612 937.522,318.118 937.522,318.762C937.522,319.406 937.653,319.917 937.914,320.295C938.176,320.673 938.544,320.862 939.02,320.862C939.496,320.862 939.863,320.673 940.119,320.295C940.376,319.917 940.504,319.406 940.504,318.762Z" style="fill:white;fill-rule:nonzero;"/>
            <path d="M948.68,316.942C948.494,316.895 948.274,316.846 948.022,316.795C947.77,316.744 947.5,316.718 947.21,316.718C947.08,316.718 946.923,316.73 946.741,316.753C946.559,316.776 946.422,316.802 946.328,316.83L946.328,322.458L944.242,322.458L944.242,315.486C944.616,315.355 945.057,315.232 945.565,315.115C946.074,314.998 946.641,314.94 947.266,314.94C947.378,314.94 947.514,314.947 947.672,314.961C947.831,314.975 947.99,314.994 948.148,315.017C948.307,315.04 948.466,315.068 948.624,315.101C948.783,315.134 948.918,315.173 949.03,315.22L948.68,316.942Z" style="fill:white;fill-rule:nonzero;"/>
            <path d="M949.66,318.832C949.66,318.179 949.761,317.607 949.961,317.117C950.162,316.627 950.426,316.219 950.752,315.892C951.079,315.565 951.455,315.318 951.879,315.15C952.304,314.982 952.74,314.898 953.188,314.898C954.234,314.898 955.06,315.218 955.666,315.857C956.273,316.496 956.576,317.437 956.576,318.678C956.576,318.799 956.572,318.932 956.562,319.077C956.553,319.222 956.544,319.35 956.534,319.462L951.802,319.462C951.849,319.891 952.05,320.232 952.404,320.484C952.759,320.736 953.235,320.862 953.832,320.862C954.215,320.862 954.591,320.827 954.959,320.757C955.328,320.687 955.629,320.601 955.862,320.498L956.142,322.192C956.03,322.248 955.881,322.304 955.694,322.36C955.508,322.416 955.3,322.465 955.071,322.507C954.843,322.549 954.598,322.584 954.336,322.612C954.075,322.64 953.814,322.654 953.552,322.654C952.89,322.654 952.313,322.556 951.823,322.36C951.333,322.164 950.927,321.896 950.605,321.555C950.283,321.214 950.045,320.811 949.891,320.344C949.737,319.877 949.66,319.373 949.66,318.832ZM954.56,318.034C954.551,317.857 954.521,317.684 954.469,317.516C954.418,317.348 954.339,317.199 954.231,317.068C954.124,316.937 953.989,316.83 953.825,316.746C953.662,316.662 953.459,316.62 953.216,316.62C952.983,316.62 952.782,316.66 952.614,316.739C952.446,316.818 952.306,316.923 952.194,317.054C952.082,317.185 951.996,317.336 951.935,317.509C951.875,317.682 951.83,317.857 951.802,318.034L954.56,318.034Z" style="fill:white;fill-rule:nonzero;"/>
        </g>
        <g>
            <g opacity="0.649994">
                <g>
                    <path d="M346.003,347.437L351.435,347.437L351.435,346.443L347.165,346.443L347.165,343.111L350.651,343.111L350.651,342.117L347.165,342.117L347.165,339.233L351.295,339.233L351.295,338.253L346.003,338.253L346.003,347.437Z" style="fill:rgb(46,52,58);fill-rule:nonzero;"/>
                    <path d="M354.839,347.437L356.183,347.437L358.591,340.633L357.457,340.633L356.169,344.497C355.973,345.169 355.749,345.855 355.553,346.499L355.497,346.499C355.287,345.855 355.063,345.169 354.867,344.497L353.579,340.633L352.389,340.633L354.839,347.437Z" style="fill:rgb(46,52,58);fill-rule:nonzero;"/>
                    <path d="M362.915,347.605C363.839,347.605 364.567,347.283 365.155,346.905L364.749,346.149C364.245,346.471 363.699,346.681 363.055,346.681C361.753,346.681 360.871,345.757 360.787,344.315L365.379,344.315C365.407,344.147 365.421,343.895 365.421,343.657C365.421,341.711 364.441,340.465 362.705,340.465C361.151,340.465 359.653,341.823 359.653,344.049C359.653,346.275 361.095,347.605 362.915,347.605ZM360.773,343.489C360.913,342.145 361.781,341.375 362.733,341.375C363.797,341.375 364.413,342.117 364.413,343.489L360.773,343.489Z" style="fill:rgb(46,52,58);fill-rule:nonzero;"/>
                    <path d="M367.401,347.437L368.549,347.437L368.549,342.509C369.235,341.823 369.711,341.459 370.411,341.459C371.307,341.459 371.699,342.005 371.699,343.279L371.699,347.437L372.847,347.437L372.847,343.125C372.847,341.389 372.203,340.465 370.775,340.465C369.837,340.465 369.137,340.969 368.493,341.613L368.451,341.613L368.353,340.633L367.401,340.633L367.401,347.437Z" style="fill:rgb(46,52,58);fill-rule:nonzero;"/>
                    <path d="M377.451,347.605C377.871,347.605 378.333,347.479 378.711,347.353L378.487,346.485C378.263,346.569 377.955,346.667 377.717,346.667C376.933,346.667 376.667,346.191 376.667,345.351L376.667,341.571L378.501,341.571L378.501,340.633L376.667,340.633L376.667,338.729L375.701,338.729L375.561,340.633L374.497,340.703L374.497,341.571L375.505,341.571L375.505,345.337C375.505,346.681 375.995,347.605 377.451,347.605Z" style="fill:rgb(46,52,58);fill-rule:nonzero;"/>
                    <path d="M381.919,347.605C383.529,347.605 384.411,346.681 384.411,345.575C384.411,344.287 383.319,343.881 382.339,343.517C381.569,343.223 380.827,342.985 380.827,342.341C380.827,341.823 381.219,341.361 382.073,341.361C382.675,341.361 383.165,341.613 383.627,341.963L384.173,341.235C383.655,340.815 382.913,340.465 382.059,340.465C380.589,340.465 379.721,341.305 379.721,342.397C379.721,343.545 380.785,344.007 381.751,344.357C382.493,344.637 383.305,344.945 383.305,345.645C383.305,346.233 382.857,346.709 381.961,346.709C381.149,346.709 380.547,346.373 379.959,345.897L379.385,346.667C380.029,347.199 380.953,347.605 381.919,347.605Z" style="fill:rgb(46,52,58);fill-rule:nonzero;"/>
                </g>
            </g>
        </g>
    </g>
</svg>
