<svg xmlns="http://www.w3.org/2000/svg" viewBox="0 0 778.35 818.61"><defs><style>.cls-1{fill:#62d1fe;}.cls-13,.cls-2,.cls-4,.cls-6,.cls-9{fill:none;}.cls-2,.cls-9{stroke:#62d1fe;}.cls-13,.cls-2,.cls-4,.cls-6{stroke-miterlimit:10;}.cls-2,.cls-4,.cls-6,.cls-9{stroke-width:2px;}.cls-3{opacity:0.8;}.cls-4{stroke:#2f333b;}.cls-5{fill:#2f333b;}.cls-6{stroke:#97999d;}.cls-7{fill:#97999d;}.cls-8{fill:#009ddc;}.cls-9{stroke-linejoin:bevel;}.cls-10{fill:#fff;}.cls-11{opacity:0.9;}.cls-12{opacity:0.65;}.cls-13{stroke:#fff;}</style></defs><title>181022_Wolkenkit-Stucture_02</title><g id="arrow"><line class="cls-1" x1="159.72" y1="274.99" x2="49.78" y2="384.93"/><line class="cls-2" x1="158.18" y1="276.52" x2="51.31" y2="383.4"/><polygon class="cls-1" points="147.71 275.42 147.79 277.43 157.64 277.06 157.28 286.92 159.28 286.99 159.72 274.99 147.71 275.42"/><polygon class="cls-1" points="50.21 372.93 52.21 373 51.85 382.85 61.71 382.49 61.78 384.49 49.78 384.93 50.21 372.93"/><line class="cls-1" x1="159.72" y1="551.09" x2="49.78" y2="441.15"/><line class="cls-2" x1="158.18" y1="549.56" x2="51.31" y2="442.68"/><polygon class="cls-1" points="159.28 539.09 157.28 539.16 157.64 549.01 147.79 548.65 147.72 550.65 159.72 551.09 159.28 539.09"/><polygon class="cls-1" points="61.78 441.58 61.71 443.58 51.85 443.22 52.22 453.08 50.22 453.15 49.78 441.15 61.78 441.58"/><g class="cls-3"><line class="cls-4" x1="318.38" y1="179.98" x2="386.21" y2="179.98"/><polygon class="cls-5" points="379.58 188.16 378.22 186.7 385.44 179.99 378.22 173.27 379.58 171.81 388.38 179.99 379.58 188.16"/></g><g class="cls-3"><line class="cls-4" x1="528.38" y1="179.98" x2="596.21" y2="179.98"/><polygon class="cls-5" points="589.59 188.16 588.22 186.7 595.44 179.99 588.22 173.27 589.59 171.81 598.38 179.99 589.59 188.16"/></g><line class="cls-6" x1="598.38" y1="205.98" x2="530.55" y2="205.98"/><polygon class="cls-7" points="537.18 197.8 538.54 199.27 531.32 205.98 538.54 212.7 537.18 214.16 528.38 205.98 537.18 197.8"/><line class="cls-6" x1="675.38" y1="269.05" x2="675.38" y2="336.88"/><polygon class="cls-7" points="667.2 330.26 668.67 328.89 675.38 336.12 682.09 328.89 683.56 330.26 675.38 339.05 667.2 330.26"/><line class="cls-6" x1="675.38" y1="482.48" x2="675.38" y2="550.31"/><polygon class="cls-7" points="667.2 543.68 668.67 542.32 675.38 549.54 682.09 542.32 683.56 543.68 675.38 552.48 667.2 543.68"/><line class="cls-6" x1="388.38" y1="205.98" x2="320.55" y2="205.98"/><polygon class="cls-7" points="327.18 197.8 328.54 199.27 321.32 205.98 328.54 212.7 327.18 214.16 318.38 205.98 327.18 197.8"/><line class="cls-1" x1="239.38" y1="78.05" x2="239.38" y2="118.05"/><line class="cls-2" x1="239.38" y1="80.22" x2="239.38" y2="115.88"/><polygon class="cls-1" points="231.2 86.85 232.67 88.21 239.38 80.99 246.09 88.21 247.56 86.85 239.38 78.05 231.2 86.85"/><polygon class="cls-1" points="231.2 109.26 232.67 107.89 239.38 115.12 246.09 107.89 247.56 109.26 239.38 118.05 231.2 109.26"/><line class="cls-2" x1="575.63" y1="529.93" x2="602.38" y2="556.68"/><polygon class="cls-1" points="574.53 540.4 576.53 540.33 576.17 530.47 586.03 530.83 586.1 528.83 574.1 528.39 574.53 540.4"/><line class="cls-1" x1="749.07" y1="702.37" x2="777.35" y2="730.65"/><line class="cls-2" x1="749.07" y1="702.37" x2="775.82" y2="729.12"/><polygon class="cls-1" points="765.35 730.21 765.42 728.21 775.27 728.57 774.92 718.72 776.92 718.65 777.35 730.65 765.35 730.21"/><line class="cls-1" x1="750.07" y1="556.1" x2="778.35" y2="527.82"/><line class="cls-2" x1="750.07" y1="556.1" x2="776.82" y2="529.35"/><polygon class="cls-1" points="777.92 539.82 775.92 539.75 776.28 529.89 766.42 530.25 766.35 528.25 778.35 527.82 777.92 539.82"/><line class="cls-1" x1="573.58" y1="730.59" x2="601.87" y2="702.3"/><line class="cls-2" x1="575.12" y1="729.05" x2="601.87" y2="702.3"/><polygon class="cls-1" points="585.59 730.15 585.51 728.15 575.66 728.51 576.02 718.66 574.02 718.59 573.58 730.59 585.59 730.15"/><line class="cls-1" x1="278.38" y1="705.05" x2="278.38" y2="745.05"/><line class="cls-2" x1="278.38" y1="707.22" x2="278.38" y2="742.88"/><polygon class="cls-1" points="270.2 713.85 271.67 715.21 278.38 707.99 285.09 715.21 286.56 713.85 278.38 705.05 270.2 713.85"/><polygon class="cls-1" points="270.2 736.26 271.67 734.89 278.38 742.12 285.09 734.89 286.56 736.26 278.38 745.05 270.2 736.26"/><line class="cls-1" x1="197.38" y1="705.05" x2="197.38" y2="745.05"/><line class="cls-2" x1="197.38" y1="707.22" x2="197.38" y2="742.88"/><polygon class="cls-1" points="189.2 713.85 190.67 715.21 197.38 707.99 204.09 715.21 205.56 713.85 197.38 705.05 189.2 713.85"/><polygon class="cls-1" points="189.2 736.26 190.67 734.89 197.38 742.12 204.09 734.89 205.56 736.26 197.38 745.05 189.2 736.26"/><line class="cls-1" x1="675.38" y1="78.05" x2="675.38" y2="118.05"/><line class="cls-2" x1="675.38" y1="80.22" x2="675.38" y2="115.88"/><polygon class="cls-1" points="667.2 86.85 668.67 88.21 675.38 80.99 682.09 88.21 683.56 86.85 675.38 78.05 667.2 86.85"/><polygon class="cls-1" points="667.2 109.26 668.67 107.89 675.38 115.12 682.09 107.89 683.56 109.26 675.38 118.05 667.2 109.26"/><path class="cls-6" d="M236.25,193" transform="translate(-9.62 -8.95)"/><path class="cls-6" d="M236.25,163" transform="translate(-9.62 -8.95)"/><path class="cls-6" d="M672.6,193" transform="translate(-9.62 -8.95)"/><path class="cls-6" d="M236.25,619.58" transform="translate(-9.62 -8.95)"/><path class="cls-6" d="M236.25,589.58" transform="translate(-9.62 -8.95)"/><path class="cls-6" d="M672.6,619.58" transform="translate(-9.62 -8.95)"/><rect class="cls-2" x="483.38" y="168.05" width="25" height="25"/><rect class="cls-2" x="458.38" y="168.05" width="25" height="25"/><rect class="cls-2" x="433.38" y="168.05" width="25" height="25"/><rect class="cls-2" x="408.38" y="168.05" width="25" height="25"/><rect class="cls-2" x="483.38" y="193.05" width="25" height="25"/><rect class="cls-2" x="458.38" y="193.05" width="25" height="25"/><rect class="cls-2" x="433.38" y="193.05" width="25" height="25"/><rect class="cls-2" x="408.38" y="193.05" width="25" height="25"/><rect class="cls-2" x="673" y="444" width="25" height="25" transform="translate(1132.38 -237.95) rotate(90)"/><rect class="cls-2" x="673" y="419" width="25" height="25" transform="translate(1107.38 -262.95) rotate(90)"/><rect class="cls-2" x="673" y="394" width="25" height="25" transform="translate(1082.38 -287.95) rotate(90)"/><rect class="cls-2" x="673" y="369" width="25" height="25" transform="translate(1057.38 -312.95) rotate(90)"/></g><g id="model"><rect class="cls-8" x="179.38" y="133.05" width="120" height="120"/><rect class="cls-8" x="615.38" y="133.05" width="120" height="120"/><rect class="cls-8" x="179.38" y="569.05" width="120" height="120"/><rect class="cls-8" x="615.38" y="569.05" width="120" height="120"/></g><g id="icons"><polygon class="cls-9" points="675.88 11.14 701.34 18.74 675.88 26.42 650.42 18.83 675.88 11.14"/><polyline class="cls-2" points="701.34 25.74 675.88 33.42 650.42 25.83"/><polyline class="cls-2" points="701.34 32.74 675.88 40.42 650.42 32.83"/><polygon class="cls-9" points="238.87 9.33 215.38 0.94 215.38 34.86 238.87 43.25 238.88 43.26 262.38 34.86 262.38 0.94 238.88 9.34 238.87 9.33"/><line class="cls-9" x1="219.64" y1="11.76" x2="235.13" y2="17.3"/><line class="cls-9" x1="239.38" y1="9.05" x2="239.38" y2="43.05"/><line class="cls-9" x1="219.64" y1="19.76" x2="235.13" y2="25.3"/><line class="cls-9" x1="219.64" y1="27.76" x2="235.13" y2="33.3"/><line class="cls-9" x1="258.62" y1="11.74" x2="243.13" y2="17.27"/><line class="cls-9" x1="258.62" y1="19.74" x2="243.13" y2="25.27"/><line class="cls-9" x1="258.62" y1="27.74" x2="243.13" y2="33.27"/><path class="cls-2" d="M303.75,801H274.36a7.82,7.82,0,0,1-7.72-7.9h0a8,8,0,0,1,5-7.51,8.51,8.51,0,0,1-.28-2.12,7.64,7.64,0,0,1,7.53-7.8,7.46,7.46,0,0,1,5.86,2.89,10.36,10.36,0,0,1,10-8.38,10.55,10.55,0,0,1,10.32,10.69,11.06,11.06,0,0,1-.84,4.24,8.08,8.08,0,0,1,7.07,7.9h0a8.11,8.11,0,0,1-.71,3.35S308.3,801,303.75,801Z" transform="translate(-9.62 -8.95)"/><path class="cls-1" d="M187,798h8v2h-2v2h6v-2h-2v-2h20v2h-2v2h6v-2h-2v-2h8v-8H187Zm2-6h36v4H189Z" transform="translate(-9.62 -8.95)"/><path class="cls-1" d="M187,788h40v-8H187Zm2-6h36v4H189Z" transform="translate(-9.62 -8.95)"/><path class="cls-1" d="M187,770v8h40v-8Zm38,6H189v-4h36Z" transform="translate(-9.62 -8.95)"/><rect class="cls-1" x="205.38" y="784.05" width="6" height="2"/><rect class="cls-1" x="205.38" y="774.05" width="6" height="2"/><rect class="cls-1" x="205.38" y="764.05" width="6" height="2"/><circle class="cls-2" cx="18.38" cy="388.05" r="8"/><path class="cls-2" d="M42,423.1A14.11,14.11,0,0,0,35.17,411l0,0a15.36,15.36,0,0,1-14.26,0l0,0A14.11,14.11,0,0,0,14,423.1V430H42v-7" transform="translate(-9.62 -8.95)"/></g><g id="type"><path class="cls-10" d="M230.42,195.33c-.53,0-1.06,0-1.59-.05a11.13,11.13,0,0,1-1.64-.23v-9.41a14.66,14.66,0,0,1,1.47-.19c.53,0,1-.06,1.48-.06a9.87,9.87,0,0,1,1.7.13,3.92,3.92,0,0,1,1.34.46,2.37,2.37,0,0,1,.88.84,2.48,2.48,0,0,1,.31,1.3,2.05,2.05,0,0,1-1.12,1.83,2.3,2.3,0,0,1,1.26,1,2.72,2.72,0,0,1,.34,1.36,2.61,2.61,0,0,1-1.12,2.3A5.84,5.84,0,0,1,230.42,195.33Zm-1.1-6h1.06a3,3,0,0,0,1.44-.26.89.89,0,0,0,.44-.83.85.85,0,0,0-.45-.83,2.88,2.88,0,0,0-1.32-.24h-.6c-.21,0-.4,0-.57,0Zm0,1.66v2.51l.51,0,.62,0a3.89,3.89,0,0,0,1.58-.28,1.06,1.06,0,0,0,.61-1,1,1,0,0,0-.51-1,3,3,0,0,0-1.44-.29Z" transform="translate(-9.62 -8.95)"/><path class="cls-10" d="M240.9,189.69l-.66-.15a4.2,4.2,0,0,0-.81-.08,2.79,2.79,0,0,0-.47,0,4,4,0,0,0-.42.07v5.63h-2.08v-7a13.15,13.15,0,0,1,1.32-.37,7.45,7.45,0,0,1,1.7-.18l.41,0,.47.06.48.08.41.12Z" transform="translate(-9.62 -8.95)"/><path class="cls-10" d="M249.11,191.51a4.72,4.72,0,0,1-.25,1.58,3.4,3.4,0,0,1-.73,1.24,3.2,3.2,0,0,1-1.14.79,3.92,3.92,0,0,1-1.49.28,3.85,3.85,0,0,1-1.47-.28,3.33,3.33,0,0,1-1.15-.79,3.72,3.72,0,0,1-.74-1.24,4.87,4.87,0,0,1,0-3.17,3.51,3.51,0,0,1,1.9-2,3.92,3.92,0,0,1,2.91,0,3.33,3.33,0,0,1,1.15.79,3.68,3.68,0,0,1,.74,1.21A4.5,4.5,0,0,1,249.11,191.51Zm-2.12,0a2.59,2.59,0,0,0-.39-1.52,1.36,1.36,0,0,0-2.2,0,2.52,2.52,0,0,0-.4,1.52,2.59,2.59,0,0,0,.4,1.53,1.35,1.35,0,0,0,2.2,0A2.67,2.67,0,0,0,247,191.51Z" transform="translate(-9.62 -8.95)"/><path class="cls-10" d="M252.81,190.48l.64-.69c.22-.25.43-.48.63-.72l.58-.68.47-.55h2.48c-.49.57-1,1.11-1.45,1.63s-1,1.05-1.54,1.59a9.57,9.57,0,0,1,.86.91c.3.35.59.71.87,1.09a13.15,13.15,0,0,1,.77,1.12,11.77,11.77,0,0,1,.59,1h-2.4l-.51-.81c-.19-.29-.39-.58-.61-.88s-.44-.58-.67-.85a6.48,6.48,0,0,0-.71-.69v3.23h-2.09V184.67l2.09-.33Z" transform="translate(-9.62 -8.95)"/><path class="cls-10" d="M258,191.58a4.52,4.52,0,0,1,.3-1.72,3.53,3.53,0,0,1,.79-1.22,3.25,3.25,0,0,1,1.12-.75,3.76,3.76,0,0,1,1.31-.25,3.24,3.24,0,0,1,2.48,1,3.94,3.94,0,0,1,.91,2.82c0,.12,0,.26,0,.4s0,.27,0,.39h-4.73a1.37,1.37,0,0,0,.6,1,2.43,2.43,0,0,0,1.43.38,5.91,5.91,0,0,0,1.12-.11,4.6,4.6,0,0,0,.91-.26l.28,1.7a2.8,2.8,0,0,1-.45.16,4.7,4.7,0,0,1-.62.15l-.74.11c-.26,0-.52,0-.78,0a4.57,4.57,0,0,1-1.73-.3,3.28,3.28,0,0,1-1.22-.8,3.2,3.2,0,0,1-.71-1.21A4.64,4.64,0,0,1,258,191.58Zm4.9-.8a2.27,2.27,0,0,0-.09-.52,1.61,1.61,0,0,0-.24-.45,1.3,1.3,0,0,0-.41-.32,1.38,1.38,0,0,0-.61-.13,1.4,1.4,0,0,0-.6.12,1.23,1.23,0,0,0-.42.32,1.43,1.43,0,0,0-.26.45,3.41,3.41,0,0,0-.13.53Z" transform="translate(-9.62 -8.95)"/><path class="cls-10" d="M270.94,189.69l-.66-.15a4.12,4.12,0,0,0-.81-.08,2.88,2.88,0,0,0-.47,0,3.71,3.71,0,0,0-.41.07v5.63H266.5v-7c.38-.13.82-.25,1.32-.37a7.48,7.48,0,0,1,1.71-.18l.4,0,.48.06.47.08.41.12Z" transform="translate(-9.62 -8.95)"/><path class="cls-1" d="M14.18,452.74a4.85,4.85,0,0,1-1.86-.34,3.89,3.89,0,0,1-1.44-1,4.46,4.46,0,0,1-.93-1.59,6.53,6.53,0,0,1-.33-2.16,5.82,5.82,0,0,1,.37-2.16,4.74,4.74,0,0,1,1-1.59,4.17,4.17,0,0,1,1.47-1,4.67,4.67,0,0,1,1.79-.34,5.93,5.93,0,0,1,1.09.09,6.63,6.63,0,0,1,.84.19,3.88,3.88,0,0,1,.58.23l.31.16-.39,1.12-.37-.18c-.16-.06-.34-.13-.54-.19a5.27,5.27,0,0,0-.66-.17,4.2,4.2,0,0,0-.72-.06,3.4,3.4,0,0,0-1.38.27,2.86,2.86,0,0,0-1,.77,3.5,3.5,0,0,0-.67,1.22,5.42,5.42,0,0,0-.23,1.62,5.94,5.94,0,0,0,.2,1.58,3.55,3.55,0,0,0,.61,1.23,2.75,2.75,0,0,0,1,.79,3.46,3.46,0,0,0,1.42.28,5.21,5.21,0,0,0,1.55-.2,7.6,7.6,0,0,0,.93-.35l.35,1.12a1.79,1.79,0,0,1-.35.18,6,6,0,0,1-.63.2c-.25.06-.55.12-.88.17A9.25,9.25,0,0,1,14.18,452.74Z" transform="translate(-9.62 -8.95)"/><path class="cls-1" d="M20.79,452.67a2.5,2.5,0,0,1-1.71-.52,2.09,2.09,0,0,1-.5-1.53v-8.73l1.3-.23v8.75a2,2,0,0,0,.06.54.66.66,0,0,0,.18.33.71.71,0,0,0,.34.19,4,4,0,0,0,.51.11Z" transform="translate(-9.62 -8.95)"/><path class="cls-1" d="M23.07,443.93a.84.84,0,0,1-.59-.23.82.82,0,0,1-.25-.62.86.86,0,0,1,.25-.63.84.84,0,0,1,.59-.23.86.86,0,0,1,.6.23.85.85,0,0,1,.24.63.81.81,0,0,1-.24.62A.86.86,0,0,1,23.07,443.93Zm.66,8.6h-1.3v-7.28h1.3Z" transform="translate(-9.62 -8.95)"/><path class="cls-1" d="M25.57,448.9a4.64,4.64,0,0,1,.28-1.69,3.3,3.3,0,0,1,.74-1.19,3,3,0,0,1,1.06-.72,3.27,3.27,0,0,1,1.23-.23,2.81,2.81,0,0,1,2.26.91,4.25,4.25,0,0,1,.78,2.8V449a2,2,0,0,1,0,.25h-5a2.7,2.7,0,0,0,.66,1.72,2.41,2.41,0,0,0,1.79.59,4.75,4.75,0,0,0,1.16-.12,5,5,0,0,0,.71-.23l.18,1.09a4.59,4.59,0,0,1-.84.27,6,6,0,0,1-1.35.14,4.29,4.29,0,0,1-1.64-.29,3.15,3.15,0,0,1-1.14-.79,3.36,3.36,0,0,1-.67-1.2A5.22,5.22,0,0,1,25.57,448.9Zm5-.71a2.15,2.15,0,0,0-.44-1.45,1.51,1.51,0,0,0-1.25-.57,1.67,1.67,0,0,0-.79.18,1.85,1.85,0,0,0-.58.45,1.9,1.9,0,0,0-.37.65,3.2,3.2,0,0,0-.18.74Z" transform="translate(-9.62 -8.95)"/><path class="cls-1" d="M33.8,445.46c.3-.08.69-.16,1.19-.24a10.64,10.64,0,0,1,1.71-.13,3.79,3.79,0,0,1,1.44.25,2.19,2.19,0,0,1,.91.68,2.8,2.8,0,0,1,.49,1.06,6.38,6.38,0,0,1,.14,1.36v4.09h-1.3v-3.81a6.31,6.31,0,0,0-.09-1.15,2.1,2.1,0,0,0-.31-.77,1.13,1.13,0,0,0-.56-.42,2.38,2.38,0,0,0-.86-.14l-.44,0c-.15,0-.29,0-.43,0l-.36,0-.23,0v6.15H33.8Z" transform="translate(-9.62 -8.95)"/><path class="cls-1" d="M43.05,445.25h2.76v1.09H43.05v3.36a3.79,3.79,0,0,0,.09.9,1.27,1.27,0,0,0,.25.56.89.89,0,0,0,.42.29,1.76,1.76,0,0,0,.59.08,2.73,2.73,0,0,0,.94-.13l.5-.19.25,1.08a3.66,3.66,0,0,1-.69.24,3.8,3.8,0,0,1-1.12.15,3.29,3.29,0,0,1-1.22-.19,1.78,1.78,0,0,1-.78-.56,2.44,2.44,0,0,1-.41-.94,6,6,0,0,1-.12-1.28v-6.49l1.3-.23Z" transform="translate(-9.62 -8.95)"/><path class="cls-1" d="M650.35,71.69V62h5.92v1.16h-4.56V66h4.06v1.14h-4.06v3.36h4.91v1.16Z" transform="translate(-9.62 -8.95)"/><path class="cls-1" d="M663.59,64.41a36,36,0,0,1-1.28,3.92c-.49,1.25-1,2.37-1.42,3.36h-1.17c-.46-1-.93-2.11-1.43-3.36A38.27,38.27,0,0,1,657,64.41h1.4c.12.46.25.94.4,1.46s.32,1,.49,1.54.35,1,.53,1.48.34.9.5,1.27c.16-.37.33-.79.51-1.27s.35-1,.52-1.48.34-1,.49-1.54.29-1,.4-1.46Z" transform="translate(-9.62 -8.95)"/><path class="cls-1" d="M664.34,68.06a4.55,4.55,0,0,1,.28-1.68,3.44,3.44,0,0,1,.74-1.2,2.87,2.87,0,0,1,1.06-.71,3.28,3.28,0,0,1,1.23-.24,2.81,2.81,0,0,1,2.26.91,4.27,4.27,0,0,1,.78,2.8v.21a2,2,0,0,1,0,.25h-5a2.63,2.63,0,0,0,.65,1.72,2.41,2.41,0,0,0,1.79.59,4.75,4.75,0,0,0,1.16-.12,5,5,0,0,0,.71-.23l.18,1.09a4,4,0,0,1-.83.27,6.18,6.18,0,0,1-1.36.14,4.29,4.29,0,0,1-1.64-.29,3,3,0,0,1-1.14-.79,3.36,3.36,0,0,1-.67-1.2A5.22,5.22,0,0,1,664.34,68.06Zm5-.71a2.15,2.15,0,0,0-.44-1.45,1.51,1.51,0,0,0-1.25-.57,1.67,1.67,0,0,0-.79.18,2,2,0,0,0-.58.45,2.08,2.08,0,0,0-.37.65,3.2,3.2,0,0,0-.18.74Z" transform="translate(-9.62 -8.95)"/><path class="cls-1" d="M672.57,64.62c.3-.08.69-.15,1.19-.24a10.73,10.73,0,0,1,1.71-.12,3.77,3.77,0,0,1,1.44.24,2.22,2.22,0,0,1,.92.69,2.82,2.82,0,0,1,.48,1,6.38,6.38,0,0,1,.14,1.36v4.09h-1.3V67.88a6.31,6.31,0,0,0-.09-1.15,2.18,2.18,0,0,0-.31-.77,1.16,1.16,0,0,0-.55-.42,2.48,2.48,0,0,0-.87-.14l-.44,0-.43,0-.36,0-.23,0v6.15h-1.3Z" transform="translate(-9.62 -8.95)"/><path class="cls-1" d="M681.82,64.41h2.76V65.5h-2.76v3.36a3.67,3.67,0,0,0,.09.9,1.27,1.27,0,0,0,.25.56.82.82,0,0,0,.42.29,1.74,1.74,0,0,0,.59.09,2.7,2.7,0,0,0,.94-.14l.5-.19.25,1.08a4.51,4.51,0,0,1-.68.25,4.31,4.31,0,0,1-1.13.14,3.29,3.29,0,0,1-1.22-.19,1.78,1.78,0,0,1-.78-.56,2.33,2.33,0,0,1-.41-.93,6.12,6.12,0,0,1-.12-1.28v-6.5l1.3-.22Z" transform="translate(-9.62 -8.95)"/><path class="cls-1" d="M691.16,70.75a2.54,2.54,0,0,0,1.18-.21.7.7,0,0,0,.39-.67.91.91,0,0,0-.38-.76,6.69,6.69,0,0,0-1.25-.63l-.8-.34a2.92,2.92,0,0,1-.67-.41,1.82,1.82,0,0,1-.44-.58,1.72,1.72,0,0,1-.17-.82,1.88,1.88,0,0,1,.71-1.54,3.12,3.12,0,0,1,1.95-.56c.2,0,.41,0,.61,0s.4,0,.58.09a4.8,4.8,0,0,1,.47.1l.31.1-.24,1.12a3.1,3.1,0,0,0-.65-.23,4.24,4.24,0,0,0-1.08-.12,1.91,1.91,0,0,0-.95.22.72.72,0,0,0-.41.68,1,1,0,0,0,.09.42.84.84,0,0,0,.28.32,2.54,2.54,0,0,0,.47.28c.19.08.41.17.67.26s.66.26.93.39a2.63,2.63,0,0,1,.69.44,1.68,1.68,0,0,1,.44.61,2.26,2.26,0,0,1,.15.87,1.74,1.74,0,0,1-.75,1.53,3.68,3.68,0,0,1-2.13.52,5.88,5.88,0,0,1-1.51-.16,7.36,7.36,0,0,1-.74-.25l.23-1.12.72.25A3.9,3.9,0,0,0,691.16,70.75Z" transform="translate(-9.62 -8.95)"/><path class="cls-1" d="M696.93,64.41h2.76V65.5h-2.76v3.36a4.33,4.33,0,0,0,.08.9,1.39,1.39,0,0,0,.25.56.91.91,0,0,0,.42.29,1.78,1.78,0,0,0,.59.09,2.76,2.76,0,0,0,1-.14l.49-.19.26,1.08a4.32,4.32,0,0,1-.69.25,4.23,4.23,0,0,1-1.12.14,3.29,3.29,0,0,1-1.22-.19,1.68,1.68,0,0,1-.78-.56,2.09,2.09,0,0,1-.41-.93,6.12,6.12,0,0,1-.12-1.28v-6.5l1.3-.22Z" transform="translate(-9.62 -8.95)"/><path class="cls-1" d="M707.57,68.05a4.83,4.83,0,0,1-.25,1.57,3.67,3.67,0,0,1-.71,1.2,3.12,3.12,0,0,1-1.09.78,3.42,3.42,0,0,1-1.37.27,3.45,3.45,0,0,1-1.37-.27,3,3,0,0,1-1.08-.78,3.5,3.5,0,0,1-.71-1.2,5,5,0,0,1,0-3.13,3.46,3.46,0,0,1,.71-1.21,3,3,0,0,1,1.08-.78,3.45,3.45,0,0,1,1.37-.27,3.42,3.42,0,0,1,1.37.27,3.12,3.12,0,0,1,1.09.78,3.62,3.62,0,0,1,.71,1.21A4.81,4.81,0,0,1,707.57,68.05Zm-1.36,0a3.12,3.12,0,0,0-.55-2,1.93,1.93,0,0,0-3,0,3.68,3.68,0,0,0,0,3.9,1.93,1.93,0,0,0,3,0A3.12,3.12,0,0,0,706.21,68.05Z" transform="translate(-9.62 -8.95)"/><path class="cls-1" d="M712.09,64.26a2.62,2.62,0,0,1,.38,0l.43,0,.39.07.25.07-.22,1.13a3.57,3.57,0,0,0-.51-.13,4.55,4.55,0,0,0-.92-.08,3.53,3.53,0,0,0-.72.08l-.47.1v6.12h-1.3v-7a9.46,9.46,0,0,1,1.15-.32A7.28,7.28,0,0,1,712.09,64.26Z" transform="translate(-9.62 -8.95)"/><path class="cls-1" d="M714.4,68.06a4.55,4.55,0,0,1,.28-1.68,3.59,3.59,0,0,1,.74-1.2,2.83,2.83,0,0,1,1.07-.71,3.28,3.28,0,0,1,1.23-.24,2.79,2.79,0,0,1,2.25.91,4.27,4.27,0,0,1,.79,2.8v.21a2,2,0,0,1,0,.25h-5a2.58,2.58,0,0,0,.66,1.72,2.41,2.41,0,0,0,1.79.59,4.66,4.66,0,0,0,1.15-.12,4.56,4.56,0,0,0,.71-.23l.18,1.09a3.78,3.78,0,0,1-.83.27,6.15,6.15,0,0,1-1.35.14,4.31,4.31,0,0,1-1.65-.29,3,3,0,0,1-1.14-.79,3.19,3.19,0,0,1-.66-1.2A4.9,4.9,0,0,1,714.4,68.06Zm5-.71A2.2,2.2,0,0,0,719,65.9a1.53,1.53,0,0,0-1.26-.57,1.67,1.67,0,0,0-.79.18,2,2,0,0,0-.58.45,2.08,2.08,0,0,0-.37.65,2.74,2.74,0,0,0-.17.74Z" transform="translate(-9.62 -8.95)"/><path class="cls-1" d="M428.88,161.21a4.85,4.85,0,0,1-1.86-.34,3.89,3.89,0,0,1-1.44-1,4.41,4.41,0,0,1-.93-1.58,6.64,6.64,0,0,1-.33-2.17,5.82,5.82,0,0,1,.37-2.16,4.74,4.74,0,0,1,1-1.59,4.17,4.17,0,0,1,1.47-1,4.87,4.87,0,0,1,1.79-.34,6.08,6.08,0,0,1,1.09.09,6.63,6.63,0,0,1,.84.19,3.88,3.88,0,0,1,.58.23,2.36,2.36,0,0,1,.31.17l-.39,1.12a2.47,2.47,0,0,0-.37-.19c-.16-.06-.34-.13-.54-.19a4,4,0,0,0-.66-.16,4.28,4.28,0,0,0-.72-.07,3.4,3.4,0,0,0-1.38.27,2.78,2.78,0,0,0-1,.77,3.43,3.43,0,0,0-.67,1.22,5.46,5.46,0,0,0-.23,1.62,5.94,5.94,0,0,0,.2,1.58,3.55,3.55,0,0,0,.61,1.23,2.75,2.75,0,0,0,1,.79A3.3,3.3,0,0,0,429,160a5.21,5.21,0,0,0,1.55-.2,6.24,6.24,0,0,0,.93-.35l.35,1.12a2.15,2.15,0,0,1-.35.18,4.29,4.29,0,0,1-.63.2,7.87,7.87,0,0,1-.89.17A7.4,7.4,0,0,1,428.88,161.21Z" transform="translate(-9.62 -8.95)"/><path class="cls-1" d="M439.52,157.36a4.58,4.58,0,0,1-.25,1.57,3.41,3.41,0,0,1-.71,1.2,3,3,0,0,1-1.08.78,3.64,3.64,0,0,1-2.75,0,3,3,0,0,1-1.08-.78,3.57,3.57,0,0,1-.71-1.2,5,5,0,0,1,0-3.13,3.62,3.62,0,0,1,.71-1.21,3,3,0,0,1,1.08-.78,3.64,3.64,0,0,1,2.75,0,3,3,0,0,1,1.08.78,3.46,3.46,0,0,1,.71,1.21A4.56,4.56,0,0,1,439.52,157.36Zm-1.36,0a3.12,3.12,0,0,0-.55-2,1.93,1.93,0,0,0-3,0,3.73,3.73,0,0,0,0,3.9,1.93,1.93,0,0,0,3,0A3.12,3.12,0,0,0,438.16,157.36Z" transform="translate(-9.62 -8.95)"/><path class="cls-1" d="M441.36,153.93c.29-.07.69-.15,1.18-.24a10.69,10.69,0,0,1,1.7-.12,3.37,3.37,0,0,1,1.18.18,2.15,2.15,0,0,1,.79.56l.31-.2a3.71,3.71,0,0,1,.52-.24,4.73,4.73,0,0,1,.69-.21,3.47,3.47,0,0,1,.81-.09,3.37,3.37,0,0,1,1.37.24,2,2,0,0,1,.83.69,2.75,2.75,0,0,1,.41,1.07,8,8,0,0,1,.1,1.34V161H450v-3.81a8.55,8.55,0,0,0-.06-1.1,2,2,0,0,0-.24-.77,1.1,1.1,0,0,0-.47-.46,1.81,1.81,0,0,0-.78-.15,2.85,2.85,0,0,0-1.09.18,2.38,2.38,0,0,0-.58.31,4.71,4.71,0,0,1,.17.8,6.62,6.62,0,0,1,.06.91V161h-1.31v-3.81a6.92,6.92,0,0,0-.07-1.1,2,2,0,0,0-.24-.77,1.12,1.12,0,0,0-.48-.46,1.69,1.69,0,0,0-.76-.15l-.42,0-.43,0-.37.05-.22,0V161h-1.3Z" transform="translate(-9.62 -8.95)"/><path class="cls-1" d="M453.41,153.93l1.18-.24a10.69,10.69,0,0,1,1.7-.12,3.37,3.37,0,0,1,1.18.18,2.18,2.18,0,0,1,.8.56c.06-.05.17-.11.31-.2a3.53,3.53,0,0,1,.51-.24,5.63,5.63,0,0,1,.69-.21,3.47,3.47,0,0,1,.81-.09,3.33,3.33,0,0,1,1.37.24,2,2,0,0,1,.84.69,2.74,2.74,0,0,1,.4,1.07,8,8,0,0,1,.11,1.34V161H462v-3.81a8.35,8.35,0,0,0-.07-1.1,2.19,2.19,0,0,0-.23-.77,1.12,1.12,0,0,0-.48-.46,1.75,1.75,0,0,0-.78-.15,2.77,2.77,0,0,0-1.08.18,2.2,2.2,0,0,0-.58.31,4.72,4.72,0,0,1,.16.8,6.62,6.62,0,0,1,.06.91V161h-1.3v-3.81a8.35,8.35,0,0,0-.07-1.1,2.18,2.18,0,0,0-.25-.77,1,1,0,0,0-.47-.46,1.76,1.76,0,0,0-.77-.15l-.42,0-.42,0-.37.05-.23,0V161h-1.3Z" transform="translate(-9.62 -8.95)"/><path class="cls-1" d="M467.81,153.54a3.92,3.92,0,0,1,1.33.2,2,2,0,0,1,1.33,1.46,3.94,3.94,0,0,1,.15,1.12v4.55l-.47.08-.68.09-.82.08-.88,0a5,5,0,0,1-1.13-.12,2.74,2.74,0,0,1-.9-.4,1.82,1.82,0,0,1-.59-.72,2.7,2.7,0,0,1-.2-1.08,2.13,2.13,0,0,1,.24-1,2,2,0,0,1,.67-.7,3.24,3.24,0,0,1,1-.39,5.52,5.52,0,0,1,1.17-.12,2.88,2.88,0,0,1,.41,0l.4.05.32.07a1.13,1.13,0,0,1,.2,0v-.37a2.7,2.7,0,0,0-.07-.63,1.5,1.5,0,0,0-.25-.56,1.15,1.15,0,0,0-.5-.39,1.91,1.91,0,0,0-.82-.15,6.12,6.12,0,0,0-1.12.09,3.24,3.24,0,0,0-.72.19l-.16-1.08a4.37,4.37,0,0,1,.84-.22A7.27,7.27,0,0,1,467.81,153.54Zm.12,6.52c.3,0,.58,0,.82,0a3,3,0,0,0,.59-.08v-2.17a2.26,2.26,0,0,0-.45-.12,5.69,5.69,0,0,0-.77,0,4.59,4.59,0,0,0-.62,0,1.9,1.9,0,0,0-.6.17,1.28,1.28,0,0,0-.46.37.94.94,0,0,0-.18.61,1,1,0,0,0,.45,1A2.35,2.35,0,0,0,467.93,160.06Z" transform="translate(-9.62 -8.95)"/><path class="cls-1" d="M472.77,153.93l1.19-.24a10.91,10.91,0,0,1,1.71-.12,3.73,3.73,0,0,1,1.44.24,2.22,2.22,0,0,1,.92.69,2.54,2.54,0,0,1,.48,1.05,6.38,6.38,0,0,1,.14,1.36V161h-1.3v-3.81a6.31,6.31,0,0,0-.09-1.15,2,2,0,0,0-.3-.77,1.24,1.24,0,0,0-.56-.42,2.44,2.44,0,0,0-.87-.14l-.43,0-.43,0-.37.05-.23,0V161h-1.3Z" transform="translate(-9.62 -8.95)"/><path class="cls-1" d="M485.51,150.36l1.3-.22v10.65c-.3.08-.68.17-1.15.25a8.53,8.53,0,0,1-1.61.13,4,4,0,0,1-1.51-.27,3.14,3.14,0,0,1-1.88-2,4.65,4.65,0,0,1-.26-1.59,5,5,0,0,1,.22-1.54,3.14,3.14,0,0,1,.64-1.2,2.92,2.92,0,0,1,1-.79,3.67,3.67,0,0,1,2.51-.11,3.64,3.64,0,0,1,.72.32Zm0,4.9a2.69,2.69,0,0,0-.69-.38,2.54,2.54,0,0,0-1-.18,2.13,2.13,0,0,0-1,.2,1.9,1.9,0,0,0-.66.56,2.63,2.63,0,0,0-.36.85,5,5,0,0,0-.11,1.05,2.83,2.83,0,0,0,.63,2,2.16,2.16,0,0,0,1.68.69A7.28,7.28,0,0,0,485,160a5.19,5.19,0,0,0,.55-.1Z" transform="translate(-9.62 -8.95)"/><path class="cls-1" d="M493.59,154a3.64,3.64,0,0,1,.72-.32,3.67,3.67,0,0,1,2.51.11,2.92,2.92,0,0,1,1,.79,3.29,3.29,0,0,1,.64,1.2,5,5,0,0,1,.22,1.54,4.65,4.65,0,0,1-.26,1.59,3.14,3.14,0,0,1-1.88,2,4,4,0,0,1-1.52.27,8.67,8.67,0,0,1-1.61-.13c-.46-.08-.84-.17-1.14-.25V150.36l1.3-.22Zm0,5.83a5.19,5.19,0,0,0,.55.1,7.28,7.28,0,0,0,.89.05,2.16,2.16,0,0,0,1.68-.69,2.83,2.83,0,0,0,.63-2,5,5,0,0,0-.11-1.05,2.63,2.63,0,0,0-.36-.85,1.9,1.9,0,0,0-.66-.56,2.13,2.13,0,0,0-1-.2,2.54,2.54,0,0,0-1,.18,2.69,2.69,0,0,0-.69.38Z" transform="translate(-9.62 -8.95)"/><path class="cls-1" d="M506.33,160.79l-1.18.24a10.69,10.69,0,0,1-1.7.12,3.66,3.66,0,0,1-1.42-.24,2.31,2.31,0,0,1-.92-.69,2.9,2.9,0,0,1-.51-1.06,5.69,5.69,0,0,1-.15-1.35v-4.09h1.3v3.81a3.27,3.27,0,0,0,.42,1.9,1.64,1.64,0,0,0,1.41.58l.44,0,.42,0,.35,0,.24,0v-6.15h1.3Z" transform="translate(-9.62 -8.95)"/><path class="cls-1" d="M510.26,160.06a2.61,2.61,0,0,0,1.19-.21.71.71,0,0,0,.38-.67.88.88,0,0,0-.38-.76,6.54,6.54,0,0,0-1.24-.63c-.28-.11-.55-.22-.81-.34a2.65,2.65,0,0,1-.66-.41,1.71,1.71,0,0,1-.45-.58,1.84,1.84,0,0,1-.17-.82,1.88,1.88,0,0,1,.71-1.54,3.12,3.12,0,0,1,1.95-.56c.21,0,.41,0,.62,0s.39.05.57.09a4.24,4.24,0,0,1,.47.1l.31.1-.23,1.12a3.67,3.67,0,0,0-.66-.23,4.24,4.24,0,0,0-1.08-.12,1.93,1.93,0,0,0-.95.22.72.72,0,0,0-.41.68,1,1,0,0,0,.09.42.94.94,0,0,0,.28.32,2.92,2.92,0,0,0,.47.28c.19.08.41.17.68.26s.65.26.92.39a2.92,2.92,0,0,1,.69.44,1.68,1.68,0,0,1,.44.61,2.08,2.08,0,0,1,.16.87,1.74,1.74,0,0,1-.75,1.53,3.7,3.7,0,0,1-2.14.52,5.94,5.94,0,0,1-1.51-.16,7.36,7.36,0,0,1-.74-.25l.24-1.12.71.25A3.9,3.9,0,0,0,510.26,160.06Z" transform="translate(-9.62 -8.95)"/><path class="cls-1" d="M438.94,253v-9.7h5.92v1.16H440.3v2.89h4.06v1.13H440.3v3.36h4.91V253Z" transform="translate(-9.62 -8.95)"/><path class="cls-1" d="M452.19,245.73a40,40,0,0,1-1.28,3.92c-.49,1.25-1,2.37-1.43,3.36h-1.17c-.46-1-.93-2.11-1.42-3.36a35.27,35.27,0,0,1-1.28-3.92H447c.11.46.24,1,.4,1.47s.31,1,.48,1.54.35,1,.53,1.47.35.9.5,1.28c.16-.38.33-.8.51-1.28s.35-1,.52-1.47.34-1,.49-1.54.29-1,.4-1.47Z" transform="translate(-9.62 -8.95)"/><path class="cls-1" d="M452.93,249.39a4.57,4.57,0,0,1,.28-1.69,3.44,3.44,0,0,1,.74-1.2,3.14,3.14,0,0,1,1.06-.71,3.37,3.37,0,0,1,1.24-.24,2.8,2.8,0,0,1,2.25.92,4.22,4.22,0,0,1,.79,2.79v.22a1.66,1.66,0,0,1,0,.24h-5a2.63,2.63,0,0,0,.66,1.73,2.39,2.39,0,0,0,1.79.58,4.72,4.72,0,0,0,1.15-.12,3.28,3.28,0,0,0,.71-.23l.18,1.1a4.11,4.11,0,0,1-.83.26,6.15,6.15,0,0,1-1.35.14,4.13,4.13,0,0,1-1.65-.29,3,3,0,0,1-1.14-.79,3.23,3.23,0,0,1-.67-1.19A5.27,5.27,0,0,1,452.93,249.39Zm5-.72a2.22,2.22,0,0,0-.44-1.45,1.56,1.56,0,0,0-1.26-.56,1.8,1.8,0,0,0-.79.17,1.88,1.88,0,0,0-.58.46,2,2,0,0,0-.37.64,3.2,3.2,0,0,0-.18.74Z" transform="translate(-9.62 -8.95)"/><path class="cls-1" d="M461.16,245.94c.3-.07.7-.15,1.19-.23a9.68,9.68,0,0,1,1.71-.13,3.73,3.73,0,0,1,1.44.24,2.4,2.4,0,0,1,.92.69,2.58,2.58,0,0,1,.48,1.06,6.32,6.32,0,0,1,.14,1.36V253h-1.3v-3.8a6.31,6.31,0,0,0-.09-1.15,1.88,1.88,0,0,0-.3-.77,1.2,1.2,0,0,0-.56-.43,2.49,2.49,0,0,0-.87-.13h-.44l-.42,0-.37.05-.23,0V253h-1.3Z" transform="translate(-9.62 -8.95)"/><path class="cls-1" d="M470.41,245.73h2.76v1.1h-2.76v3.36a3.79,3.79,0,0,0,.09.9,1.32,1.32,0,0,0,.25.56,1,1,0,0,0,.42.29,2.1,2.1,0,0,0,.59.08,2.73,2.73,0,0,0,.94-.13l.5-.19.25,1.08a6.53,6.53,0,0,1-.68.24,3.84,3.84,0,0,1-1.12.15,3.53,3.53,0,0,1-1.23-.19,1.89,1.89,0,0,1-.78-.57,2.33,2.33,0,0,1-.41-.93,6.06,6.06,0,0,1-.12-1.28v-6.5l1.3-.22Z" transform="translate(-9.62 -8.95)"/><path class="cls-1" d="M479.36,246.06a3.57,3.57,0,0,1,.72-.33,3.42,3.42,0,0,1,1.11-.16,3.27,3.27,0,0,1,1.4.28,2.82,2.82,0,0,1,1,.78,3.44,3.44,0,0,1,.63,1.2,5,5,0,0,1,.22,1.54,4.65,4.65,0,0,1-.26,1.59,3.45,3.45,0,0,1-.73,1.2,3.25,3.25,0,0,1-1.15.76,4.23,4.23,0,0,1-1.51.26,9.53,9.53,0,0,1-1.61-.12c-.47-.09-.85-.17-1.15-.26V242.37l1.3-.22Zm0,5.82a3.7,3.7,0,0,0,.55.1,5.71,5.71,0,0,0,.89.05,2.16,2.16,0,0,0,1.68-.69,2.83,2.83,0,0,0,.63-2,5,5,0,0,0-.11-1.05,2.37,2.37,0,0,0-.36-.84,1.71,1.71,0,0,0-.66-.56,2,2,0,0,0-1-.21,2.38,2.38,0,0,0-1,.19,2.7,2.7,0,0,0-.69.37Z" transform="translate(-9.62 -8.95)"/><path class="cls-1" d="M492.1,252.8c-.3.08-.69.16-1.18.24a9.56,9.56,0,0,1-1.7.13,3.54,3.54,0,0,1-1.42-.25,2.22,2.22,0,0,1-.92-.69,2.67,2.67,0,0,1-.5-1.06,5.1,5.1,0,0,1-.16-1.35v-4.09h1.3v3.81a3.33,3.33,0,0,0,.42,1.91,1.64,1.64,0,0,0,1.42.57h.43l.42,0,.36,0,.23-.05v-6.15h1.3Z" transform="translate(-9.62 -8.95)"/><path class="cls-1" d="M496,252.08a2.56,2.56,0,0,0,1.18-.21.73.73,0,0,0,.38-.68.87.87,0,0,0-.38-.75,5.53,5.53,0,0,0-1.24-.63c-.28-.11-.55-.23-.81-.35a2.73,2.73,0,0,1-.66-.41,1.78,1.78,0,0,1-.45-.57,1.89,1.89,0,0,1-.17-.83,1.85,1.85,0,0,1,.72-1.53,3,3,0,0,1,1.94-.57,4.3,4.3,0,0,1,.62,0l.57.08a3.66,3.66,0,0,1,.47.11l.32.09-.24,1.12a3.67,3.67,0,0,0-.66-.23,4.24,4.24,0,0,0-1.08-.12,2,2,0,0,0-.95.22.73.73,0,0,0-.41.68.82.82,0,0,0,.1.42,1,1,0,0,0,.27.33,2.16,2.16,0,0,0,.48.27c.18.09.41.17.67.27s.65.26.92.38a3.27,3.27,0,0,1,.69.44,1.68,1.68,0,0,1,.44.61,2.1,2.1,0,0,1,.16.88,1.72,1.72,0,0,1-.75,1.52,3.68,3.68,0,0,1-2.13.52,5.54,5.54,0,0,1-1.52-.16l-.74-.24.24-1.12.71.25A4.2,4.2,0,0,0,496,252.08Z" transform="translate(-9.62 -8.95)"/><path class="cls-1" d="M714.21,422.67V413h5.85v1.17h-4.5v2.92h4v1.15h-4v4.47Z" transform="translate(-9.62 -8.95)"/><path class="cls-1" d="M723.82,422.81a2.5,2.5,0,0,1-1.71-.52,2.09,2.09,0,0,1-.5-1.53V412l1.3-.23v8.75a1.93,1.93,0,0,0,.06.53.79.79,0,0,0,.18.34.8.8,0,0,0,.34.19,2.88,2.88,0,0,0,.51.1Z" transform="translate(-9.62 -8.95)"/><path class="cls-1" d="M731.89,419a4.48,4.48,0,0,1-.26,1.56,3.53,3.53,0,0,1-.7,1.21,3.4,3.4,0,0,1-1.09.78,3.45,3.45,0,0,1-1.37.27A3.23,3.23,0,0,1,726,421.8a3.53,3.53,0,0,1-.7-1.21,4.48,4.48,0,0,1-.26-1.56,4.56,4.56,0,0,1,.26-1.56,3.48,3.48,0,0,1,.7-1.22,3.23,3.23,0,0,1,1.09-.77,3.42,3.42,0,0,1,1.37-.28,3.46,3.46,0,0,1,1.37.28,3.23,3.23,0,0,1,1.09.77,3.48,3.48,0,0,1,.7,1.22A4.56,4.56,0,0,1,731.89,419Zm-1.36,0a3.15,3.15,0,0,0-.56-2,1.77,1.77,0,0,0-1.5-.72,1.81,1.81,0,0,0-1.51.72,3.75,3.75,0,0,0,0,3.91,1.81,1.81,0,0,0,1.51.72A1.77,1.77,0,0,0,730,421,3.12,3.12,0,0,0,730.53,419Z" transform="translate(-9.62 -8.95)"/><path class="cls-1" d="M739.49,422.67c-.26-.67-.54-1.44-.83-2.31s-.57-1.76-.81-2.69c-.24.93-.51,1.83-.8,2.69s-.56,1.64-.82,2.31h-1.14c-.43-1-.85-2.06-1.26-3.29s-.79-2.57-1.16-4h1.4c.09.44.21.91.34,1.42s.26,1,.41,1.54.3,1,.46,1.49.3.89.44,1.24c.16-.43.32-.9.47-1.39s.3-1,.44-1.48.28-1,.4-1.47.24-.93.33-1.35h1.08c.08.42.18.87.31,1.35s.25,1,.39,1.47.29,1,.44,1.48.31,1,.47,1.39c.14-.35.29-.77.44-1.24l.46-1.49.42-1.54c.12-.51.24-1,.33-1.42H743c-.36,1.42-.75,2.75-1.16,4s-.83,2.33-1.26,3.29Z" transform="translate(-9.62 -8.95)"/><path class="cls-1" d="M749,415.71a3.64,3.64,0,0,1,.72-.32,3.22,3.22,0,0,1,1.12-.17,3.26,3.26,0,0,1,1.39.28,3.06,3.06,0,0,1,1,.78,3.58,3.58,0,0,1,.64,1.21,5.31,5.31,0,0,1,.21,1.54,4.73,4.73,0,0,1-.26,1.59,3.32,3.32,0,0,1-.73,1.19,3.25,3.25,0,0,1-1.15.76,4,4,0,0,1-1.51.26,9.53,9.53,0,0,1-1.61-.12c-.47-.09-.85-.17-1.15-.25V412l1.3-.23Zm0,5.82a3.51,3.51,0,0,0,.55.11,7.28,7.28,0,0,0,.89.05,2.14,2.14,0,0,0,1.68-.7,2.8,2.8,0,0,0,.63-2,4.34,4.34,0,0,0-.11-1,2.25,2.25,0,0,0-.36-.85,1.85,1.85,0,0,0-.65-.56,2.06,2.06,0,0,0-1-.2,2.59,2.59,0,0,0-1,.18,2.69,2.69,0,0,0-.69.38Z" transform="translate(-9.62 -8.95)"/><path class="cls-1" d="M761.69,422.46c-.3.07-.69.15-1.18.23a9.56,9.56,0,0,1-1.7.13,3.73,3.73,0,0,1-1.42-.24,2.33,2.33,0,0,1-.92-.7,2.84,2.84,0,0,1-.5-1.05,5.23,5.23,0,0,1-.16-1.36v-4.08h1.3v3.8a3.31,3.31,0,0,0,.42,1.91,1.66,1.66,0,0,0,1.42.57h.43l.42,0,.36,0a.8.8,0,0,0,.23-.05v-6.14h1.3Z" transform="translate(-9.62 -8.95)"/><path class="cls-1" d="M765.63,421.73a2.56,2.56,0,0,0,1.18-.21.71.71,0,0,0,.38-.67.9.9,0,0,0-.37-.76,5.89,5.89,0,0,0-1.25-.63l-.8-.34a2.94,2.94,0,0,1-.67-.42,1.68,1.68,0,0,1-.45-.57,2,2,0,0,1,.55-2.36,3,3,0,0,1,1.94-.57c.21,0,.41,0,.62,0l.57.08.47.11.32.1-.24,1.12a3,3,0,0,0-.66-.23,4.24,4.24,0,0,0-1.08-.12,2,2,0,0,0-.95.21.72.72,0,0,0-.4.68.93.93,0,0,0,.09.42,1,1,0,0,0,.28.33,1.88,1.88,0,0,0,.47.27,5.79,5.79,0,0,0,.67.27c.34.13.65.26.92.39a2.63,2.63,0,0,1,.69.44,1.62,1.62,0,0,1,.45.61,2.22,2.22,0,0,1,.15.87,1.75,1.75,0,0,1-.75,1.53,3.77,3.77,0,0,1-2.13.51,5.54,5.54,0,0,1-1.52-.16c-.36-.1-.61-.19-.74-.24l.24-1.12.71.25A4.2,4.2,0,0,0,765.63,421.73Z" transform="translate(-9.62 -8.95)"/><path class="cls-1" d="M216.89,68l.56.74c.23.3.47.64.71,1s.48.76.72,1.16a11.93,11.93,0,0,1,.61,1.16H218c-.19-.35-.39-.71-.61-1.08s-.44-.71-.67-1-.44-.64-.66-.93-.42-.54-.6-.76l-.37,0h-1.6v3.79h-1.36V62.49a7.69,7.69,0,0,1,1.28-.19c.47,0,.9,0,1.3,0a5.3,5.3,0,0,1,3.11.77,2.67,2.67,0,0,1,1.07,2.3,2.7,2.7,0,0,1-.51,1.65A3,3,0,0,1,216.89,68Zm-2.06-4.55c-.58,0-1,0-1.33,0v3.66h1a11.64,11.64,0,0,0,1.26-.07,3,3,0,0,0,.95-.27,1.42,1.42,0,0,0,.59-.55,1.86,1.86,0,0,0,.21-1,1.83,1.83,0,0,0-.21-.91,1.61,1.61,0,0,0-.56-.57,2.38,2.38,0,0,0-.84-.29A5.72,5.72,0,0,0,214.83,63.44Z" transform="translate(-9.62 -8.95)"/><path class="cls-1" d="M220.46,68.43a4.57,4.57,0,0,1,.28-1.69,3.44,3.44,0,0,1,.74-1.2,3,3,0,0,1,1.06-.71,3.28,3.28,0,0,1,1.23-.24,2.83,2.83,0,0,1,2.26.92,4.22,4.22,0,0,1,.78,2.79v.22a1.77,1.77,0,0,1,0,.24h-5a2.68,2.68,0,0,0,.66,1.72,2.37,2.37,0,0,0,1.79.59,4.75,4.75,0,0,0,1.16-.12,3.55,3.55,0,0,0,.7-.23l.19,1.09a3.41,3.41,0,0,1-.84.27,6,6,0,0,1-1.35.14,4.29,4.29,0,0,1-1.64-.29,3,3,0,0,1-1.14-.79,3.2,3.2,0,0,1-.67-1.2A5.15,5.15,0,0,1,220.46,68.43Zm5-.72a2.15,2.15,0,0,0-.44-1.45,1.5,1.5,0,0,0-1.25-.56,1.67,1.67,0,0,0-.79.17,1.88,1.88,0,0,0-.58.46A1.85,1.85,0,0,0,222,67a3.2,3.2,0,0,0-.18.74Z" transform="translate(-9.62 -8.95)"/><path class="cls-1" d="M231,64.59a3.9,3.9,0,0,1,1.32.2,2.18,2.18,0,0,1,.87.58,2.08,2.08,0,0,1,.47.88,4.43,4.43,0,0,1,.14,1.13v4.55l-.47.07a5.93,5.93,0,0,1-.68.09l-.82.08c-.29,0-.58,0-.87,0a5.1,5.1,0,0,1-1.14-.13,2.5,2.5,0,0,1-.89-.4,1.82,1.82,0,0,1-.59-.72,2.54,2.54,0,0,1-.21-1.08,2.09,2.09,0,0,1,.24-1,2,2,0,0,1,.67-.7,3.2,3.2,0,0,1,1-.4,5.55,5.55,0,0,1,1.18-.12,2.75,2.75,0,0,1,.4,0l.4,0,.33.07.2,0v-.36a3.39,3.39,0,0,0-.07-.64,1.52,1.52,0,0,0-.26-.56,1.2,1.2,0,0,0-.49-.39,1.94,1.94,0,0,0-.82-.15,6.23,6.23,0,0,0-1.13.09,3.58,3.58,0,0,0-.72.19l-.15-1.08a4,4,0,0,1,.84-.22A7.19,7.19,0,0,1,231,64.59Zm.11,6.52c.31,0,.58,0,.82,0a4.14,4.14,0,0,0,.6-.07V68.85a1.57,1.57,0,0,0-.46-.12,4.2,4.2,0,0,0-.76,0,4.64,4.64,0,0,0-.63,0,2.21,2.21,0,0,0-.6.17,1.24,1.24,0,0,0-.45.37,1,1,0,0,0-.18.61,1,1,0,0,0,.44,1A2.37,2.37,0,0,0,231.15,71.11Z" transform="translate(-9.62 -8.95)"/><path class="cls-1" d="M240.7,61.41l1.3-.22V71.84a10,10,0,0,1-1.15.25,8.53,8.53,0,0,1-1.61.13,4,4,0,0,1-1.51-.27,3.23,3.23,0,0,1-1.15-.75,3.45,3.45,0,0,1-.73-1.2,4.42,4.42,0,0,1-.26-1.59,5,5,0,0,1,.22-1.54,3.35,3.35,0,0,1,.63-1.2,3,3,0,0,1,1-.79,3.67,3.67,0,0,1,2.51-.11,3.64,3.64,0,0,1,.72.32Zm0,4.9a3,3,0,0,0-.69-.38,2.59,2.59,0,0,0-1-.18,2.19,2.19,0,0,0-1,.2,2,2,0,0,0-.65.56,2.33,2.33,0,0,0-.36.85,4.45,4.45,0,0,0-.11,1,2.83,2.83,0,0,0,.63,2,2.16,2.16,0,0,0,1.68.69,5.71,5.71,0,0,0,.89,0,3.7,3.7,0,0,0,.55-.1Z" transform="translate(-9.62 -8.95)"/><path class="cls-1" d="M247.47,65l1.19-.24a10.6,10.6,0,0,1,1.7-.12,3,3,0,0,1,1.17.19,2,2,0,0,1,.8.55l.31-.2a3.71,3.71,0,0,1,.52-.24,5,5,0,0,1,.68-.21,3.62,3.62,0,0,1,.82-.09,3.37,3.37,0,0,1,1.37.24,2,2,0,0,1,.83.7,2.64,2.64,0,0,1,.41,1.06,8,8,0,0,1,.1,1.34v4.09h-1.3V68.24a8.66,8.66,0,0,0-.06-1.1,2,2,0,0,0-.24-.77,1.12,1.12,0,0,0-.48-.46,1.74,1.74,0,0,0-.77-.14,2.87,2.87,0,0,0-1.09.17,2,2,0,0,0-.58.32,5.46,5.46,0,0,1,.17.79,6.75,6.75,0,0,1,0,.91v4.09h-1.3V68.24a7,7,0,0,0-.07-1.1,2.18,2.18,0,0,0-.24-.77,1.12,1.12,0,0,0-.48-.46,1.69,1.69,0,0,0-.76-.14h-.42l-.43,0-.37,0-.22,0v6.14h-1.31Z" transform="translate(-9.62 -8.95)"/><path class="cls-1" d="M266,68.41A4.58,4.58,0,0,1,265.7,70a3.55,3.55,0,0,1-.7,1.2,3.12,3.12,0,0,1-1.09.78,3.45,3.45,0,0,1-1.37.27,3.42,3.42,0,0,1-1.37-.27,3,3,0,0,1-1.09-.78,3.57,3.57,0,0,1-.71-1.2,5,5,0,0,1,0-3.13,3.72,3.72,0,0,1,.71-1.21,3,3,0,0,1,1.09-.78,3.42,3.42,0,0,1,1.37-.27,3.45,3.45,0,0,1,1.37.27,3.12,3.12,0,0,1,1.09.78,3.7,3.7,0,0,1,.7,1.21A4.56,4.56,0,0,1,266,68.41Zm-1.35,0a3.12,3.12,0,0,0-.56-2,1.93,1.93,0,0,0-3,0,3.73,3.73,0,0,0,0,3.9,1.92,1.92,0,0,0,3,0A3.12,3.12,0,0,0,264.6,68.41Z" transform="translate(-9.62 -8.95)"/><path class="cls-1" d="M272.49,61.41l1.3-.22V71.84a9.73,9.73,0,0,1-1.14.25,8.67,8.67,0,0,1-1.61.13,4.07,4.07,0,0,1-1.52-.27,3.19,3.19,0,0,1-1.14-.75,3.33,3.33,0,0,1-.74-1.2,4.65,4.65,0,0,1-.26-1.59,5,5,0,0,1,.22-1.54,3.37,3.37,0,0,1,.64-1.2,2.92,2.92,0,0,1,1-.79,3.67,3.67,0,0,1,2.51-.11,3.64,3.64,0,0,1,.72.32Zm0,4.9a3.16,3.16,0,0,0-.68-.38,2.63,2.63,0,0,0-1-.18,2.13,2.13,0,0,0-1,.2,1.78,1.78,0,0,0-.65.56,2.52,2.52,0,0,0-.37.85,5,5,0,0,0-.11,1,2.83,2.83,0,0,0,.63,2,2.16,2.16,0,0,0,1.68.69,5.71,5.71,0,0,0,.89,0,3.46,3.46,0,0,0,.55-.1Z" transform="translate(-9.62 -8.95)"/><path class="cls-1" d="M275.63,68.43a4.57,4.57,0,0,1,.28-1.69,3.44,3.44,0,0,1,.74-1.2,3,3,0,0,1,1.06-.71,3.37,3.37,0,0,1,1.24-.24,2.8,2.8,0,0,1,2.25.92A4.22,4.22,0,0,1,282,68.3v.22a1.77,1.77,0,0,1,0,.24h-5a2.63,2.63,0,0,0,.65,1.72,2.4,2.4,0,0,0,1.8.59,4.72,4.72,0,0,0,1.15-.12,3.94,3.94,0,0,0,.71-.23l.18,1.09a3.46,3.46,0,0,1-.83.27,6.15,6.15,0,0,1-1.35.14,4.31,4.31,0,0,1-1.65-.29,3,3,0,0,1-1.14-.79,3.2,3.2,0,0,1-.67-1.2A5.15,5.15,0,0,1,275.63,68.43Zm5-.72a2.26,2.26,0,0,0-.44-1.45,1.53,1.53,0,0,0-1.26-.56,1.67,1.67,0,0,0-.79.17,1.88,1.88,0,0,0-.58.46,2,2,0,0,0-.37.64,3.2,3.2,0,0,0-.18.74Z" transform="translate(-9.62 -8.95)"/><path class="cls-1" d="M286,72.19a2.46,2.46,0,0,1-1.7-.52,2,2,0,0,1-.51-1.52V61.41l1.3-.22v8.75a2,2,0,0,0,.06.53.65.65,0,0,0,.52.52,2.75,2.75,0,0,0,.52.11Z" transform="translate(-9.62 -8.95)"/><path class="cls-1" d="M40.31,378c-2.09-2.09-2.14-4.6-.49-6.25a3.38,3.38,0,0,1,2.59-1l.09,1a2.52,2.52,0,0,0-1.94.71c-1.23,1.23-1,3.05.58,4.67s3.45,1.88,4.68.65a2.77,2.77,0,0,0,.77-2.24l1,.06a3.58,3.58,0,0,1-1.05,2.94C44.89,380.19,42.43,380.15,40.31,378Z" transform="translate(-9.62 -8.95)"/><path class="cls-1" d="M47,373.09c-1.61-1.61-1.48-3.58-.3-4.76s3.15-1.31,4.76.3A3.18,3.18,0,1,1,47,373.09Zm3.62-3.61c-1.11-1.11-2.42-1.31-3.25-.48s-.63,2.14.47,3.25,2.41,1.28,3.23.45S51.67,370.57,50.57,369.48Z" transform="translate(-9.62 -8.95)"/><path class="cls-1" d="M50.46,364.75l.67-.67.76.62,0,0a3,3,0,0,1,.69-2.31,1.76,1.76,0,0,1,2.24-.41,3.18,3.18,0,0,1,.67-2.5c1-1,2.12-.82,3.34.41l3.06,3.05-.82.81-2.94-2.94c-.9-.9-1.57-1-2.18-.39a2.51,2.51,0,0,0-.46,2L59,365.83l-.81.82-2.94-2.95c-.9-.9-1.58-1-2.19-.38a2.57,2.57,0,0,0-.47,1.95l3.49,3.49-.81.81Z" transform="translate(-9.62 -8.95)"/><path class="cls-1" d="M58.86,356.35l.67-.67.77.62,0,0A3,3,0,0,1,61,354a1.79,1.79,0,0,1,2.25-.4,3.25,3.25,0,0,1,.66-2.51c1-1,2.12-.81,3.35.42l3,3-.81.81-2.94-2.94c-.9-.9-1.58-1-2.18-.4a2.48,2.48,0,0,0-.47,1.95l3.49,3.49-.81.81-2.95-2.94c-.9-.9-1.57-1-2.19-.39a2.6,2.6,0,0,0-.46,2l3.49,3.48-.82.81Z" transform="translate(-9.62 -8.95)"/><path class="cls-1" d="M70.53,351.81c-1-1.05-.67-2.48,1.15-4.76-.61-.61-1.41-1-2.2-.21a3.7,3.7,0,0,0-.92,2l-.88-.25A5.15,5.15,0,0,1,69,346c1.18-1.17,2.46-.89,3.65.31l3,2.95-.67.68-.64-.51,0,0a3.68,3.68,0,0,1-.9,2.29A1.86,1.86,0,0,1,70.53,351.81Zm3-2.88-1.33-1.34c-1.41,1.8-1.57,2.75-1,3.37a1.06,1.06,0,0,0,1.62-.08A2.75,2.75,0,0,0,73.55,348.93Z" transform="translate(-9.62 -8.95)"/><path class="cls-1" d="M72.45,342.76l.68-.68.76.63,0,0a3.24,3.24,0,0,1,.8-2.43c1-1,2.12-.81,3.35.42l3.05,3.05-.81.81-2.94-2.94c-.91-.9-1.57-1-2.2-.38a2.59,2.59,0,0,0-.58,2.06l3.49,3.49-.82.81Z" transform="translate(-9.62 -8.95)"/><path class="cls-1" d="M80.13,339.91c-1.56-1.57-1.54-3.53-.44-4.63a2.82,2.82,0,0,1,1.9-.79l-.86-.78-1.85-1.85.82-.83,7,7.06-.67.67-.64-.5,0,0a3,3,0,0,1-.77,2.14C83.43,341.64,81.74,341.51,80.13,339.91Zm4.57-2.23-2.52-2.52a2.36,2.36,0,0,0-1.67.67c-.77.77-.64,2.13.46,3.23s2.32,1.35,3.17.51A2.31,2.31,0,0,0,84.7,337.68Z" transform="translate(-9.62 -8.95)"/><path class="cls-1" d="M87.49,336.26l-.14-.95a3,3,0,0,0,2-.85c.64-.63.62-1.28.2-1.7s-1.29-.14-2,.19c-.93.43-2,.86-2.82.05s-.75-2,.29-3a3.34,3.34,0,0,1,2-1l.12.9a2.54,2.54,0,0,0-1.52.67c-.61.61-.56,1.21-.19,1.58s1.15.09,1.9-.24c1-.44,2-.92,2.92,0s.82,2.06-.32,3.2A4.16,4.16,0,0,1,87.49,336.26Z" transform="translate(-9.62 -8.95)"/><path class="cls-1" d="M93.78,333.48a1.84,1.84,0,0,0-.32-2.1.29.29,0,0,1-.09.1.77.77,0,0,1-1.15,0,.82.82,0,0,1,0-1.18c.43-.43,1-.32,1.65.27a2.78,2.78,0,0,1,.55,3.15Z" transform="translate(-9.62 -8.95)"/><path class="cls-1" d="M91.34,320.5l3.74-3.74.7.69-2.93,2.92,2,2.05L97.36,320l.7.7-2.46,2.47L98,325.48l3-3,.7.71L97.84,327Z" transform="translate(-9.62 -8.95)"/><path class="cls-1" d="M97.57,317.64l.84-.84,3.64,1.82c.62.34,1.26.67,1.87,1l0,0c-.32-.59-.65-1.23-1-1.85l-1.83-3.64.8-.8,3.11,6.51-1,1Z" transform="translate(-9.62 -8.95)"/><path class="cls-1" d="M105.1,314.94a3.28,3.28,0,0,1-.37-4.69c1.22-1.23,2.8-1,4.17.33a4.5,4.5,0,0,1,.44.5l-3.25,3.25a2.26,2.26,0,0,0,3.28.07,3.06,3.06,0,0,0,.82-1.58l.82.25a4,4,0,0,1-1.09,2.08A3.25,3.25,0,0,1,105.1,314.94Zm3-3.76c-1-1-1.93-1.06-2.68-.31a2.11,2.11,0,0,0,.11,2.88Z" transform="translate(-9.62 -8.95)"/><path class="cls-1" d="M108.15,307.06l.67-.67.76.62,0,0a3.17,3.17,0,0,1,.81-2.42c1-1,2.12-.82,3.34.41l3.06,3-.82.81-2.94-2.94c-.9-.9-1.56-1-2.2-.37a2.62,2.62,0,0,0-.57,2.06l3.48,3.48-.81.82Z" transform="translate(-9.62 -8.95)"/><path class="cls-1" d="M117.23,304.64,114.56,302l-.71.72-.61-.62.7-.8-1.25-1.45.69-.68,1.34,1.35,1.3-1.3.66.66-1.29,1.3,2.67,2.67c.6.6,1.12.75,1.67.19a2.44,2.44,0,0,0,.42-.67l.77.46a3.86,3.86,0,0,1-.71,1.06C119.18,305.9,118.18,305.59,117.23,304.64Z" transform="translate(-9.62 -8.95)"/><path class="cls-1" d="M120.94,302.81l-.14-1a3,3,0,0,0,2-.84c.64-.63.62-1.28.2-1.7s-1.29-.14-2,.19c-.93.43-2,.86-2.82.05s-.75-2,.29-3a3.34,3.34,0,0,1,2-.95l.13.9a2.51,2.51,0,0,0-1.53.67c-.6.6-.56,1.21-.19,1.58s1.15.09,1.9-.24c1-.44,2-.92,2.93,0s.81,2.06-.33,3.2A4.16,4.16,0,0,1,120.94,302.81Z" transform="translate(-9.62 -8.95)"/><path class="cls-1" d="M127.23,300a1.85,1.85,0,0,0-.32-2.1.48.48,0,0,1-.09.11.77.77,0,0,1-1.15,0,.81.81,0,0,1,0-1.17c.43-.43,1-.32,1.65.27a2.78,2.78,0,0,1,.55,3.15Z" transform="translate(-9.62 -8.95)"/><path class="cls-1" d="M133.37,291.65c-1.62,1.22-3.83.91-5.74-1-2.08-2.08-2.2-4.48-.56-6.11s4.05-1.52,6.12.55c1.87,1.87,2.2,4,1.06,5.66a2.42,2.42,0,0,0,2.46-.74,3.52,3.52,0,0,0,.59-.77l.79.48a3.93,3.93,0,0,1-.78,1.08A3.54,3.54,0,0,1,133.37,291.65Zm-1-5.7c-1.62-1.61-3.38-1.85-4.54-.69s-.92,2.92.69,4.54,3.48,1.95,4.64.79S134,287.62,132.33,286Z" transform="translate(-9.62 -8.95)"/><path class="cls-1" d="M136.15,285.16l-3.05-3.05.82-.82,2.94,2.94c.9.9,1.56,1,2.19.39a2.36,2.36,0,0,0,.49-2.11l-3.42-3.42.81-.81,4.81,4.81-.67.68-.82-.69,0,0a2.86,2.86,0,0,1-.72,2.46C138.49,286.59,137.38,286.39,136.15,285.16Z" transform="translate(-9.62 -8.95)"/><path class="cls-1" d="M140.81,279.23a3.27,3.27,0,0,1-.38-4.69c1.23-1.23,2.81-1,4.18.34a3.72,3.72,0,0,1,.44.49l-3.25,3.25a2.26,2.26,0,0,0,3.28.07,3.14,3.14,0,0,0,.82-1.58l.82.25a4,4,0,0,1-1.09,2.08A3.25,3.25,0,0,1,140.81,279.23Zm3-3.76c-1-1-1.93-1.06-2.68-.31a2.1,2.1,0,0,0,.11,2.89Z" transform="translate(-9.62 -8.95)"/><path class="cls-1" d="M143.86,271.35l.67-.67.94.8,0,0a2.3,2.3,0,0,1,.38-2.35,1.68,1.68,0,0,1,.61-.42l.56.87a1.92,1.92,0,0,0-.55.39c-.4.4-.59,1.18-.11,2.32l3.09,3.09-.81.82Z" transform="translate(-9.62 -8.95)"/><path class="cls-1" d="M145.83,266.35a.8.8,0,0,1,1.12-1.13.8.8,0,0,1-1.12,1.13Zm1.66,1.37.81-.81,4.82,4.81-.82.81Z" transform="translate(-9.62 -8.95)"/><path class="cls-1" d="M152.18,267.86a3.28,3.28,0,0,1-.37-4.69c1.22-1.23,2.8-1,4.18.33a5.57,5.57,0,0,1,.43.5l-3.25,3.25a2.26,2.26,0,0,0,3.28.07,3,3,0,0,0,.82-1.58l.83.25a4.13,4.13,0,0,1-1.09,2.08A3.26,3.26,0,0,1,152.18,267.86Zm3-3.76c-1-1-1.94-1.06-2.69-.31a2.11,2.11,0,0,0,.11,2.88Z" transform="translate(-9.62 -8.95)"/><path class="cls-1" d="M159,264.78l-.13-.95a3.1,3.1,0,0,0,2-.84c.63-.63.61-1.29.19-1.7s-1.28-.14-2,.19c-.93.43-2,.86-2.82,0s-.75-2,.29-3a3.4,3.4,0,0,1,2-.95l.13.9a2.53,2.53,0,0,0-1.53.68c-.6.6-.55,1.21-.19,1.57s1.15.1,1.91-.23c.95-.44,2-.93,2.92,0s.81,2.06-.33,3.19A4,4,0,0,1,159,264.78Z" transform="translate(-9.62 -8.95)"/><path class="cls-1" d="M94.15,500.51l1.93,1.93c1.32,1.32,1.79,2.68.65,3.82a2,2,0,0,1-2.37.46l0,0a2.13,2.13,0,0,1-.23,2.89c-1.28,1.27-2.91.89-4.37-.57L87.65,507Zm-3.89,7.8c1.12,1.12,2.18,1.36,3,.49s.53-1.8-.6-2.94l-1.13-1.13-2.45,2.45Zm2.91-3.25c1.11,1.11,2,1.16,2.63.49s.53-1.55-.48-2.56l-1-1-2.11,2.11Z" transform="translate(-9.62 -8.95)"/><path class="cls-1" d="M94.56,512l6.09-6.08.81.81-6.14,6.14c-.26.26-.25.47-.13.59a.73.73,0,0,0,.2.15l-.51.73a1.46,1.46,0,0,1-.54-.39C93.72,513.32,93.86,512.68,94.56,512Z" transform="translate(-9.62 -8.95)"/><path class="cls-1" d="M98.36,512.92c1.61-1.61,3.58-1.49,4.76-.31s1.31,3.15-.31,4.77a3.17,3.17,0,1,1-4.45-4.46Zm3.61,3.62c1.11-1.11,1.31-2.42.48-3.25s-2.14-.64-3.25.47-1.28,2.41-.46,3.23S100.87,517.63,102,516.54Z" transform="translate(-9.62 -8.95)"/><path class="cls-1" d="M103.13,521.49l0,0-.57.43-.65-.65,7.05-7.06.81.82-1.92,1.92-.89.85a3.41,3.41,0,0,1,2.18.83c1.25,1.25,1,2.87-.54,4.36s-3.58,1.62-4.68.53A3,3,0,0,1,103.13,521.49Zm4.59.64c1.06-1.06,1.42-2.13.51-3a2.8,2.8,0,0,0-1.94-.64L103.76,521a2.68,2.68,0,0,0,.67,1.68C105.23,523.46,106.53,523.32,107.72,522.13Z" transform="translate(-9.62 -8.95)"/><path class="cls-1" d="M107.56,525.83l1-.14a3,3,0,0,0,.85,2c.63.64,1.28.62,1.7.2s.14-1.29-.19-2c-.44-.93-.86-2-.05-2.82s2-.76,3,.28a3.39,3.39,0,0,1,1,2l-.9.13a2.54,2.54,0,0,0-.67-1.52c-.61-.61-1.21-.56-1.58-.19s-.1,1.15.24,1.9c.44.95.92,2,0,2.92s-2.06.81-3.2-.32A4.16,4.16,0,0,1,107.56,525.83Z" transform="translate(-9.62 -8.95)"/><g class="cls-11"><path class="cls-5" d="M331.11,168.41c0-3,1.73-4.77,4.07-4.77a3.4,3.4,0,0,1,2.53,1.14l-.64.75a2.52,2.52,0,0,0-1.87-.86c-1.74,0-2.89,1.42-2.89,3.71s1.11,3.77,2.85,3.77a2.76,2.76,0,0,0,2.12-1l.65.73a3.57,3.57,0,0,1-2.82,1.33C332.82,173.17,331.11,171.4,331.11,168.41Z" transform="translate(-9.62 -8.95)"/><path class="cls-5" d="M339.3,169.61c0-2.28,1.48-3.59,3.15-3.59s3.15,1.31,3.15,3.59a3.17,3.17,0,1,1-6.3,0Zm5.11,0c0-1.57-.78-2.63-2-2.63s-2,1.06-2,2.63.8,2.61,2,2.61S344.41,171.17,344.41,169.61Z" transform="translate(-9.62 -8.95)"/><path class="cls-5" d="M347.67,166.19h.95l.1,1h0a3,3,0,0,1,2.12-1.15,1.78,1.78,0,0,1,1.87,1.31A3.25,3.25,0,0,1,355,166c1.4,0,2.07.93,2.07,2.67V173h-1.15v-4.16c0-1.28-.41-1.82-1.26-1.82a2.5,2.5,0,0,0-1.71,1V173H351.8v-4.16c0-1.28-.4-1.82-1.27-1.82a2.54,2.54,0,0,0-1.71,1V173h-1.15Z" transform="translate(-9.62 -8.95)"/><path class="cls-5" d="M359.55,166.19h1l.1,1h0a3,3,0,0,1,2.11-1.15,1.79,1.79,0,0,1,1.88,1.31,3.21,3.21,0,0,1,2.24-1.31c1.4,0,2.07.93,2.07,2.67V173h-1.14v-4.16c0-1.28-.41-1.82-1.27-1.82a2.49,2.49,0,0,0-1.7,1V173h-1.15v-4.16c0-1.28-.41-1.82-1.28-1.82a2.56,2.56,0,0,0-1.71,1V173h-1.15Z" transform="translate(-9.62 -8.95)"/><path class="cls-5" d="M371,171.23c0-1.48,1.27-2.22,4.17-2.54,0-.87-.28-1.71-1.4-1.71a3.66,3.66,0,0,0-2,.73l-.45-.8A5.08,5.08,0,0,1,374,166c1.67,0,2.37,1.11,2.37,2.81V173h-1l-.09-.81h-.05a3.63,3.63,0,0,1-2.25,1A1.86,1.86,0,0,1,371,171.23Zm4.17.1v-1.89c-2.26.28-3.05.84-3.05,1.71s.53,1.09,1.21,1.09A2.73,2.73,0,0,0,375.19,171.33Z" transform="translate(-9.62 -8.95)"/><path class="cls-5" d="M378.78,166.19h1l.1,1h0a3.21,3.21,0,0,1,2.28-1.15c1.43,0,2.08.93,2.08,2.67V173h-1.15v-4.16c0-1.28-.4-1.82-1.29-1.82a2.61,2.61,0,0,0-1.87,1V173h-1.14Z" transform="translate(-9.62 -8.95)"/><path class="cls-5" d="M386.22,169.61c0-2.21,1.4-3.59,3-3.59a2.8,2.8,0,0,1,1.9.79l-.05-1.16V163h1.16v10h-.95l-.1-.8h0a3.06,3.06,0,0,1-2.06,1C387.33,173.17,386.22,171.88,386.22,169.61Zm4.81,1.65v-3.55a2.37,2.37,0,0,0-1.65-.72c-1.1,0-2,1-2,2.61s.69,2.6,1.88,2.6A2.31,2.31,0,0,0,391,171.26Z" transform="translate(-9.62 -8.95)"/></g><g class="cls-11"><path class="cls-5" d="M540.88,168.41c0-3,1.73-4.77,4.07-4.77a3.36,3.36,0,0,1,2.52,1.14l-.63.75a2.52,2.52,0,0,0-1.87-.86c-1.74,0-2.89,1.42-2.89,3.71s1.11,3.77,2.84,3.77a2.78,2.78,0,0,0,2.13-1l.65.73a3.57,3.57,0,0,1-2.82,1.33C542.58,173.17,540.88,171.4,540.88,168.41Z" transform="translate(-9.62 -8.95)"/><path class="cls-5" d="M549.07,169.61c0-2.28,1.48-3.59,3.15-3.59s3.15,1.31,3.15,3.59a3.17,3.17,0,1,1-6.3,0Zm5.11,0c0-1.57-.79-2.63-2-2.63s-2,1.06-2,2.63.8,2.61,2,2.61S554.18,171.17,554.18,169.61Z" transform="translate(-9.62 -8.95)"/><path class="cls-5" d="M557.44,166.19h.95l.1,1h0a3,3,0,0,1,2.12-1.15,1.78,1.78,0,0,1,1.87,1.31,3.25,3.25,0,0,1,2.24-1.31c1.4,0,2.08.93,2.08,2.67V173h-1.15v-4.16c0-1.28-.41-1.82-1.26-1.82a2.5,2.5,0,0,0-1.71,1V173h-1.15v-4.16c0-1.28-.41-1.82-1.28-1.82a2.55,2.55,0,0,0-1.7,1V173h-1.15Z" transform="translate(-9.62 -8.95)"/><path class="cls-5" d="M569.32,166.19h1l.09,1h0a3,3,0,0,1,2.11-1.15,1.79,1.79,0,0,1,1.88,1.31,3.21,3.21,0,0,1,2.24-1.31c1.4,0,2.07.93,2.07,2.67V173h-1.15v-4.16c0-1.28-.4-1.82-1.26-1.82a2.5,2.5,0,0,0-1.71,1V173h-1.14v-4.16c0-1.28-.41-1.82-1.28-1.82a2.56,2.56,0,0,0-1.71,1V173h-1.15Z" transform="translate(-9.62 -8.95)"/><path class="cls-5" d="M580.79,171.23c0-1.48,1.27-2.22,4.17-2.54,0-.87-.28-1.71-1.4-1.71a3.66,3.66,0,0,0-2,.73l-.45-.8a5,5,0,0,1,2.68-.89c1.67,0,2.37,1.11,2.37,2.81V173h-1l-.09-.81H585a3.63,3.63,0,0,1-2.25,1A1.86,1.86,0,0,1,580.79,171.23Zm4.17.1v-1.89c-2.27.28-3.05.84-3.05,1.71s.53,1.09,1.2,1.09A2.75,2.75,0,0,0,585,171.33Z" transform="translate(-9.62 -8.95)"/><path class="cls-5" d="M588.54,166.19h1l.1,1h0a3.21,3.21,0,0,1,2.28-1.15c1.43,0,2.07.93,2.07,2.67V173h-1.14v-4.16c0-1.28-.4-1.82-1.29-1.82a2.61,2.61,0,0,0-1.87,1V173h-1.15Z" transform="translate(-9.62 -8.95)"/><path class="cls-5" d="M596,169.61c0-2.21,1.4-3.59,3-3.59a2.8,2.8,0,0,1,1.9.79l-.05-1.16V163H602v10h-1l-.1-.8h0a3.08,3.08,0,0,1-2.06,1C597.1,173.17,596,171.88,596,169.61Zm4.81,1.65v-3.55a2.4,2.4,0,0,0-1.66-.72c-1.09,0-2,1-2,2.61s.69,2.6,1.88,2.6A2.31,2.31,0,0,0,600.8,171.26Z" transform="translate(-9.62 -8.95)"/></g><g class="cls-12"><path class="cls-5" d="M560.27,229.82h5.29v1h-4.13v2.89h3.49v1h-3.49V238h4.27v1h-5.43Z" transform="translate(-9.62 -8.95)"/><path class="cls-5" d="M566.69,232.21h1.19l1.29,3.86c.2.67.42,1.36.63,2h.06c.2-.64.42-1.33.62-2l1.29-3.86h1.13l-2.41,6.8h-1.35Z" transform="translate(-9.62 -8.95)"/><path class="cls-5" d="M573.93,235.62A3.28,3.28,0,0,1,577,232c1.74,0,2.72,1.24,2.72,3.19a4.24,4.24,0,0,1,0,.66h-4.59a2.25,2.25,0,0,0,2.26,2.37,3,3,0,0,0,1.7-.54l.41.76a4.05,4.05,0,0,1-2.24.7A3.26,3.26,0,0,1,573.93,235.62Zm4.76-.56c0-1.37-.61-2.11-1.68-2.11a2.1,2.1,0,0,0-2,2.11Z" transform="translate(-9.62 -8.95)"/><path class="cls-5" d="M581.66,232.21h1l.1,1h0A3.21,3.21,0,0,1,585,232c1.42,0,2.07.92,2.07,2.66V239H586v-4.16c0-1.27-.39-1.82-1.29-1.82-.7,0-1.18.37-1.86,1.05V239h-1.15Z" transform="translate(-9.62 -8.95)"/><path class="cls-5" d="M589.79,236.91v-3.77h-1v-.86l1.06-.07.14-1.91h1v1.91h1.83v.93H591v3.79c0,.84.26,1.31,1,1.31a2.69,2.69,0,0,0,.77-.18l.22.87a4.09,4.09,0,0,1-1.26.25C590.28,239.18,589.79,238.26,589.79,236.91Z" transform="translate(-9.62 -8.95)"/></g><g class="cls-12"><path class="cls-5" d="M702.26,306.72h5.29v1h-4.13v2.88h3.49v1h-3.49v3.33h4.28v1h-5.44Z" transform="translate(-9.62 -8.95)"/><path class="cls-5" d="M708.69,309.1h1.19l1.29,3.86c.19.68.42,1.36.62,2h.06c.2-.65.42-1.33.62-2l1.29-3.86h1.13l-2.41,6.81h-1.34Z" transform="translate(-9.62 -8.95)"/><path class="cls-5" d="M715.92,312.52a3.29,3.29,0,0,1,3.06-3.59c1.73,0,2.71,1.25,2.71,3.19a4.24,4.24,0,0,1,0,.66h-4.59a2.25,2.25,0,0,0,2.27,2.37,3.08,3.08,0,0,0,1.69-.53l.41.75a4.05,4.05,0,0,1-2.24.7A3.26,3.26,0,0,1,715.92,312.52Zm4.77-.56c0-1.38-.62-2.12-1.69-2.12a2.1,2.1,0,0,0-2,2.12Z" transform="translate(-9.62 -8.95)"/><path class="cls-5" d="M723.65,309.1h1l.1,1h0a3.21,3.21,0,0,1,2.29-1.15c1.43,0,2.07.92,2.07,2.66v4.32H728v-4.16c0-1.28-.39-1.83-1.29-1.83-.7,0-1.17.37-1.86,1.06v4.93h-1.15Z" transform="translate(-9.62 -8.95)"/><path class="cls-5" d="M731.79,313.8V310h-1v-.87l1.06-.07.14-1.91h1v1.91h1.83V310H733v3.78c0,.84.26,1.32,1,1.32a2.35,2.35,0,0,0,.77-.19l.22.87a4,4,0,0,1-1.26.25C732.28,316.07,731.79,315.15,731.79,313.8Z" transform="translate(-9.62 -8.95)"/></g><g class="cls-12"><path class="cls-5" d="M702.26,519.24h5.29v1h-4.13v2.88h3.49v1h-3.49v3.33h4.28v1h-5.44Z" transform="translate(-9.62 -8.95)"/><path class="cls-5" d="M708.69,521.62h1.19l1.29,3.87c.19.67.42,1.35.62,2h.06c.2-.65.42-1.33.62-2l1.29-3.87h1.13l-2.41,6.81h-1.34Z" transform="translate(-9.62 -8.95)"/><path class="cls-5" d="M715.92,525a3.29,3.29,0,0,1,3.06-3.59c1.73,0,2.71,1.25,2.71,3.19a4.24,4.24,0,0,1,0,.66h-4.59a2.25,2.25,0,0,0,2.27,2.37,3.08,3.08,0,0,0,1.69-.53l.41.75a4.05,4.05,0,0,1-2.24.7A3.26,3.26,0,0,1,715.92,525Zm4.77-.56c0-1.38-.62-2.12-1.69-2.12a2.1,2.1,0,0,0-2,2.12Z" transform="translate(-9.62 -8.95)"/><path class="cls-5" d="M723.65,521.62h1l.1,1h0a3.25,3.25,0,0,1,2.29-1.15c1.43,0,2.07.93,2.07,2.66v4.32H728v-4.16c0-1.28-.39-1.82-1.29-1.82-.7,0-1.17.36-1.86,1v4.93h-1.15Z" transform="translate(-9.62 -8.95)"/><path class="cls-5" d="M731.79,526.33v-3.77h-1v-.87l1.06-.07.14-1.91h1v1.91h1.83v.94H733v3.78c0,.84.26,1.32,1,1.32a2.35,2.35,0,0,0,.77-.19l.22.87a4,4,0,0,1-1.26.25C732.28,528.59,731.79,527.67,731.79,526.33Z" transform="translate(-9.62 -8.95)"/></g><g class="cls-12"><path class="cls-5" d="M350.5,229.82h5.29v1h-4.13v2.89h3.49v1h-3.49V238h4.27v1H350.5Z" transform="translate(-9.62 -8.95)"/><path class="cls-5" d="M356.92,232.21h1.2l1.28,3.86c.2.67.42,1.36.63,2h.06c.2-.64.42-1.33.62-2l1.29-3.86h1.13l-2.41,6.8h-1.34Z" transform="translate(-9.62 -8.95)"/><path class="cls-5" d="M364.16,235.62a3.28,3.28,0,0,1,3.06-3.58c1.73,0,2.71,1.24,2.71,3.19a4.24,4.24,0,0,1,0,.66H365.3a2.26,2.26,0,0,0,2.27,2.37,3,3,0,0,0,1.69-.54l.41.76a4.05,4.05,0,0,1-2.24.7A3.26,3.26,0,0,1,364.16,235.62Zm4.76-.56c0-1.37-.61-2.11-1.68-2.11a2.1,2.1,0,0,0-2,2.11Z" transform="translate(-9.62 -8.95)"/><path class="cls-5" d="M371.89,232.21h.95l.1,1h0a3.21,3.21,0,0,1,2.29-1.15c1.42,0,2.07.92,2.07,2.66V239h-1.15v-4.16c0-1.27-.39-1.82-1.29-1.82-.7,0-1.18.37-1.86,1.05V239h-1.15Z" transform="translate(-9.62 -8.95)"/><path class="cls-5" d="M380,236.91v-3.77h-1v-.86l1.06-.07.14-1.91h1v1.91H383v.93h-1.83v3.79c0,.84.26,1.31,1.05,1.31a2.61,2.61,0,0,0,.77-.18l.22.87a4.09,4.09,0,0,1-1.26.25C380.51,239.18,380,238.26,380,236.91Z" transform="translate(-9.62 -8.95)"/></g><path class="cls-1" d="M284.82,824c1.42,0,2.13-.48,2.13-1.46a1.43,1.43,0,0,0-.19-.76,1.87,1.87,0,0,0-.51-.54,3.19,3.19,0,0,0-.73-.4c-.28-.12-.57-.23-.88-.34a10.14,10.14,0,0,1-1-.41,3.56,3.56,0,0,1-.82-.55,2.31,2.31,0,0,1-.56-.75,2.55,2.55,0,0,1-.2-1,2.44,2.44,0,0,1,.87-2,3.68,3.68,0,0,1,2.39-.71,6.11,6.11,0,0,1,1.6.19,3.76,3.76,0,0,1,1.06.41l-.43,1.11a4.12,4.12,0,0,0-.88-.36,4.93,4.93,0,0,0-1.35-.17,3.4,3.4,0,0,0-.73.08,1.92,1.92,0,0,0-.58.25,1.27,1.27,0,0,0-.4.43,1.2,1.2,0,0,0-.15.61,1.34,1.34,0,0,0,.15.66,1.76,1.76,0,0,0,.44.47,4.3,4.3,0,0,0,.65.37c.25.11.52.22.82.33s.8.34,1.15.51a3.51,3.51,0,0,1,.91.6,2.36,2.36,0,0,1,.6.83,2.91,2.91,0,0,1,.21,1.17,2.29,2.29,0,0,1-.93,2,4.35,4.35,0,0,1-2.63.69,6.79,6.79,0,0,1-1.05-.08,7.77,7.77,0,0,1-.87-.18,5.37,5.37,0,0,1-.65-.23,2.81,2.81,0,0,1-.42-.2l.4-1.12a6.43,6.43,0,0,0,1,.41A5.05,5.05,0,0,0,284.82,824Z" transform="translate(-9.62 -8.95)"/><path class="cls-1" d="M292,824a2.65,2.65,0,0,0,1.78-.48,1.7,1.7,0,0,0,.54-1.32,1.79,1.79,0,0,0-.22-.9,1.82,1.82,0,0,0-.59-.58,2.68,2.68,0,0,0-.85-.31,5.36,5.36,0,0,0-1-.09h-.33v-1.06h.46a3.65,3.65,0,0,0,.72-.07,2.22,2.22,0,0,0,.68-.25,1.49,1.49,0,0,0,.5-.5,1.47,1.47,0,0,0,.2-.79,1.51,1.51,0,0,0-.14-.67,1.3,1.3,0,0,0-.37-.46,1.32,1.32,0,0,0-.53-.26,2.25,2.25,0,0,0-.64-.08,3,3,0,0,0-1.14.19,5.71,5.71,0,0,0-.79.41l-.51-1c.12-.08.26-.16.43-.25a3.89,3.89,0,0,1,.58-.24,5,5,0,0,1,.69-.19,4,4,0,0,1,.78-.08,4,4,0,0,1,1.33.19,2.55,2.55,0,0,1,.93.53,2.22,2.22,0,0,1,.54.81,2.84,2.84,0,0,1,.18,1,2,2,0,0,1-.43,1.29,2.78,2.78,0,0,1-1.05.82,3.16,3.16,0,0,1,.73.33,2.18,2.18,0,0,1,.61.53,2.8,2.8,0,0,1,.42.74,2.76,2.76,0,0,1,.16.94,3,3,0,0,1-.22,1.17,2.36,2.36,0,0,1-.67.93,3.35,3.35,0,0,1-1.14.61,5.25,5.25,0,0,1-1.63.23,4.71,4.71,0,0,1-.74-.06,7.28,7.28,0,0,1-.73-.14c-.22-.06-.42-.11-.58-.17a2.26,2.26,0,0,1-.37-.14l.25-1.13c.16.07.43.17.79.29A4.44,4.44,0,0,0,292,824Z" transform="translate(-9.62 -8.95)"/><path class="cls-1" d="M172,824.93v-9.71h5.85v1.17h-4.49v2.92h4v1.15h-4v4.47Z" transform="translate(-9.62 -8.95)"/><path class="cls-1" d="M180,816.33a.86.86,0,0,1-.6-.23.81.81,0,0,1-.24-.62.85.85,0,0,1,.24-.63.86.86,0,0,1,.6-.23.84.84,0,0,1,.59.23.82.82,0,0,1,.25.63.79.79,0,0,1-.25.62A.84.84,0,0,1,180,816.33Zm.66,8.6h-1.31v-7.28h1.31Z" transform="translate(-9.62 -8.95)"/><path class="cls-1" d="M185.11,825.07a2.5,2.5,0,0,1-1.71-.52,2,2,0,0,1-.5-1.53v-8.73l1.3-.23v8.75a1.88,1.88,0,0,0,.06.53.59.59,0,0,0,.18.34.76.76,0,0,0,.33.19,3,3,0,0,0,.52.1Z" transform="translate(-9.62 -8.95)"/><path class="cls-1" d="M186.34,821.3a4.82,4.82,0,0,1,.28-1.69,3.44,3.44,0,0,1,.74-1.19,3.06,3.06,0,0,1,1.07-.72,3.28,3.28,0,0,1,1.23-.24,2.8,2.8,0,0,1,2.25.92,4.17,4.17,0,0,1,.79,2.79v.22a2,2,0,0,1,0,.25h-5a2.65,2.65,0,0,0,.66,1.72,2.41,2.41,0,0,0,1.79.59,4.66,4.66,0,0,0,1.15-.12,4.56,4.56,0,0,0,.71-.23l.18,1.09a4.17,4.17,0,0,1-.83.27,6.19,6.19,0,0,1-1.35.13,4.3,4.3,0,0,1-1.64-.28,3.1,3.1,0,0,1-1.15-.79,3.19,3.19,0,0,1-.66-1.2A4.9,4.9,0,0,1,186.34,821.3Zm5-.71a2.2,2.2,0,0,0-.44-1.45,1.51,1.51,0,0,0-1.26-.57,1.79,1.79,0,0,0-1.37.63,2.38,2.38,0,0,0-.37.64,3.26,3.26,0,0,0-.17.75Z" transform="translate(-9.62 -8.95)"/><path class="cls-1" d="M199.5,824a2.54,2.54,0,0,0,1.18-.21.7.7,0,0,0,.39-.67.91.91,0,0,0-.38-.76,5.76,5.76,0,0,0-1.24-.63c-.29-.11-.55-.22-.81-.34A2.94,2.94,0,0,1,198,821a1.68,1.68,0,0,1-.44-.57,1.72,1.72,0,0,1-.17-.82,1.88,1.88,0,0,1,.71-1.54,3.06,3.06,0,0,1,2-.57c.2,0,.41,0,.61,0l.58.08.47.11.31.1-.23,1.12a3,3,0,0,0-.66-.23,4.24,4.24,0,0,0-1.08-.12,2,2,0,0,0-1,.21.73.73,0,0,0-.41.68.93.93,0,0,0,.09.42,1.07,1.07,0,0,0,.28.33,2.08,2.08,0,0,0,.47.27,6.62,6.62,0,0,0,.67.27q.53.19.93.39a2.63,2.63,0,0,1,.69.44,1.68,1.68,0,0,1,.44.61,2.22,2.22,0,0,1,.15.87,1.77,1.77,0,0,1-.74,1.53,3.78,3.78,0,0,1-2.14.51,5.46,5.46,0,0,1-1.51-.16,5.31,5.31,0,0,1-.74-.24l.23-1.12.72.25A4.18,4.18,0,0,0,199.5,824Z" transform="translate(-9.62 -8.95)"/><path class="cls-1" d="M203.2,826.29a2.69,2.69,0,0,0,.4.13,2,2,0,0,0,.48.06,1.88,1.88,0,0,0,1.2-.34,3,3,0,0,0,.79-1.11,39.26,39.26,0,0,1-1.65-3.57,31.52,31.52,0,0,1-1.27-3.81h1.4c.11.42.23.87.38,1.35s.3,1,.48,1.5.37,1,.57,1.54.42,1,.65,1.49c.35-1,.66-1.95.92-2.91s.51-2,.74-3h1.35c-.34,1.37-.71,2.69-1.12,4s-.86,2.45-1.33,3.55a8.38,8.38,0,0,1-.58,1.09,3.51,3.51,0,0,1-.67.75,2.38,2.38,0,0,1-.82.43,3.56,3.56,0,0,1-1,.14l-.32,0-.33-.06-.29-.07-.19-.08Z" transform="translate(-9.62 -8.95)"/><path class="cls-1" d="M212.7,824a2.61,2.61,0,0,0,1.19-.21.71.71,0,0,0,.38-.67.91.91,0,0,0-.38-.76,5.53,5.53,0,0,0-1.24-.63c-.28-.11-.55-.22-.81-.34a2.87,2.87,0,0,1-.66-.42,1.59,1.59,0,0,1-.45-.57,2,2,0,0,1,.55-2.36,3,3,0,0,1,1.94-.57c.21,0,.41,0,.62,0l.57.08.47.11.32.1-.24,1.12a3,3,0,0,0-.66-.23,4.24,4.24,0,0,0-1.08-.12,2,2,0,0,0-.95.21.73.73,0,0,0-.41.68.82.82,0,0,0,.1.42,1,1,0,0,0,.27.33,2.32,2.32,0,0,0,.47.27,6,6,0,0,0,.68.27c.34.13.65.26.92.39a2.63,2.63,0,0,1,.69.44,1.68,1.68,0,0,1,.44.61,2,2,0,0,1,.16.87,1.75,1.75,0,0,1-.75,1.53,3.78,3.78,0,0,1-2.14.51,5.46,5.46,0,0,1-1.51-.16,5.83,5.83,0,0,1-.74-.24l.24-1.12.71.25A4.18,4.18,0,0,0,212.7,824Z" transform="translate(-9.62 -8.95)"/><path class="cls-1" d="M218.47,817.65h2.76v1.09h-2.76v3.36a4.47,4.47,0,0,0,.08.9,1.39,1.39,0,0,0,.26.56.89.89,0,0,0,.42.29,1.69,1.69,0,0,0,.58.08,2.75,2.75,0,0,0,.95-.13l.5-.19.25,1.08a4.57,4.57,0,0,1-.69.24,3.8,3.8,0,0,1-1.12.15,3.29,3.29,0,0,1-1.22-.19,1.78,1.78,0,0,1-.78-.56,2.44,2.44,0,0,1-.41-.94,6,6,0,0,1-.12-1.28v-6.49l1.3-.23Z" transform="translate(-9.62 -8.95)"/><path class="cls-1" d="M222.34,821.3a4.61,4.61,0,0,1,.28-1.69,3.3,3.3,0,0,1,.74-1.19,3,3,0,0,1,1.06-.72,3.28,3.28,0,0,1,1.23-.24,2.83,2.83,0,0,1,2.26.92,4.22,4.22,0,0,1,.78,2.79v.22a2,2,0,0,1,0,.25h-5a2.7,2.7,0,0,0,.66,1.72,2.41,2.41,0,0,0,1.79.59,4.75,4.75,0,0,0,1.16-.12,5,5,0,0,0,.71-.23l.18,1.09a4.7,4.7,0,0,1-.83.27,6.22,6.22,0,0,1-1.36.13,4.3,4.3,0,0,1-1.64-.28,3.15,3.15,0,0,1-1.14-.79,3.36,3.36,0,0,1-.67-1.2A5.22,5.22,0,0,1,222.34,821.3Zm5-.71a2.15,2.15,0,0,0-.44-1.45,1.51,1.51,0,0,0-1.25-.57,1.67,1.67,0,0,0-.79.18,1.71,1.71,0,0,0-.58.45,2,2,0,0,0-.37.64,3.28,3.28,0,0,0-.18.75Z" transform="translate(-9.62 -8.95)"/><path class="cls-1" d="M230.57,817.86c.3-.08.69-.16,1.18-.24a10.6,10.6,0,0,1,1.7-.13,3.35,3.35,0,0,1,1.18.19,2.07,2.07,0,0,1,.8.56,2.17,2.17,0,0,1,.3-.2,4.25,4.25,0,0,1,.52-.25,5.63,5.63,0,0,1,.69-.21,3.47,3.47,0,0,1,.81-.09,3.32,3.32,0,0,1,1.37.25,2,2,0,0,1,.84.69,2.68,2.68,0,0,1,.4,1.07,7.94,7.94,0,0,1,.1,1.34v4.09h-1.3v-3.81a8.83,8.83,0,0,0-.06-1.11,2.11,2.11,0,0,0-.24-.77,1.07,1.07,0,0,0-.47-.45,1.75,1.75,0,0,0-.78-.15,2.77,2.77,0,0,0-1.08.18,2.18,2.18,0,0,0-.59.31,4.51,4.51,0,0,1,.17.8,6.62,6.62,0,0,1,.06.91v4.09h-1.3v-3.81a7,7,0,0,0-.08-1.11,2.11,2.11,0,0,0-.24-.77,1.1,1.1,0,0,0-.48-.45,1.69,1.69,0,0,0-.76-.15l-.42,0c-.15,0-.29,0-.43,0l-.37,0-.22,0v6.15h-1.3Z" transform="translate(-9.62 -8.95)"/><line class="cls-13" x1="189.38" y1="222.55" x2="289.38" y2="222.55"/><path class="cls-10" d="M209.53,243.69c.26-.07.6-.13,1-.21a9.18,9.18,0,0,1,1.47-.1,3.16,3.16,0,0,1,1.23.21,2,2,0,0,1,.79.58,2.44,2.44,0,0,1,.41.91,5.23,5.23,0,0,1,.12,1.16v3.51h-1.11v-3.27a5.46,5.46,0,0,0-.08-1,1.66,1.66,0,0,0-.26-.66,1,1,0,0,0-.48-.37,2.26,2.26,0,0,0-.74-.11h-.37l-.37,0-.31,0-.2,0v5.27h-1.12Z" transform="translate(-9.62 -8.95)"/><path class="cls-10" d="M221.93,246.63a3.81,3.81,0,0,1-.22,1.34,2.92,2.92,0,0,1-.6,1,2.7,2.7,0,0,1-.93.67,3.14,3.14,0,0,1-2.36,0,2.7,2.7,0,0,1-.93-.67,2.92,2.92,0,0,1-.6-1,4.19,4.19,0,0,1,0-2.68,3.05,3.05,0,0,1,.6-1,2.55,2.55,0,0,1,.93-.66,3,3,0,0,1,2.36,0,2.55,2.55,0,0,1,.93.66,3.05,3.05,0,0,1,.6,1A3.81,3.81,0,0,1,221.93,246.63Zm-1.17,0a2.68,2.68,0,0,0-.47-1.68,1.67,1.67,0,0,0-2.58,0,2.68,2.68,0,0,0-.47,1.68,2.65,2.65,0,0,0,.47,1.67,1.65,1.65,0,0,0,2.58,0A2.65,2.65,0,0,0,220.76,246.63Z" transform="translate(-9.62 -8.95)"/><path class="cls-10" d="M227.53,240.63l1.12-.19v9.13q-.39.1-1,.21a7.11,7.11,0,0,1-1.37.11,3.31,3.31,0,0,1-1.3-.23,2.86,2.86,0,0,1-1-.64,2.81,2.81,0,0,1-.62-1,3.88,3.88,0,0,1-.23-1.36,4.25,4.25,0,0,1,.19-1.32,2.81,2.81,0,0,1,.54-1,2.49,2.49,0,0,1,.89-.68,2.81,2.81,0,0,1,1.19-.24,2.75,2.75,0,0,1,.95.15,2.94,2.94,0,0,1,.62.27Zm0,4.2a2.48,2.48,0,0,0-.58-.33,2.32,2.32,0,0,0-.84-.15,1.92,1.92,0,0,0-.83.17,1.63,1.63,0,0,0-.56.48,2.3,2.3,0,0,0-.31.73,4.29,4.29,0,0,0-.09.9,2.39,2.39,0,0,0,.54,1.68,1.84,1.84,0,0,0,1.44.6,7.59,7.59,0,0,0,.76,0l.47-.09Z" transform="translate(-9.62 -8.95)"/><path class="cls-10" d="M230.22,246.64a4,4,0,0,1,.24-1.45,2.91,2.91,0,0,1,.64-1,2.44,2.44,0,0,1,.91-.61,2.73,2.73,0,0,1,1.05-.21,2.41,2.41,0,0,1,1.94.79,3.64,3.64,0,0,1,.67,2.39v.19c0,.07,0,.14,0,.21h-4.28a2.25,2.25,0,0,0,.57,1.47,2,2,0,0,0,1.53.51,4.44,4.44,0,0,0,1-.1,4.34,4.34,0,0,0,.61-.2l.16.93a3,3,0,0,1-.72.23,5,5,0,0,1-1.16.12,3.78,3.78,0,0,1-1.41-.24,2.62,2.62,0,0,1-1.54-1.71A4.13,4.13,0,0,1,230.22,246.64Zm4.28-.61a1.79,1.79,0,0,0-.38-1.24,1.26,1.26,0,0,0-1.07-.49,1.48,1.48,0,0,0-.68.15,1.57,1.57,0,0,0-.49.39,1.59,1.59,0,0,0-.32.55,2.38,2.38,0,0,0-.15.64Z" transform="translate(-9.62 -8.95)"/><path class="cls-10" d="M236.27,251h6V252h-6Z" transform="translate(-9.62 -8.95)"/><path class="cls-10" d="M243.18,243.69c.26-.07.59-.13,1-.21a9,9,0,0,1,1.46-.1,2.71,2.71,0,0,1,1,.16,1.73,1.73,0,0,1,.68.47l.27-.17a3.67,3.67,0,0,1,.44-.21l.59-.18a3.14,3.14,0,0,1,.7-.07,2.78,2.78,0,0,1,1.17.21,1.68,1.68,0,0,1,.72.59,2.36,2.36,0,0,1,.34.91,6.88,6.88,0,0,1,.09,1.15v3.51h-1.11v-3.27a6.36,6.36,0,0,0-.06-.94,1.66,1.66,0,0,0-.2-.66.91.91,0,0,0-.41-.39,1.41,1.41,0,0,0-.66-.13,2.44,2.44,0,0,0-.93.15,1.78,1.78,0,0,0-.5.27,4.54,4.54,0,0,1,.14.68,6.53,6.53,0,0,1,0,.78v3.51h-1.12v-3.27a6.36,6.36,0,0,0-.06-.94,1.83,1.83,0,0,0-.21-.66.89.89,0,0,0-.4-.39,1.44,1.44,0,0,0-.66-.13h-.36l-.36,0-.32,0-.19,0v5.27h-1.12Z" transform="translate(-9.62 -8.95)"/><path class="cls-10" d="M259,246.63a3.81,3.81,0,0,1-.22,1.34,2.92,2.92,0,0,1-.6,1,2.7,2.7,0,0,1-.93.67,3.12,3.12,0,0,1-2.35,0A2.7,2.7,0,0,1,254,249a2.93,2.93,0,0,1-.61-1,4.19,4.19,0,0,1,0-2.68,3.07,3.07,0,0,1,.61-1,2.55,2.55,0,0,1,.93-.66,3,3,0,0,1,2.35,0,2.55,2.55,0,0,1,.93.66,3.05,3.05,0,0,1,.6,1A3.81,3.81,0,0,1,259,246.63Zm-1.16,0a2.68,2.68,0,0,0-.48-1.68,1.52,1.52,0,0,0-1.29-.61,1.55,1.55,0,0,0-1.29.61,2.75,2.75,0,0,0-.47,1.68,2.71,2.71,0,0,0,.47,1.67,1.56,1.56,0,0,0,1.29.62,1.53,1.53,0,0,0,1.29-.62A2.65,2.65,0,0,0,257.86,246.63Z" transform="translate(-9.62 -8.95)"/><path class="cls-10" d="M264.62,240.63l1.12-.19v9.13c-.26.07-.58.14-1,.21a7.15,7.15,0,0,1-1.38.11,3.35,3.35,0,0,1-1.3-.23,2.73,2.73,0,0,1-1-.64,2.83,2.83,0,0,1-.63-1,3.88,3.88,0,0,1-.23-1.36,4.57,4.57,0,0,1,.19-1.32,2.83,2.83,0,0,1,.55-1,2.46,2.46,0,0,1,.88-.68,2.81,2.81,0,0,1,1.19-.24,2.85,2.85,0,0,1,1,.15,3.06,3.06,0,0,1,.61.27Zm0,4.2a2.48,2.48,0,0,0-.58-.33,2.32,2.32,0,0,0-.84-.15,1.84,1.84,0,0,0-.82.17,1.54,1.54,0,0,0-.56.48,2.11,2.11,0,0,0-.32.73,4.29,4.29,0,0,0-.09.9,2.39,2.39,0,0,0,.54,1.68,1.84,1.84,0,0,0,1.44.6,7.59,7.59,0,0,0,.76,0l.47-.09Z" transform="translate(-9.62 -8.95)"/><path class="cls-10" d="M272.63,249.57c-.26.06-.6.13-1,.2a8.83,8.83,0,0,1-1.45.11,3.14,3.14,0,0,1-1.22-.21,2.06,2.06,0,0,1-.79-.59,2.47,2.47,0,0,1-.43-.91,4.63,4.63,0,0,1-.13-1.16v-3.5h1.11v3.26a2.81,2.81,0,0,0,.36,1.63,1.41,1.41,0,0,0,1.22.5l.37,0a2,2,0,0,0,.36,0l.3,0a1.13,1.13,0,0,0,.2,0v-5.27h1.12Z" transform="translate(-9.62 -8.95)"/><path class="cls-10" d="M276.42,249.87a2.13,2.13,0,0,1-1.46-.45,1.73,1.73,0,0,1-.44-1.3v-7.49l1.12-.19v7.5a1.87,1.87,0,0,0,.05.45.62.62,0,0,0,.15.29.68.68,0,0,0,.29.16,2.23,2.23,0,0,0,.45.09Z" transform="translate(-9.62 -8.95)"/><path class="cls-10" d="M277.48,246.64a4,4,0,0,1,.23-1.45,3.23,3.23,0,0,1,.64-1,2.61,2.61,0,0,1,.91-.61,2.82,2.82,0,0,1,1.06-.21,2.38,2.38,0,0,1,1.93.79,3.59,3.59,0,0,1,.67,2.39v.19a1.48,1.48,0,0,1,0,.21h-4.27a2.3,2.3,0,0,0,.56,1.47,2.06,2.06,0,0,0,1.54.51,4.58,4.58,0,0,0,1-.1,4.34,4.34,0,0,0,.61-.2l.15.93a2.77,2.77,0,0,1-.71.23,5.11,5.11,0,0,1-1.16.12,3.78,3.78,0,0,1-1.41-.24,2.69,2.69,0,0,1-1-.68,3,3,0,0,1-.57-1A4.44,4.44,0,0,1,277.48,246.64Zm4.28-.61a1.84,1.84,0,0,0-.38-1.24,1.29,1.29,0,0,0-1.07-.49,1.48,1.48,0,0,0-.68.15,1.61,1.61,0,0,0-.5.39,2,2,0,0,0-.32.55,3.5,3.5,0,0,0-.15.64Z" transform="translate(-9.62 -8.95)"/><path class="cls-10" d="M286,248.94a2.21,2.21,0,0,0,1-.18.6.6,0,0,0,.33-.57.77.77,0,0,0-.33-.65,5,5,0,0,0-1.06-.54c-.24-.1-.48-.19-.69-.29a2.31,2.31,0,0,1-.57-.36,1.57,1.57,0,0,1-.39-.49,1.66,1.66,0,0,1-.14-.71,1.57,1.57,0,0,1,.61-1.31,2.58,2.58,0,0,1,1.67-.49l.53,0,.49.07.4.09.27.09-.2,1a2.77,2.77,0,0,0-.57-.2,3.5,3.5,0,0,0-.92-.1,1.77,1.77,0,0,0-.82.18.63.63,0,0,0-.35.59.86.86,0,0,0,.08.36.88.88,0,0,0,.24.28,2.11,2.11,0,0,0,.4.23l.58.23c.3.11.56.22.79.33a2.56,2.56,0,0,1,.6.38,1.38,1.38,0,0,1,.37.52,1.82,1.82,0,0,1,.14.75,1.49,1.49,0,0,1-.65,1.31,3.23,3.23,0,0,1-1.83.44,4.43,4.43,0,0,1-1.29-.14,5.9,5.9,0,0,1-.64-.21l.21-1,.61.22A3.41,3.41,0,0,0,286,248.94Z" transform="translate(-9.62 -8.95)"/><path class="cls-10" d="M675,195.4a4.68,4.68,0,0,1-3.6-1.32,5.23,5.23,0,0,1-1.24-3.74,5.81,5.81,0,0,1,.37-2.15,4.67,4.67,0,0,1,1-1.59,4.33,4.33,0,0,1,1.57-1,5.74,5.74,0,0,1,2-.33,6.35,6.35,0,0,1,1.12.09,6.74,6.74,0,0,1,.88.21,4.22,4.22,0,0,1,.63.24l.37.2-.63,1.76a5.24,5.24,0,0,0-1-.4,4.73,4.73,0,0,0-1.36-.17,2.77,2.77,0,0,0-1,.17,2.34,2.34,0,0,0-.86.53,2.84,2.84,0,0,0-.59,1,4,4,0,0,0-.23,1.43,4.92,4.92,0,0,0,.15,1.25,2.71,2.71,0,0,0,.48,1,2.2,2.2,0,0,0,.86.66,3.09,3.09,0,0,0,1.29.25,5.48,5.48,0,0,0,.85-.06c.25,0,.48-.08.67-.13a2.86,2.86,0,0,0,.52-.18l.41-.18.6,1.75a5,5,0,0,1-1.3.5A7.56,7.56,0,0,1,675,195.4Z" transform="translate(-9.62 -8.95)"/><path class="cls-10" d="M686.2,191.51a4.72,4.72,0,0,1-.25,1.58,3.29,3.29,0,0,1-1.87,2,4,4,0,0,1-1.49.28,3.9,3.9,0,0,1-1.48-.28,3.34,3.34,0,0,1-1.88-2,4.79,4.79,0,0,1,0-3.17,3.72,3.72,0,0,1,.76-1.21,3.33,3.33,0,0,1,1.15-.79,3.61,3.61,0,0,1,1.45-.28,3.65,3.65,0,0,1,1.46.28,3.4,3.4,0,0,1,1.88,2A4.5,4.5,0,0,1,686.2,191.51Zm-2.13,0a2.67,2.67,0,0,0-.38-1.52,1.37,1.37,0,0,0-2.21,0,2.59,2.59,0,0,0-.39,1.52,2.67,2.67,0,0,0,.39,1.53,1.36,1.36,0,0,0,2.21,0A2.75,2.75,0,0,0,684.07,191.51Z" transform="translate(-9.62 -8.95)"/><path class="cls-10" d="M692.25,189.69l-.66-.15a4.12,4.12,0,0,0-.81-.08,2.88,2.88,0,0,0-.47,0,3.71,3.71,0,0,0-.41.07v5.63h-2.09v-7a13.15,13.15,0,0,1,1.32-.37,7.45,7.45,0,0,1,1.7-.18l.41,0,.47.06.48.08.41.12Z" transform="translate(-9.62 -8.95)"/><path class="cls-10" d="M693.23,191.58a4.52,4.52,0,0,1,.3-1.72,3.53,3.53,0,0,1,.79-1.22,3.29,3.29,0,0,1,1.13-.75,3.67,3.67,0,0,1,1.31-.25,3.23,3.23,0,0,1,2.47,1,3.94,3.94,0,0,1,.91,2.82c0,.12,0,.26,0,.4s0,.27,0,.39h-4.73a1.4,1.4,0,0,0,.6,1,2.45,2.45,0,0,0,1.43.38,6.1,6.1,0,0,0,1.13-.11,4.29,4.29,0,0,0,.9-.26l.28,1.7a2.8,2.8,0,0,1-.45.16,4.34,4.34,0,0,1-.62.15c-.23,0-.47.08-.74.11s-.52,0-.78,0a4.57,4.57,0,0,1-1.73-.3,3.37,3.37,0,0,1-1.22-.8,3.2,3.2,0,0,1-.71-1.21A4.64,4.64,0,0,1,693.23,191.58Zm4.9-.8a2.27,2.27,0,0,0-.09-.52,1.22,1.22,0,0,0-.24-.45,1.19,1.19,0,0,0-.41-.32,1.35,1.35,0,0,0-.61-.13,1.4,1.4,0,0,0-.6.12,1.23,1.23,0,0,0-.42.32,1.43,1.43,0,0,0-.26.45,3.41,3.41,0,0,0-.13.53Z" transform="translate(-9.62 -8.95)"/><line class="cls-13" x1="625.38" y1="222.55" x2="725.38" y2="222.55"/><path class="cls-10" d="M645.88,243.69c.26-.07.6-.13,1-.21a9.26,9.26,0,0,1,1.47-.1,3.12,3.12,0,0,1,1.23.21,2,2,0,0,1,.79.58,2.29,2.29,0,0,1,.41.91,5.23,5.23,0,0,1,.12,1.16v3.51h-1.11v-3.27a5.46,5.46,0,0,0-.08-1,1.66,1.66,0,0,0-.26-.66,1,1,0,0,0-.48-.37,2.26,2.26,0,0,0-.74-.11h-.37l-.37,0-.31,0-.2,0v5.27h-1.12Z" transform="translate(-9.62 -8.95)"/><path class="cls-10" d="M658.28,246.63a3.81,3.81,0,0,1-.22,1.34,2.92,2.92,0,0,1-.6,1,2.7,2.7,0,0,1-.93.67,3.12,3.12,0,0,1-2.35,0,2.7,2.7,0,0,1-.93-.67,2.93,2.93,0,0,1-.61-1,4.19,4.19,0,0,1,0-2.68,3.07,3.07,0,0,1,.61-1,2.55,2.55,0,0,1,.93-.66,3,3,0,0,1,2.35,0,2.55,2.55,0,0,1,.93.66,3.05,3.05,0,0,1,.6,1A3.81,3.81,0,0,1,658.28,246.63Zm-1.16,0a2.68,2.68,0,0,0-.48-1.68,1.52,1.52,0,0,0-1.29-.61,1.55,1.55,0,0,0-1.29.61,2.75,2.75,0,0,0-.47,1.68,2.71,2.71,0,0,0,.47,1.67,1.56,1.56,0,0,0,1.29.62,1.53,1.53,0,0,0,1.29-.62A2.65,2.65,0,0,0,657.12,246.63Z" transform="translate(-9.62 -8.95)"/><path class="cls-10" d="M663.88,240.63l1.12-.19v9.13c-.26.07-.58.14-1,.21a7.15,7.15,0,0,1-1.38.11,3.35,3.35,0,0,1-1.3-.23,2.73,2.73,0,0,1-1-.64,2.7,2.7,0,0,1-.63-1,3.88,3.88,0,0,1-.23-1.36,4.57,4.57,0,0,1,.19-1.32,2.83,2.83,0,0,1,.55-1,2.46,2.46,0,0,1,.88-.68,2.81,2.81,0,0,1,1.19-.24,2.85,2.85,0,0,1,1,.15,3.06,3.06,0,0,1,.61.27Zm0,4.2a2.48,2.48,0,0,0-.58-.33,2.32,2.32,0,0,0-.84-.15,1.92,1.92,0,0,0-.83.17,1.59,1.59,0,0,0-.55.48,2.11,2.11,0,0,0-.32.73,4.29,4.29,0,0,0-.09.9,2.39,2.39,0,0,0,.54,1.68,1.84,1.84,0,0,0,1.44.6,7.59,7.59,0,0,0,.76,0l.47-.09Z" transform="translate(-9.62 -8.95)"/><path class="cls-10" d="M666.57,246.64a4,4,0,0,1,.24-1.45,2.91,2.91,0,0,1,.64-1,2.44,2.44,0,0,1,.91-.61,2.75,2.75,0,0,1,1.06-.21,2.4,2.4,0,0,1,1.93.79,3.64,3.64,0,0,1,.67,2.39v.19c0,.07,0,.14,0,.21h-4.27a2.2,2.2,0,0,0,.56,1.47,2,2,0,0,0,1.53.51,3.7,3.7,0,0,0,1.6-.3l.16.93a3,3,0,0,1-.72.23,5,5,0,0,1-1.16.12,3.78,3.78,0,0,1-1.41-.24,2.62,2.62,0,0,1-1.54-1.71A4.13,4.13,0,0,1,666.57,246.64Zm4.29-.61a1.89,1.89,0,0,0-.38-1.24,1.29,1.29,0,0,0-1.08-.49,1.51,1.51,0,0,0-.68.15,1.57,1.57,0,0,0-.49.39,1.77,1.77,0,0,0-.32.55,2.38,2.38,0,0,0-.15.64Z" transform="translate(-9.62 -8.95)"/><path class="cls-10" d="M672.62,251h6V252h-6Z" transform="translate(-9.62 -8.95)"/><path class="cls-10" d="M679.53,243.69c.26-.07.59-.13,1-.21a9,9,0,0,1,1.46-.1,2.71,2.71,0,0,1,1,.16,1.84,1.84,0,0,1,.69.47l.26-.17a3.67,3.67,0,0,1,.44-.21l.59-.18a3.14,3.14,0,0,1,.7-.07,2.78,2.78,0,0,1,1.17.21,1.62,1.62,0,0,1,.72.59,2.21,2.21,0,0,1,.34.91,5.93,5.93,0,0,1,.1,1.15v3.51H686.9v-3.27a8.33,8.33,0,0,0,0-.94,1.83,1.83,0,0,0-.21-.66.86.86,0,0,0-.41-.39,1.41,1.41,0,0,0-.66-.13,2.44,2.44,0,0,0-.93.15,1.78,1.78,0,0,0-.5.27,4.54,4.54,0,0,1,.14.68,5,5,0,0,1,.05.78v3.51h-1.12v-3.27a6.5,6.5,0,0,0-.05-.94,2.05,2.05,0,0,0-.21-.66,1,1,0,0,0-.41-.39,1.41,1.41,0,0,0-.66-.13h-.36l-.36,0-.32,0-.19,0v5.27h-1.12Z" transform="translate(-9.62 -8.95)"/><path class="cls-10" d="M695.37,246.63a4.05,4.05,0,0,1-.21,1.34,3.09,3.09,0,0,1-.61,1,2.7,2.7,0,0,1-.93.67,3.12,3.12,0,0,1-2.35,0,2.7,2.7,0,0,1-.93-.67,3.09,3.09,0,0,1-.61-1,4.38,4.38,0,0,1,0-2.68,3.25,3.25,0,0,1,.61-1,2.55,2.55,0,0,1,.93-.66,3,3,0,0,1,2.35,0,2.55,2.55,0,0,1,.93.66,3.25,3.25,0,0,1,.61,1A4.05,4.05,0,0,1,695.37,246.63Zm-1.16,0a2.68,2.68,0,0,0-.48-1.68,1.52,1.52,0,0,0-1.29-.61,1.55,1.55,0,0,0-1.29.61,2.75,2.75,0,0,0-.47,1.68,2.71,2.71,0,0,0,.47,1.67,1.56,1.56,0,0,0,1.29.62,1.53,1.53,0,0,0,1.29-.62A2.65,2.65,0,0,0,694.21,246.63Z" transform="translate(-9.62 -8.95)"/><path class="cls-10" d="M701,240.63l1.11-.19v9.13c-.26.07-.58.14-1,.21a7.15,7.15,0,0,1-1.38.11,3.38,3.38,0,0,1-1.3-.23,2.73,2.73,0,0,1-1-.64,3,3,0,0,1-.63-1,3.88,3.88,0,0,1-.22-1.36,4.58,4.58,0,0,1,.18-1.32,3,3,0,0,1,.55-1,2.46,2.46,0,0,1,.88-.68,3.1,3.1,0,0,1,2.15-.09,3.51,3.51,0,0,1,.62.27Zm0,4.2a2.82,2.82,0,0,0-.59-.33,2.32,2.32,0,0,0-.84-.15,1.84,1.84,0,0,0-.82.17,1.54,1.54,0,0,0-.56.48,1.92,1.92,0,0,0-.31.73,3.71,3.71,0,0,0-.1.9,2.39,2.39,0,0,0,.54,1.68,1.84,1.84,0,0,0,1.44.6,7.59,7.59,0,0,0,.76,0l.48-.09Z" transform="translate(-9.62 -8.95)"/><path class="cls-10" d="M709,249.57c-.26.06-.6.13-1,.2a8.83,8.83,0,0,1-1.45.11,3.14,3.14,0,0,1-1.22-.21,2.06,2.06,0,0,1-.79-.59,2.47,2.47,0,0,1-.43-.91,4.63,4.63,0,0,1-.13-1.16v-3.5h1.11v3.26a2.72,2.72,0,0,0,.37,1.63,1.38,1.38,0,0,0,1.21.5l.37,0a2,2,0,0,0,.36,0l.31,0,.19,0v-5.27H709Z" transform="translate(-9.62 -8.95)"/><path class="cls-10" d="M712.77,249.87a2.13,2.13,0,0,1-1.46-.45,1.73,1.73,0,0,1-.44-1.3v-7.49l1.12-.19v7.5a1.87,1.87,0,0,0,0,.45.62.62,0,0,0,.15.29.68.68,0,0,0,.29.16,2.23,2.23,0,0,0,.45.09Z" transform="translate(-9.62 -8.95)"/><path class="cls-10" d="M713.83,246.64a4,4,0,0,1,.24-1.45,3,3,0,0,1,.63-1,2.55,2.55,0,0,1,.92-.61,2.73,2.73,0,0,1,1-.21,2.38,2.38,0,0,1,1.93.79,3.59,3.59,0,0,1,.67,2.39v.19a1.48,1.48,0,0,1,0,.21H715a2.3,2.3,0,0,0,.56,1.47,2.06,2.06,0,0,0,1.54.51,4.58,4.58,0,0,0,1-.1,4.34,4.34,0,0,0,.61-.2l.15.93a2.77,2.77,0,0,1-.71.23,5.11,5.11,0,0,1-1.16.12,3.78,3.78,0,0,1-1.41-.24,2.78,2.78,0,0,1-1-.68,3,3,0,0,1-.57-1A4.44,4.44,0,0,1,713.83,246.64Zm4.28-.61a1.84,1.84,0,0,0-.38-1.24,1.28,1.28,0,0,0-1.07-.49,1.48,1.48,0,0,0-.68.15,1.61,1.61,0,0,0-.81.94,2.86,2.86,0,0,0-.16.64Z" transform="translate(-9.62 -8.95)"/><path class="cls-10" d="M722.33,248.94a2.21,2.21,0,0,0,1-.18.6.6,0,0,0,.33-.57.77.77,0,0,0-.33-.65,5,5,0,0,0-1.06-.54l-.69-.29a2.31,2.31,0,0,1-.57-.36,1.57,1.57,0,0,1-.39-.49,1.66,1.66,0,0,1-.14-.71,1.57,1.57,0,0,1,.61-1.31,2.59,2.59,0,0,1,1.67-.49,4.71,4.71,0,0,1,.53,0l.49.07.4.09.27.09-.2,1a2.56,2.56,0,0,0-.57-.2,3.5,3.5,0,0,0-.92-.1,1.77,1.77,0,0,0-.82.18.62.62,0,0,0-.34.59.86.86,0,0,0,.07.36,1.23,1.23,0,0,0,.24.28,2.11,2.11,0,0,0,.4.23l.58.23c.3.11.56.22.79.33a2.56,2.56,0,0,1,.6.38,1.38,1.38,0,0,1,.37.52,1.82,1.82,0,0,1,.14.75,1.51,1.51,0,0,1-.64,1.31,3.27,3.27,0,0,1-1.84.44,4.43,4.43,0,0,1-1.29-.14,5.9,5.9,0,0,1-.64-.21l.21-1,.61.22A3.41,3.41,0,0,0,722.33,248.94Z" transform="translate(-9.62 -8.95)"/><path class="cls-10" d="M237.54,637.92a5.72,5.72,0,0,1-.4,2.2,4.08,4.08,0,0,1-1.11,1.55,4.85,4.85,0,0,1-1.76.93,8.31,8.31,0,0,1-2.32.3c-.39,0-.85,0-1.37,0a11,11,0,0,1-1.54-.2V633.2a13,13,0,0,1,1.57-.19c.55,0,1,0,1.41,0a8.79,8.79,0,0,1,2.26.28,4.49,4.49,0,0,1,1.74.89,3.82,3.82,0,0,1,1.12,1.54A5.8,5.8,0,0,1,237.54,637.92ZM231.22,641l.36,0h.48a3.23,3.23,0,0,0,2.43-.83,3.15,3.15,0,0,0,.79-2.28,2.73,2.73,0,0,0-3.15-3.09h-.46l-.45,0Z" transform="translate(-9.62 -8.95)"/><path class="cls-10" d="M238.87,639.15a4.5,4.5,0,0,1,.3-1.71,3.67,3.67,0,0,1,.79-1.23,3.22,3.22,0,0,1,1.12-.74,3.54,3.54,0,0,1,1.31-.25,3.25,3.25,0,0,1,2.48,1,3.94,3.94,0,0,1,.91,2.82c0,.12,0,.25,0,.4s0,.27,0,.38H241a1.34,1.34,0,0,0,.6,1,2.36,2.36,0,0,0,1.43.38,5.91,5.91,0,0,0,1.12-.1,4.6,4.6,0,0,0,.91-.26l.28,1.69a2.7,2.7,0,0,1-.45.17c-.19.06-.4.1-.62.15l-.74.1a6.79,6.79,0,0,1-.78,0,4.54,4.54,0,0,1-1.73-.29,3.41,3.41,0,0,1-1.22-.8,3.24,3.24,0,0,1-.71-1.22A4.6,4.6,0,0,1,238.87,639.15Zm4.9-.8a1.78,1.78,0,0,0-.1-.51,1.37,1.37,0,0,0-.23-.45,1.3,1.3,0,0,0-.41-.32,1.25,1.25,0,0,0-.61-.13,1.4,1.4,0,0,0-.6.12,1.21,1.21,0,0,0-.42.31,1.48,1.48,0,0,0-.26.46,3.3,3.3,0,0,0-.13.52Z" transform="translate(-9.62 -8.95)"/><path class="cls-10" d="M254.24,639.1a5.38,5.38,0,0,1-.21,1.55,3.41,3.41,0,0,1-.62,1.2,2.8,2.8,0,0,1-1,.79,3.33,3.33,0,0,1-1.38.28,4.07,4.07,0,0,1-1.54-.32v2.77h-2.09v-9.7c.19-.06.4-.11.65-.17l.76-.13q.39-.06.81-.09l.79,0a4.6,4.6,0,0,1,1.63.27,3.39,3.39,0,0,1,1.2.77,3.18,3.18,0,0,1,.75,1.21A4.75,4.75,0,0,1,254.24,639.1Zm-2.13,0a2.54,2.54,0,0,0-.44-1.55,1.5,1.5,0,0,0-1.28-.58l-.52,0-.39.05v3.77a2.06,2.06,0,0,0,.51.21,2.27,2.27,0,0,0,.63.08C251.61,641.15,252.11,640.49,252.11,639.15Z" transform="translate(-9.62 -8.95)"/><path class="cls-10" d="M262.74,639.08a4.73,4.73,0,0,1-.26,1.59,3.3,3.3,0,0,1-.73,1.23,3.07,3.07,0,0,1-1.14.79,3.73,3.73,0,0,1-1.49.28,3.67,3.67,0,0,1-1.47-.28,3.2,3.2,0,0,1-1.15-.79,3.77,3.77,0,0,1-.74-1.23,4.73,4.73,0,0,1-.26-1.59,4.44,4.44,0,0,1,.27-1.58,3.46,3.46,0,0,1,.76-1.22,3.36,3.36,0,0,1,1.14-.78,3.95,3.95,0,0,1,2.92,0,3.36,3.36,0,0,1,1.14.78,3.73,3.73,0,0,1,.74,1.22A4.44,4.44,0,0,1,262.74,639.08Zm-2.13,0a2.61,2.61,0,0,0-.39-1.52,1.24,1.24,0,0,0-1.1-.55,1.27,1.27,0,0,0-1.1.55,3.11,3.11,0,0,0,0,3.05,1.26,1.26,0,0,0,1.1.57,1.24,1.24,0,0,0,1.1-.57A2.62,2.62,0,0,0,260.61,639.08Z" transform="translate(-9.62 -8.95)"/><path class="cls-10" d="M264.28,633.58l2.08-.34v2.17h2.51v1.74h-2.51v2.59a2.1,2.1,0,0,0,.23,1,1,1,0,0,0,.93.39,4.23,4.23,0,0,0,.7-.06,3.26,3.26,0,0,0,.65-.18l.29,1.63a5.55,5.55,0,0,1-.84.26,4.6,4.6,0,0,1-1.13.12,3.66,3.66,0,0,1-1.42-.24,2.11,2.11,0,0,1-.89-.64,2.38,2.38,0,0,1-.47-1,5.84,5.84,0,0,1-.13-1.3Z" transform="translate(-9.62 -8.95)"/><path class="cls-10" d="M666.94,631.78v-9.7h6.5v1.83h-4.31v2H673v1.83h-3.83v4Z" transform="translate(-9.62 -8.95)"/><path class="cls-10" d="M677.78,631.92a5.28,5.28,0,0,1-1.48-.2,2.07,2.07,0,0,1-.89-.51,1.67,1.67,0,0,1-.45-.8,4.21,4.21,0,0,1-.12-1v-8.11l2.08-.34v8a2.57,2.57,0,0,0,.05.5.81.81,0,0,0,.16.38.91.91,0,0,0,.34.25,2.07,2.07,0,0,0,.6.13Z" transform="translate(-9.62 -8.95)"/><path class="cls-10" d="M686.15,628.08a4.74,4.74,0,0,1-.25,1.59,3.44,3.44,0,0,1-.73,1.23,3.25,3.25,0,0,1-1.14.79,4.08,4.08,0,0,1-3,0,3.25,3.25,0,0,1-1.14-.79,3.61,3.61,0,0,1-.74-1.23,4.5,4.5,0,0,1-.27-1.59,4.23,4.23,0,0,1,.28-1.58,3.58,3.58,0,0,1,.75-1.22,3.4,3.4,0,0,1,1.15-.78,3.92,3.92,0,0,1,2.91,0,3.26,3.26,0,0,1,1.14.78,3.41,3.41,0,0,1,.74,1.22A4.44,4.44,0,0,1,686.15,628.08Zm-2.13,0a2.69,2.69,0,0,0-.38-1.52,1.39,1.39,0,0,0-2.21,0,3.18,3.18,0,0,0,0,3.05,1.36,1.36,0,0,0,2.21,0A2.7,2.7,0,0,0,684,628.08Z" transform="translate(-9.62 -8.95)"/><path class="cls-10" d="M692.08,627.55c-.19.71-.39,1.41-.6,2.11s-.43,1.41-.66,2.12H689.2c-.17-.39-.36-.86-.55-1.4s-.4-1.13-.61-1.77-.43-1.32-.65-2-.43-1.44-.64-2.17H689c.08.34.16.71.25,1.1s.18.81.28,1.23.2.84.31,1.26.22.84.33,1.23l.36-1.26c.11-.43.23-.85.33-1.27s.21-.81.31-1.2.18-.75.26-1.09h1.51l.25,1.09c.1.39.19.79.3,1.2s.21.84.32,1.27.23.85.35,1.26l.34-1.23c.11-.42.22-.84.31-1.26s.2-.83.29-1.23.17-.76.24-1.1h2.17c-.2.73-.42,1.45-.64,2.17s-.43,1.39-.64,2-.42,1.23-.62,1.77-.39,1-.56,1.4h-1.62c-.23-.71-.46-1.42-.68-2.12S692.27,628.26,692.08,627.55Z" transform="translate(-9.62 -8.95)"/><path class="cls-10" d="M700.68,630.28a2.19,2.19,0,0,0,.81-.11.44.44,0,0,0,.24-.44.54.54,0,0,0-.31-.44,5.37,5.37,0,0,0-.93-.42c-.33-.13-.63-.25-.89-.38a2.48,2.48,0,0,1-.68-.47,2,2,0,0,1-.44-.65,2.48,2.48,0,0,1-.15-.91,2,2,0,0,1,.77-1.64,3.35,3.35,0,0,1,2.11-.6,6.73,6.73,0,0,1,1.29.12,5.38,5.38,0,0,1,1,.26l-.36,1.62a7.47,7.47,0,0,0-.79-.22,4.1,4.1,0,0,0-1-.1c-.66,0-1,.18-1,.54a.56.56,0,0,0,0,.23.49.49,0,0,0,.17.19,2.44,2.44,0,0,0,.34.19l.55.24a8,8,0,0,1,1.14.5,2.52,2.52,0,0,1,.7.53,1.54,1.54,0,0,1,.37.64,2.8,2.8,0,0,1,.1.81,1.89,1.89,0,0,1-.81,1.65,4.12,4.12,0,0,1-2.32.55,6.73,6.73,0,0,1-1.63-.16,9.12,9.12,0,0,1-.91-.28l.35-1.7a7,7,0,0,0,1.1.33A5.22,5.22,0,0,0,700.68,630.28Z" transform="translate(-9.62 -8.95)"/><line class="cls-13" x1="625.38" y1="659.55" x2="725.38" y2="659.55"/><path class="cls-10" d="M645.88,680.26c.26-.06.6-.13,1-.2a9.18,9.18,0,0,1,1.47-.11,3.12,3.12,0,0,1,1.23.21,2,2,0,0,1,.79.59,2.17,2.17,0,0,1,.41.91,5.23,5.23,0,0,1,.12,1.16v3.5h-1.11v-3.26a5.46,5.46,0,0,0-.08-1,1.55,1.55,0,0,0-.26-.66,1,1,0,0,0-.48-.37,2,2,0,0,0-.74-.11h-.37l-.37,0-.31,0-.2,0v5.26h-1.12Z" transform="translate(-9.62 -8.95)"/><path class="cls-10" d="M658.28,683.2a3.82,3.82,0,0,1-.22,1.35,3,3,0,0,1-.6,1,2.7,2.7,0,0,1-.93.67,3.12,3.12,0,0,1-2.35,0,2.7,2.7,0,0,1-.93-.67,3,3,0,0,1-.61-1,4.19,4.19,0,0,1,0-2.68,3,3,0,0,1,.61-1,2.7,2.7,0,0,1,.93-.67,3.12,3.12,0,0,1,2.35,0,2.7,2.7,0,0,1,.93.67,3,3,0,0,1,.6,1A3.79,3.79,0,0,1,658.28,683.2Zm-1.16,0a2.65,2.65,0,0,0-.48-1.67,1.53,1.53,0,0,0-1.29-.62,1.56,1.56,0,0,0-1.29.62,3.22,3.22,0,0,0,0,3.35,1.56,1.56,0,0,0,1.29.62,1.53,1.53,0,0,0,1.29-.62A2.66,2.66,0,0,0,657.12,683.2Z" transform="translate(-9.62 -8.95)"/><path class="cls-10" d="M663.88,677.2,665,677v9.13a8.24,8.24,0,0,1-1,.22,8,8,0,0,1-1.38.11,3.54,3.54,0,0,1-1.3-.23,2.76,2.76,0,0,1-1-.65,2.66,2.66,0,0,1-.63-1,3.94,3.94,0,0,1-.23-1.37,4.57,4.57,0,0,1,.19-1.32,2.91,2.91,0,0,1,.55-1,2.43,2.43,0,0,1,.88-.67,2.81,2.81,0,0,1,1.19-.24,3.13,3.13,0,0,1,1,.14,3,3,0,0,1,.61.28Zm0,4.2a2.18,2.18,0,0,0-.58-.32,2.32,2.32,0,0,0-.84-.16,1.78,1.78,0,0,0-.83.18,1.41,1.41,0,0,0-.55.48,2,2,0,0,0-.32.72,4.29,4.29,0,0,0-.09.9,2.43,2.43,0,0,0,.54,1.69,1.84,1.84,0,0,0,1.44.59,5.44,5.44,0,0,0,.76,0l.47-.09Z" transform="translate(-9.62 -8.95)"/><path class="cls-10" d="M666.57,683.22a4,4,0,0,1,.24-1.45,3.05,3.05,0,0,1,.64-1,2.56,2.56,0,0,1,.91-.61,2.93,2.93,0,0,1,1.06-.2,2.42,2.42,0,0,1,1.93.78,3.69,3.69,0,0,1,.67,2.4v.18c0,.08,0,.15,0,.21h-4.27a2.25,2.25,0,0,0,.56,1.48,2,2,0,0,0,1.53.5,4.06,4.06,0,0,0,1-.1,3.46,3.46,0,0,0,.6-.2l.16.94a3.58,3.58,0,0,1-.72.23,5,5,0,0,1-1.16.12,3.59,3.59,0,0,1-1.41-.25,2.54,2.54,0,0,1-1-.68,2.62,2.62,0,0,1-.57-1A4.17,4.17,0,0,1,666.57,683.22Zm4.29-.62a1.93,1.93,0,0,0-.38-1.24,1.31,1.31,0,0,0-1.08-.48,1.51,1.51,0,0,0-.68.15,1.57,1.57,0,0,0-.49.39,1.77,1.77,0,0,0-.32.55,2.41,2.41,0,0,0-.15.63Z" transform="translate(-9.62 -8.95)"/><path class="cls-10" d="M672.62,687.6h6v.94h-6Z" transform="translate(-9.62 -8.95)"/><path class="cls-10" d="M679.53,680.26c.26-.06.59-.13,1-.2A9,9,0,0,1,682,680a2.93,2.93,0,0,1,1,.16,1.87,1.87,0,0,1,.69.48l.26-.17a3.67,3.67,0,0,1,.44-.21A4.55,4.55,0,0,1,685,680a3.13,3.13,0,0,1,.7-.08,2.78,2.78,0,0,1,1.17.21,1.64,1.64,0,0,1,.72.6,2.16,2.16,0,0,1,.34.91,5.86,5.86,0,0,1,.1,1.15v3.5H686.9v-3.26a8.52,8.52,0,0,0,0-.95,2,2,0,0,0-.21-.66,1,1,0,0,0-.41-.39,1.56,1.56,0,0,0-.66-.12,2.44,2.44,0,0,0-.93.15,1.78,1.78,0,0,0-.5.27,4.07,4.07,0,0,1,.14.68,5,5,0,0,1,.05.78v3.5h-1.12v-3.26a6.64,6.64,0,0,0-.05-.95,2.23,2.23,0,0,0-.21-.66,1.09,1.09,0,0,0-.41-.39,1.56,1.56,0,0,0-.66-.12h-.36l-.36,0-.32,0-.19,0v5.26h-1.12Z" transform="translate(-9.62 -8.95)"/><path class="cls-10" d="M695.37,683.2a4.07,4.07,0,0,1-.21,1.35,3.2,3.2,0,0,1-.61,1,2.7,2.7,0,0,1-.93.67,3.12,3.12,0,0,1-2.35,0,2.7,2.7,0,0,1-.93-.67,3.2,3.2,0,0,1-.61-1,4.38,4.38,0,0,1,0-2.68,3.14,3.14,0,0,1,.61-1,2.7,2.7,0,0,1,.93-.67,3.12,3.12,0,0,1,2.35,0,2.7,2.7,0,0,1,.93.67,3.14,3.14,0,0,1,.61,1A4,4,0,0,1,695.37,683.2Zm-1.16,0a2.65,2.65,0,0,0-.48-1.67,1.53,1.53,0,0,0-1.29-.62,1.56,1.56,0,0,0-1.29.62,3.22,3.22,0,0,0,0,3.35,1.56,1.56,0,0,0,1.29.62,1.53,1.53,0,0,0,1.29-.62A2.66,2.66,0,0,0,694.21,683.2Z" transform="translate(-9.62 -8.95)"/><path class="cls-10" d="M701,677.2l1.11-.19v9.13a8.24,8.24,0,0,1-1,.22,8,8,0,0,1-1.38.11,3.58,3.58,0,0,1-1.3-.23,2.76,2.76,0,0,1-1-.65,2.93,2.93,0,0,1-.63-1,3.94,3.94,0,0,1-.22-1.37,4.58,4.58,0,0,1,.18-1.32,3.08,3.08,0,0,1,.55-1,2.43,2.43,0,0,1,.88-.67,2.84,2.84,0,0,1,1.19-.24,3.13,3.13,0,0,1,1,.14,3.42,3.42,0,0,1,.62.28Zm0,4.2a2.44,2.44,0,0,0-.59-.32,2.32,2.32,0,0,0-.84-.16,1.71,1.71,0,0,0-.82.18,1.37,1.37,0,0,0-.56.48,1.81,1.81,0,0,0-.31.72,3.71,3.71,0,0,0-.1.9,2.43,2.43,0,0,0,.54,1.69,1.84,1.84,0,0,0,1.44.59,5.44,5.44,0,0,0,.76,0l.48-.09Z" transform="translate(-9.62 -8.95)"/><path class="cls-10" d="M709,686.14q-.39.11-1,.21a8.83,8.83,0,0,1-1.45.11,3.14,3.14,0,0,1-1.22-.21,2,2,0,0,1-.79-.6,2.43,2.43,0,0,1-.43-.9,4.68,4.68,0,0,1-.13-1.16v-3.51h1.11v3.27a2.74,2.74,0,0,0,.37,1.63,1.38,1.38,0,0,0,1.21.49H707l.36,0,.31,0a.61.61,0,0,0,.19,0v-5.27H709Z" transform="translate(-9.62 -8.95)"/><path class="cls-10" d="M712.77,686.44a2.08,2.08,0,0,1-1.46-.44,1.76,1.76,0,0,1-.44-1.31V677.2L712,677v7.5a1.89,1.89,0,0,0,0,.46.67.67,0,0,0,.15.29.81.81,0,0,0,.29.16l.45.09Z" transform="translate(-9.62 -8.95)"/><path class="cls-10" d="M713.83,683.22a4,4,0,0,1,.24-1.45,3.2,3.2,0,0,1,.63-1,2.69,2.69,0,0,1,.92-.61,2.92,2.92,0,0,1,1-.2,2.41,2.41,0,0,1,1.93.78,3.64,3.64,0,0,1,.67,2.4v.18a1.34,1.34,0,0,1,0,.21H715a2.35,2.35,0,0,0,.56,1.48,2.05,2.05,0,0,0,1.54.5,4,4,0,0,0,1-.1,3.33,3.33,0,0,0,.61-.2l.15.94a3.23,3.23,0,0,1-.71.23,5.11,5.11,0,0,1-1.16.12,3.59,3.59,0,0,1-1.41-.25,2.65,2.65,0,0,1-1-.68,2.9,2.9,0,0,1-.57-1A4.49,4.49,0,0,1,713.83,683.22Zm4.28-.62a1.87,1.87,0,0,0-.38-1.24,1.3,1.3,0,0,0-1.07-.48,1.48,1.48,0,0,0-.68.15,1.61,1.61,0,0,0-.81.94,2.91,2.91,0,0,0-.16.63Z" transform="translate(-9.62 -8.95)"/><path class="cls-10" d="M722.33,685.52a2.21,2.21,0,0,0,1-.18.61.61,0,0,0,.33-.58.75.75,0,0,0-.33-.64,5,5,0,0,0-1.06-.54l-.69-.3a2.62,2.62,0,0,1-.57-.35,1.43,1.43,0,0,1-.53-1.2,1.6,1.6,0,0,1,.61-1.32,2.65,2.65,0,0,1,1.67-.48,4.71,4.71,0,0,1,.53,0l.49.07.4.09.27.08-.2,1a2.65,2.65,0,0,0-.57-.19,3.46,3.46,0,0,0-.92-.11,1.77,1.77,0,0,0-.82.19.61.61,0,0,0-.34.58.8.8,0,0,0,.07.36.92.92,0,0,0,.24.28,1.7,1.7,0,0,0,.4.24l.58.23c.3.11.56.22.79.33a2.54,2.54,0,0,1,.6.37,1.41,1.41,0,0,1,.37.53,1.82,1.82,0,0,1,.14.75,1.49,1.49,0,0,1-.64,1.3,3.19,3.19,0,0,1-1.84.45,4.8,4.8,0,0,1-1.29-.14,5.9,5.9,0,0,1-.64-.21l.21-1,.61.22A3.71,3.71,0,0,0,722.33,685.52Z" transform="translate(-9.62 -8.95)"/></g></svg>