<svg xmlns="http://www.w3.org/2000/svg" width="800" height="800" viewBox="0 0 800 800"><defs><style>.cls-1,.cls-11,.cls-38,.cls-5,.cls-7,.cls-9{fill:none;}.cls-1{stroke:#97999d;}.cls-1,.cls-3,.cls-38,.cls-5,.cls-7,.cls-9{stroke-miterlimit:10;}.cls-1,.cls-11,.cls-3,.cls-38,.cls-5,.cls-7,.cls-9{stroke-width:2px;}.cls-2{fill:#97999d;}.cls-20,.cls-24,.cls-3{fill:#62d1fe;}.cls-11,.cls-3,.cls-7{stroke:#62d1fe;}.cls-4{opacity:0.8;}.cls-5{stroke:#2f333b;}.cls-13,.cls-14,.cls-15,.cls-6{fill:#2f333b;}.cls-8{fill:#009ddc;}.cls-9{stroke:#fff;}.cls-10,.cls-16{fill:#fff;}.cls-11{stroke-linejoin:bevel;}.cls-12{opacity:0.5;}.cls-13{opacity:0.45;}.cls-13,.cls-14,.cls-15,.cls-16,.cls-20,.cls-39{font-size:14px;}.cls-13,.cls-14,.cls-15,.cls-24{font-family:SourceSansPro-Regular, Source Sans Pro;}.cls-14{opacity:0.9;}.cls-15{opacity:0.65;}.cls-16{font-family:Ubuntu-Bold, Ubuntu;font-weight:700;}.cls-17{letter-spacing:-0.01em;}.cls-18{letter-spacing:-0.02em;}.cls-19{letter-spacing:-0.02em;}.cls-20,.cls-39{font-family:Ubuntu;}.cls-21{letter-spacing:-0.01em;}.cls-22{letter-spacing:0em;}.cls-23{letter-spacing:-0.01em;}.cls-24{font-size:12px;}.cls-25{letter-spacing:-0.02em;}.cls-26{letter-spacing:-0.01em;}.cls-27{letter-spacing:0em;}.cls-28{letter-spacing:0em;}.cls-29{letter-spacing:-0.01em;}.cls-30{letter-spacing:0em;}.cls-31{letter-spacing:-0.01em;}.cls-32{letter-spacing:0.02em;}.cls-33{letter-spacing:-0.02em;}.cls-34{letter-spacing:-0.02em;}.cls-35{letter-spacing:0em;}.cls-36{letter-spacing:-0.01em;}.cls-37{letter-spacing:0em;}.cls-38{stroke:#5cceff;}.cls-39{fill:#5cceff;}</style></defs><title>Zeichenfläche 1</title><g id="arrow"><path class="cls-1" d="M564.19,296.59a175.13,175.13,0,0,1,1.18,190.06"/><polygon class="cls-2" points="561.91 476.68 563.87 476.29 565.74 485.98 575.26 483.4 575.78 485.34 564.19 488.47 561.91 476.68"/><line class="cls-3" x1="160.9" y1="393" x2="110.9" y2="393"/><g class="cls-4"><path class="cls-5" d="M261,314.61a175,175,0,0,1,156.74-97.08q4.77,0,9.48.25"/><polygon class="cls-6" points="420.34 225.79 419.03 224.29 426.47 217.81 419.47 210.87 420.88 209.45 429.4 217.91 420.34 225.79"/></g><path class="cls-1" d="M429.45,567.15c-3.83.25-7.7.38-11.59.38a175,175,0,0,1-155.77-95.17"/><polygon class="cls-2" points="272.49 474.26 271.85 476.16 262.51 473.01 260.05 482.56 258.11 482.06 261.11 470.43 272.49 474.26"/><line class="cls-7" x1="553.5" y1="175.38" x2="578.5" y2="132.08"/><line class="cls-7" x1="578.29" y1="650.9" x2="553.29" y2="607.6"/></g><g id="model"><circle class="cls-8" cx="242.81" cy="392.53" r="60"/><circle class="cls-8" cx="505.79" cy="543.15" r="60"/><circle class="cls-8" cx="505.79" cy="241.91" r="60"/></g><g id="icons"><polygon class="cls-9" points="525.9 214.82 532.84 218.79 518.92 243.09 511.97 247.18 511.98 239.12 525.9 214.82"/><line class="cls-9" x1="518.92" y1="243.09" x2="511.98" y2="239.11"/><line class="cls-9" x1="530.35" y1="223.13" x2="524.18" y2="219.6"/><line class="cls-9" x1="506" y1="248" x2="480" y2="248"/><polyline class="cls-9" points="263 394 267 394 267 368 217 368 217 394 253 394"/><rect class="cls-9" x="237" y="394" width="10" height="6"/><circle class="cls-10" cx="258" cy="397" r="1"/><polygon class="cls-9" points="263 383 253 383 253 394 253 400 263 400 263 383"/><polygon class="cls-11" points="593.17 59.45 618.63 67.05 593.17 74.73 567.72 67.14 593.17 59.45"/><polyline class="cls-7" points="618.63 74.05 593.17 81.73 567.72 74.14"/><polyline class="cls-7" points="618.63 81.05 593.17 88.73 567.72 81.14"/><polygon class="cls-9" points="505.37 520 481.9 511.61 481.9 545.51 505.37 553.89 505.38 553.9 528.87 545.51 528.87 511.61 505.38 520 505.37 520"/><line class="cls-9" x1="485.9" y1="522.42" x2="501.38" y2="527.95"/><line class="cls-9" x1="505.38" y1="520.06" x2="505.38" y2="553.89"/><line class="cls-9" x1="485.9" y1="530.42" x2="501.38" y2="535.95"/><line class="cls-9" x1="485.9" y1="538.42" x2="501.38" y2="543.95"/><line class="cls-9" x1="524.87" y1="522.4" x2="509.38" y2="527.93"/><line class="cls-9" x1="524.87" y1="530.4" x2="509.38" y2="535.93"/><line class="cls-9" x1="524.87" y1="538.4" x2="509.38" y2="543.93"/><circle class="cls-7" cx="75.92" cy="367.36" r="7.98"/><path class="cls-7" d="M89.9,393.1A14.11,14.11,0,0,0,83.07,381l0,0a15.36,15.36,0,0,1-14.26,0l0,0A14.11,14.11,0,0,0,61.9,393.1V400h28v-6.95"/></g><g id="Queries"><g class="cls-12"><path class="cls-1" d="M425.8,543.73q-4,.22-8,.22c-57.95,0-108.3-33.76-133.75-83.35"/><polygon class="cls-2" points="294.4 462.53 293.76 464.43 284.42 461.25 281.93 470.8 280 470.29 283.03 458.67 294.4 462.53"/></g><text class="cls-13" transform="translate(329.61 498.99) rotate(37.74)">Q</text><text class="cls-13" transform="matrix(0.83, 0.56, -0.56, 0.83, 337.66, 505.16)">u</text><text class="cls-13" transform="translate(344.66 509.82) rotate(30.56)">e</text><text class="cls-13" transform="matrix(0.88, 0.47, -0.47, 0.88, 351.22, 513.64)">r</text><text class="cls-13" transform="translate(356.05 516.17) rotate(25.88)">i</text><text class="cls-13" transform="translate(359.71 517.97) rotate(23.45)">e</text><text class="cls-13" transform="translate(366.75 520.99) rotate(20.49)">s</text></g><g id="Commands"><text class="cls-14" transform="matrix(0.75, -0.66, 0.66, 0.75, 291.68, 255.34)">C</text><text class="cls-14" transform="matrix(0.78, -0.63, 0.63, 0.78, 297.81, 249.96)">o</text><text class="cls-14" transform="translate(303.81 245.06) rotate(-35.93)">m</text><text class="cls-14" transform="matrix(0.84, -0.53, 0.53, 0.84, 313.33, 238.17)">m</text><text class="cls-14" transform="translate(323.3 231.93) rotate(-29.41)">a</text><text class="cls-14" transform="translate(329.62 228.36) rotate(-27.09)">n</text><text class="cls-14" transform="translate(336.58 224.8) rotate(-24.66)">d</text><text class="cls-14" transform="matrix(0.92, -0.38, 0.38, 0.92, 343.83, 221.5)">s</text></g><g id="Events"><text class="cls-15" transform="translate(603.06 373.21) rotate(85.16)">E</text><text class="cls-15" transform="translate(603.68 380.62) rotate(87.31)">v</text><text class="cls-15" transform="translate(604 387.57) rotate(89.5)">e</text><text class="cls-15" transform="translate(604.07 394.69) rotate(91.79)">n</text><text class="cls-15" transform="translate(603.79 402.55) rotate(93.75)">t</text><text class="cls-15" transform="translate(603.49 407.33) rotate(95.39)">s</text></g><g id="Events-2" data-name="Events"><text class="cls-15" transform="translate(301.46 548.95) rotate(35.55)">E</text><text class="cls-15" transform="matrix(0.84, 0.55, -0.55, 0.84, 307.85, 553.49)">v</text><text class="cls-15" transform="translate(313.76 557.38) rotate(31.25)">e</text><text class="cls-15" transform="matrix(0.88, 0.48, -0.48, 0.88, 320.22, 561.29)">n</text><text class="cls-15" transform="translate(327.45 565.24) rotate(26.95)">t</text><text class="cls-15" transform="matrix(0.9, 0.43, -0.43, 0.9, 332.01, 567.57)">s</text></g><g id="type"><text class="cls-16" transform="translate(464.78 271.36)"><tspan class="cls-17">W</tspan><tspan x="13.06" y="0">ri</tspan><tspan class="cls-18" x="23.02" y="0">t</tspan><tspan x="28.95" y="0">e model</tspan></text><text class="cls-16" transform="translate(467.66 573.15)"><tspan class="cls-19">R</tspan><tspan x="8.99" y="0">ead model</tspan></text><text class="cls-20" transform="translate(60.92 422.53)">User</text><text class="cls-20" transform="translate(556.82 112.05)"><tspan class="cls-19">E</tspan><tspan class="cls-21" x="7.64" y="0">v</tspan><tspan class="cls-22" x="14.48" y="0">ent s</tspan><tspan class="cls-23" x="45.44" y="0">t</tspan><tspan x="50.88" y="0">ore</tspan></text><text class="cls-24" transform="translate(324 379.5)">The client sends <tspan class="cls-25" x="83.4" y="0">c</tspan><tspan x="88.62" y="0">ommands, </tspan><tspan x="0" y="14.4">subscribes </tspan><tspan class="cls-26" x="55.82" y="14.4">t</tspan><tspan x="59.71" y="14.4">o </tspan><tspan class="cls-27" x="68.62" y="14.4">e</tspan><tspan class="cls-28" x="74.63" y="14.4">v</tspan><tspan x="80.18" y="14.4">en</tspan><tspan class="cls-29" x="92.7" y="14.4">t</tspan><tspan class="cls-30" x="96.63" y="14.4">s, and</tspan><tspan class="cls-31" x="0" y="28.8">r</tspan><tspan class="cls-26" x="4.04" y="28.8">e</tspan><tspan x="9.83" y="28.8">ads and obse</tspan><tspan class="cls-32" x="75.75" y="28.8">r</tspan><tspan class="cls-28" x="80.22" y="28.8">v</tspan><tspan x="85.77" y="28.8">es li</tspan><tspan class="cls-33" x="105.17" y="28.8">s</tspan><tspan class="cls-29" x="109.95" y="28.8">t</tspan><tspan class="cls-30" x="113.89" y="28.8">s </tspan><tspan x="0" y="43.2">using queries.</tspan></text><text class="cls-24" transform="translate(583.13 544.48)">The <tspan class="cls-31" x="21.31" y="0">r</tspan><tspan class="cls-26" x="25.36" y="0">e</tspan><tspan x="31.14" y="0">ad model handles </tspan><tspan class="cls-27" x="0" y="14.4">e</tspan><tspan class="cls-28" x="6.01" y="14.4">v</tspan><tspan x="11.57" y="14.4">en</tspan><tspan class="cls-31" x="24.08" y="14.4">t</tspan><tspan x="28.02" y="14.4">s and t</tspan><tspan class="cls-34" x="61.17" y="14.4">r</tspan><tspan class="cls-35" x="65.05" y="14.4">ans</tspan><tspan class="cls-31" x="82.69" y="14.4">f</tspan><tspan x="86.08" y="14.4">orms </tspan><tspan x="0" y="28.8">them in</tspan><tspan class="cls-26" x="38.4" y="28.8">t</tspan><tspan x="42.29" y="28.8">o li</tspan><tspan class="cls-33" x="57.2" y="28.8">s</tspan><tspan class="cls-31" x="61.99" y="28.8">t</tspan><tspan x="65.93" y="28.8">s.</tspan></text><text class="cls-24" transform="translate(583.13 228.76)">The wri<tspan class="cls-36" x="37.04" y="0">t</tspan><tspan class="cls-30" x="40.93" y="0">e model handles </tspan><tspan class="cls-25" x="0" y="14.4">c</tspan><tspan x="5.22" y="14.4">ommands, and </tspan><tspan class="cls-33" x="82.98" y="14.4">s</tspan><tspan class="cls-26" x="87.77" y="14.4">t</tspan><tspan x="91.66" y="14.4">o</tspan><tspan class="cls-31" x="98.16" y="14.4">r</tspan><tspan x="102.2" y="14.4">es and </tspan><tspan x="0" y="28.8">publishes </tspan><tspan class="cls-27" x="50.77" y="28.8">e</tspan><tspan class="cls-37" x="56.78" y="28.8">v</tspan><tspan class="cls-30" x="62.34" y="28.8">en</tspan><tspan class="cls-31" x="74.85" y="28.8">t</tspan><tspan x="78.79" y="28.8">s using the </tspan><tspan x="0" y="43.2">domain.</tspan></text><text class="cls-16" transform="translate(222.72 422.53)">Client</text><polygon class="cls-38" points="614 703.02 618 703.02 618 671.02 568 671.02 568 703.02 614 703.02"/><polygon class="cls-38" points="616.88 685.02 618 685.02 618 675.98 604 675.98 604 685.02 616.88 685.02"/><polygon class="cls-38" points="616.88 694.02 618 694.02 618 685.02 604 685.02 604 694.02 616.88 694.02"/><polygon class="cls-38" points="616.88 703.02 618 703.02 618 693.98 604 693.98 604 703.02 616.88 703.02"/><polygon class="cls-38" points="602.88 685.02 604 685.02 604 675.98 590 675.98 590 685.02 602.88 685.02"/><polygon class="cls-38" points="602.88 694.02 604 694.02 604 685.02 590 685.02 590 694.02 602.88 694.02"/><polygon class="cls-38" points="602.88 703.02 604 703.02 604 693.98 590 693.98 590 703.02 602.88 703.02"/><polygon class="cls-38" points="588.88 685.02 590 685.02 590 675.98 576 675.98 576 685.02 588.88 685.02"/><polygon class="cls-38" points="588.88 694.02 590 694.02 590 685.02 576 685.02 576 694.02 588.88 694.02"/><polygon class="cls-38" points="588.88 703.02 590 703.02 590 693.98 576 693.98 576 703.02 588.88 703.02"/><line class="cls-38" x1="568" y1="675.98" x2="576" y2="675.98"/><text class="cls-39" transform="translate(563.75 725.95)">List s<tspan class="cls-23" x="32.16" y="0">t</tspan><tspan x="37.59" y="0">ore</tspan></text></g></svg>